<?xml version="1.0" standalone="no"?>
<!DOCTYPE svg PUBLIC "-//W3C//DTD SVG 1.1//EN" "http://www.w3.org/Graphics/SVG/1.1/DTD/svg11.dtd" >
<svg xmlns="http://www.w3.org/2000/svg">
<metadata></metadata>
<defs>
<font id="stackyard_personal_useregular" horiz-adv-x="1871" >
<font-face units-per-em="2048" ascent="1536" descent="-512" />
<missing-glyph horiz-adv-x="555" />
<glyph unicode="&#xfb01;" horiz-adv-x="1030" d="M-315 -231.5q-2 51.5 10 96.5q8 35 41 107.5t83 170t112.5 211t130 228t137 222t132 194.5t114 145.5t85.5 73.5q45 18 80 -0.5t54.5 -58.5t21.5 -93t-18 -107q-10 -29 -51.5 -68.5t-97.5 -85.5t-121.5 -95.5t-127.5 -96.5q20 -18 27 -37q68 8 134.5 31t126.5 51.5 t112.5 59t91.5 55.5q16 10 32.5 18.5t28.5 12.5q18 10 46 4t50.5 -21.5t33 -35t-4.5 -33.5q-10 -10 -49 -55.5t-90 -106.5t-106.5 -132t-97.5 -134.5t-63.5 -109.5t-4.5 -60q10 -8 47 11.5t87 54t107.5 79.5t109.5 87t90 77t52 47q23 23 47.5 33t40 10t17.5 -11t-19 -32 q-10 -10 -45 -49t-84 -91t-107.5 -111.5t-113.5 -108.5t-102.5 -82t-73.5 -33q-29 0 -57.5 14.5t-52 39t-39 57t-15.5 71.5t24.5 95.5t62.5 120t84 128t89 119.5q-45 -33 -94 -64.5t-100.5 -58t-101.5 -45t-97 -22.5q-14 -72 -46 -164t-75 -190.5t-95 -192.5t-104.5 -168 t-101.5 -119t-90 -45q-29 0 -50.5 27.5t-32.5 70.5t-13 94.5zM-227 -258q8 -18 39.5 16.5t76.5 99t96.5 150.5t97.5 171t82 160t48 118q-39 14 -63 37q-78 -129 -149 -256t-124 -231.5t-82.5 -176.5t-21.5 -88zM279 700q70 68 137 132.5t115.5 120t70.5 97.5t6 60 q-10 12 -40.5 -15.5t-74.5 -84t-99.5 -136t-114.5 -174.5zM935 963.5q5 29.5 24.5 57.5t49 50.5t61.5 33.5t62.5 7t53.5 -31q23 -29 18.5 -57.5t-27 -54t-56.5 -45t-68.5 -29.5t-63.5 -7t-43 23q-16 23 -11 52.5z" />
<glyph unicode="&#xfb02;" horiz-adv-x="946" d="M-315 -231.5q-2 51.5 10 96.5q8 35 41 107.5t83 170t112.5 211t130 228t137 222t132 194.5t113.5 146t86 73q45 18 80 -0.5t54.5 -58.5t21.5 -93t-18 -107q-12 -31 -62.5 -79t-119 -101t-144.5 -110.5t-139 -106.5q23 -10 42 -28.5t27 -40.5v-7q53 -16 111.5 -13 t110.5 15q55 106 134 234.5t159.5 241t152.5 188.5t111 78q37 0 66.5 -25.5t47 -63.5t22.5 -79t-3 -70q-18 -55 -79 -132t-143.5 -153.5t-176 -143t-177.5 -99.5q-59 -102 -95 -183t-26 -116q6 -25 55.5 -1.5t120 73t147.5 114t138 125.5q27 29 52.5 40t41 10t15.5 -14 t-23 -36q-14 -14 -52 -54t-89 -92.5t-108.5 -108.5t-112 -104t-100.5 -81t-72 -37q-23 -4 -45.5 20.5t-37 67.5t-17.5 100.5t16 122.5q4 16 12 38t21 50q-43 -14 -89.5 -19t-91.5 -1q-12 -68 -41.5 -153t-70.5 -174t-89.5 -174t-98.5 -151.5t-98 -107.5t-89 -41 q-29 0 -50.5 27.5t-32.5 70.5t-13 94.5zM-227 -258q8 -18 38.5 11.5t72.5 88t91.5 136t93.5 155.5t77.5 148.5t46.5 113.5q-47 18 -74 47q-74 -123 -139.5 -241.5t-114.5 -215t-74.5 -162t-17.5 -81.5zM279 700q70 68 137 132.5t115.5 120t70.5 97.5t6 60 q-10 12 -40.5 -15.5t-74.5 -84t-99.5 -136t-114.5 -174.5zM682 584q49 35 104.5 84t106.5 101t96 104.5t76 96.5t43 76t0 44q-14 12 -58 -29t-105.5 -114t-130.5 -169t-132 -194z" />
<glyph horiz-adv-x="0" />
<glyph unicode="&#xd;" horiz-adv-x="555" />
<glyph horiz-adv-x="0" />
<glyph horiz-adv-x="0" />
<glyph unicode=" "  horiz-adv-x="555" />
<glyph unicode="&#x09;" horiz-adv-x="555" />
<glyph unicode="&#xa0;" horiz-adv-x="555" />
<glyph unicode="!" horiz-adv-x="538" d="M-55 47q-10 20 0 49t31.5 55.5t49 45t56.5 18.5q23 0 43 -12.5t32.5 -30.5t12.5 -40.5t-18 -47.5t-49 -40t-64 -20.5t-59.5 0t-34.5 23.5zM147 444q4 27 37 80.5t82 120t106.5 139t115 139t105.5 119t79 76.5q20 18 60 19.5t74 -8t47.5 -28t-17.5 -38.5q-10 -6 -56.5 -51 t-112 -110.5t-141 -143.5t-143.5 -150.5t-118 -133t-66 -89.5q-10 -18 -20.5 -18t-18.5 10t-12.5 29.5t-0.5 37.5z" />
<glyph unicode="&#x22;" horiz-adv-x="495" d="M213 777.5q-6 13.5 2 33.5q16 43 38.5 108.5t76.5 124.5q33 37 85 60.5t93 32t57.5 -5t-22.5 -50.5q-27 -25 -62 -64.5t-69.5 -79.5t-62 -76t-40.5 -50q-20 -27 -40.5 -38t-35 -10t-20.5 14.5zM422 789.5q-6 13.5 2 33.5q16 43 44 102.5t81 118.5q33 37 79 55.5 t81.5 18.5t46 -18.5t-28.5 -55.5q-27 -25 -58.5 -56.5t-61 -63t-54.5 -59t-37 -42.5q-20 -27 -39.5 -38t-34 -10t-20.5 14.5z" />
<glyph unicode="#" horiz-adv-x="980" d="M42 346.5q-3 18.5 7 30.5t29 6q14 -4 47 -6t80 -4q18 29 37.5 59.5t42.5 61.5q-4 0 -6.5 1t-4.5 1q-33 6 -48 24.5t-18 36.5t7 30.5t29 6.5q12 -4 39.5 -6t68.5 -4q45 59 86 104t76 66q20 12 52 8t58.5 -16.5t37 -29t-14.5 -28.5t-57.5 -39.5t-69.5 -64.5l139 6 q47 61 92.5 109.5t79.5 70.5q18 12 51 8t59 -15t37 -27.5t-13 -28.5q-27 -14 -60 -42t-71 -65q12 0 18 2q35 4 47 -9t4 -31.5t-37.5 -37t-79.5 -20.5l-45 -4q-25 -29 -50 -56.5t-48 -56.5q23 0 43 4q33 4 46 -9t4 -31.5t-37.5 -37t-77.5 -20.5q-12 -2 -25.5 -3t-30.5 -1 q-33 -43 -57.5 -77t-34.5 -54q-10 -18 -24.5 -20.5t-26.5 7t-16.5 27.5t8.5 41q4 10 14 28.5t25 43.5q-49 -2 -99.5 -3t-95.5 -1q-35 -47 -62.5 -84t-37.5 -58q-10 -18 -25.5 -19t-27 8t-15.5 27.5t8 41.5q6 12 18.5 33.5t28.5 50.5q-12 2 -22 2t-14 2q-33 6 -48.5 24.5 t-18.5 37zM332 373l180 6l78 115q-41 0 -81 -1t-77 -1q-51 -56 -100 -119z" />
<glyph unicode="$" horiz-adv-x="1867" d="M35 813q70 37 137.5 67.5t144.5 53.5q4 0 8.5 20.5t8.5 45t8 48t8 31.5q23 35 68 53.5t78 34.5q88 35 179 61.5t183 51.5q94 23 188.5 39t190.5 24q33 4 80 8.5t95 3.5t92 -12.5t71 -37.5q2 -4 -2 -29t-6 -33l-6 -98q0 -4 4 -4q78 -23 152.5 -58.5t123.5 -105.5 q-16 4 -36.5 -3t-41 -20.5t-38 -28t-27.5 -26.5q31 -16 50 -47t27.5 -66.5t6.5 -72.5t-13 -68q-16 43 -49.5 66.5t-74.5 35t-85 14.5t-83 5q-45 4 -94.5 2t-92.5 14q-16 6 -22 25.5t-7 43t2 46.5t5 37q-184 -14 -363.5 -56t-351.5 -102q-8 -2 -8 -6q2 -10 8 -33.5t10 -50.5 t6 -49.5t-6 -28.5q-23 -18 -58.5 -21t-64.5 -7q-39 -6 -78.5 -12.5t-78.5 -12.5q-35 -8 -67 -17.5t-62 -21.5q-14 -8 -28.5 -13t-29.5 -16q-8 -8 -18 -20t-17 -16q10 35 24.5 67.5t27.5 63.5q2 6 13 25.5t21.5 41t18.5 39t6 21.5q-25 35 -58.5 67.5t-78.5 36.5zM86 -133h47 q4 -41 7 -83t12 -83q4 41 10 83t14 83h37l25 -166q4 41 9 83t9 83h43l-43 -223h-43q-6 37 -11 73.5t-9 73.5q-4 -37 -11.5 -73.5t-13.5 -73.5h-43zM90 819q68 -37 109 -108q2 -2 -4.5 -15.5t-14.5 -29t-15 -28.5t-9 -20q-25 -45 -41 -94q51 27 104 39t108.5 20.5t110 15.5 t107.5 24q-18 18 -47 25t-62 8t-65.5 -2t-55.5 -5v131t4 131q-59 -16 -116.5 -39.5t-112.5 -52.5zM305 -133h45q4 -41 8 -83t11 -83q4 41 10 83t14 83h39l23 -166q4 41 9 83t9 83h43l-43 -223h-41q-8 37 -13 73.5t-9 73.5q-4 -37 -10.5 -73.5t-12.5 -73.5h-45zM342 709 q8 0 22.5 6t29 15t27.5 18.5t23 13.5q37 16 75 29.5t77 27.5q78 23 155.5 43.5t159.5 38.5q78 16 155 31.5t157 21.5q72 8 154.5 11.5t152.5 -29.5q6 55 6 112.5t4 110.5q0 29 2 57.5t6 57.5q2 14 -6 22.5t-20.5 13.5t-26.5 7t-27 4q-119 18 -245.5 1t-245.5 -42 q-129 -27 -255 -60.5t-249 -86.5q-23 -12 -46.5 -24.5t-43.5 -29.5q-20 -16 -24.5 -49t-8.5 -55q-8 -66 -8 -132.5v-133.5zM367 825q0 23 15 38.5t36 19.5q6 2 15 -2t5 -15q-12 -8 -22 -8q-12 -4 -16.5 -16.5t1.5 -22.5q4 -4 8.5 -5t8.5 -3q20 -2 33.5 11.5t22.5 34t13.5 41 t8.5 34.5q-27 -27 -62 -35q-27 -4 -43 12q-16 8 -16 37q0 27 12 51q27 61 86 99q12 6 25.5 12t27.5 10q10 4 21.5 12.5t21.5 10.5q12 -1 6 -13q12 0 21 -2q16 -2 27.5 -15t13.5 -32q6 -43 -23.5 -83t-66.5 -62q-18 -12 -27.5 -31.5t-18.5 -39t-20.5 -38t-34.5 -28.5 q-23 -16 -53 -11q-12 4 -20 14.5t-6 24.5zM405.5 937q2.5 -15 22.5 -15q31 0 49.5 19.5t30.5 47t18.5 58.5t10.5 51q-29 -6 -52.5 -23.5t-44.5 -38.5q-6 -6 -15 -25.5t-15.5 -39t-4 -34.5zM522 -133h45q4 -41 9.5 -83t9.5 -83q4 41 10 83t14 83h39l25 -166q2 41 7 83t11 83 h41l-41 -223h-43q-8 37 -12 73.5t-10 73.5q-4 -37 -10.5 -73.5t-12.5 -73.5h-43zM530 950q14 4 29.5 19.5t26 35t14.5 40t0 34.5q-6 23 -33 23q-14 -37 -20.5 -75t-16.5 -77zM582 138q2 34 2 61q0 20 -1 38.5t1 38.5q0 49 26.5 67.5t73.5 18.5q37 0 54.5 -20t23.5 -50 t4 -63.5t-2 -60.5v-80q0 -47 -26.5 -66.5t-71.5 -17.5q-39 0 -56.5 20.5t-23.5 50t-4 63.5zM628 952.5q-5 20.5 6 46t31.5 46t43.5 22.5q12 0 16 -10q8 -12 2 -29q-6 -23 -27.5 -40t-44.5 -21q2 -12 10.5 -13.5t17.5 3t17.5 10.5t12.5 10q25 20 36 46t21 52q2 2 -1 9.5 t-8 15.5t-8 17t-1 16q10 27 34 22q12 0 17 -12q4 -10 2 -22.5t-2 -24.5q20 2 28.5 -1t-4.5 -28q-8 -16 -17 -33.5t-11 -36.5q0 -10 6 -10q20 0 34.5 20.5t26 46t22.5 51t25 34.5q8 2 17 -2q2 -4 2 -13q-4 -12 -10.5 -21t-1.5 -24q6 -12 13 -25.5t5 -27.5h2q20 25 32.5 60.5 t45.5 52.5q37 14 49 -21q10 -14 6 -25.5t-2 -27.5q8 2 14 10q16 12 18.5 35t8.5 41q4 4 11 5t12 -1q10 -2 8 -12v-2q10 10 24 16q10 6 17.5 2t11.5 -14q4 -12 1 -22.5t-8 -21.5t-10 -22.5t-3 -23.5q14 12 24 26.5t18.5 29.5t17.5 28.5t26 23.5q20 10 51 0q4 6 17 8.5 t9 -14.5q-4 -18 -14 -38.5t-10 -41.5q0 -14 8 -2q20 20 30.5 48t19.5 55.5t23.5 53t43.5 42.5q14 8 24 -8q12 -23 4 -48.5t-24 -41.5q-14 -18 -43 -44t-25 -53q4 -16 23 -12q14 6 21 19.5t16 25.5q4 2 12 2t8 -10l-4 -12q-16 -39 -53 -54q-25 -14 -43 15q-4 4 -4 10 q-10 -8 -16.5 -15.5t-18.5 -11.5q-10 -4 -16.5 0t-12.5 8q-4 -4 -12 -8t-16 -6q-31 -6 -43 21v2q-8 -10 -17.5 -17.5t-23.5 -11.5q-14 -8 -25 12q-6 12 -3 23.5t8 22t9 21.5t2 23q-18 -8 -25 -19t-11.5 -25.5t-6.5 -29t-8 -28.5q-6 -16 -24 -8q-8 2 -9 10q0 4 1 9t1 7 q-14 -4 -19 -4t-15 -10t-24.5 -18.5t-31.5 -8.5q-10 2 -16 8.5t-10 14.5q-16 -16 -40 -32.5t-50 -12.5q-16 2 -25 18q-25 -29 -51 -36q-29 -12 -33 20q-4 27 8.5 44t22.5 38q2 4 -3 5t-7 -3q-8 -20 -18.5 -44t-26 -45.5t-36 -34.5t-46.5 -11q-31 2 -36 22.5zM638 163 q-1 -38 1 -75q0 -16 9 -26.5t21.5 -14.5t24 1t15.5 24q2 12 2 27.5v29.5v147q0 16 -10.5 27.5t-22.5 16t-23.5 -2t-15.5 -22.5q-2 -14 -1 -29.5t1 -27.5q0 -37 -1 -75zM653 416q12 14 15.5 36.5t2.5 48t-4 49t-3 42.5v125q0 16 1 30.5t-12 28.5h76q-14 -12 -12 -32.5 t2 -36.5v-142q0 -16 -2 -49t10 -47q14 -23 37.5 -8.5t28.5 33.5q8 27 2.5 54t-9.5 54q-4 14 -10 38t-8 48.5t2 46t21 33.5q10 10 31.5 10t29.5 -16q6 -16 -2 -21.5t-18.5 -4.5t-17.5 8.5t1 15.5q-16 -8 -17 -28.5t6 -44t17 -46.5t15 -35q12 -37 17 -87t-22 -85 q-10 -14 -33.5 -19t-50 -5t-53 3t-41.5 3zM655 987q12 -2 28.5 15.5t18.5 27.5q4 8 -2 12.5t-12 -2.5q-10 -10 -18.5 -24.5t-14.5 -28.5zM715 -328q0 14 9 22.5t21.5 8.5t21.5 -8t9 -23q0 -16 -9 -23t-21.5 -7t-21.5 7t-9 23zM776 1124q-2 -8 4 -20h4q0 8 1 13t-1 13 q-6 0 -8 -6zM780 4q10 14 13.5 34.5t2.5 44t-4.5 46.5t-3.5 39v172q0 10 -8 22h58q29 -12 51 -50t35 -66q0 25 2 59.5t-13 56.5h74q-12 -10 -11 -24t1 -29v-246q0 -14 -1 -31.5t11 -27.5h-207zM797 -356l59 223h64l59 -223h-51l-15 51h-53l-10 -51h-53zM844 47 q0 -14 11 -23.5t25.5 -11.5t28 3.5t15.5 19.5q-4 63 -21.5 127.5t-58.5 116.5v-232zM865 506.5q-3 19.5 7 32.5q10 12 33 13t27 -22q0 -10 -7 -15t-15.5 -5t-14.5 4t-6 14q-12 -4 -12 -14t7 -20.5t17 -19.5t17 -11q14 -4 34.5 -4t30.5 10q20 20 16 40.5t-19 38t-35.5 32 t-31.5 24.5q-18 16 -30.5 42t-12.5 52.5t13.5 48t44.5 27.5q27 6 54.5 4t51.5 -2l-6 -10q0 -14 7 -29.5t13.5 -31t5.5 -29.5t-16 -27q-14 -10 -33.5 -9t-21.5 22q0 12 7 17t15.5 5t14.5 -5t4 -13q14 2 14 12t-8 21.5t-18.5 20.5t-18.5 11q-14 4 -32.5 1t-24.5 -19 q-12 -25 -4 -43.5t24.5 -32.5t37 -27.5t32.5 -27.5q14 -20 22.5 -47t4.5 -52.5t-20.5 -44t-47.5 -22.5q-27 -2 -53.5 -1t-54.5 1q8 4 5 19.5t-8.5 33.5t-8.5 37.5zM866 -266h41q-4 23 -9 46t-11 46zM874 1014q4 -12 16.5 -10t14.5 14q2 18 -10 43q-6 -8 -14.5 -22.5 t-6.5 -24.5zM991 1059l4 -15q10 -14 25 -6q16 4 23.5 21.5t3.5 34.5q-2 10 -9.5 16t-21.5 -4q-20 -14 -25 -47zM997 4q12 14 15.5 36.5t2.5 47.5t-4 48.5t-3 39.5v127q0 16 1 29.5t-12 29.5h76q-10 -10 -13 -30.5t-2 -42t3 -43t2 -35.5v-166h104q23 0 55.5 -3t55.5 13 q-4 -8 -7 -29.5t-14 -21.5h-260zM1006 -135q29 4 64.5 6t62.5 -14q31 -23 22.5 -58t-37.5 -49q14 -6 21.5 -19.5t10.5 -28.5t5 -30.5t8 -27.5h-51q-6 12 -8 27.5t-6 28.5t-12.5 22.5t-26.5 7.5v-86h-53v221zM1057 -196.5q2 -24.5 2 -34.5h12q18 0 26.5 10t6.5 22.5 t-11.5 21.5t-27.5 7q-10 -2 -8 -26.5zM1065 416q10 12 11 25.5t1 27.5v248q0 14 -1 30.5t-11 28.5h127q25 -25 25.5 -59.5t-9.5 -67.5q-4 -8 -15 -29.5t-20.5 -45t-11.5 -45t10 -27.5q-6 12 4.5 13t21.5 -4t14 -14.5t-17 -17.5q-25 -10 -35 9.5t-8 35.5q0 16 6 32.5t8 31 t-4 22.5t-28 6v-155q16 0 41.5 -3t44.5 11q-6 -14 -8.5 -26.5t-6.5 -26.5h-139zM1098 362h78q-12 -29 2 -65.5t26 -60.5q12 29 22.5 62.5t0.5 63.5h80q-23 -12 -27 -38.5t-10 -47.5q-6 -20 -23.5 -47.5t-17.5 -48.5q0 -23 -3 -56.5t13 -51.5h-76q18 18 14.5 53.5t-3.5 58.5 q-12 23 -21.5 46.5t-17.5 45.5q-10 23 -14.5 46.5t-22.5 39.5zM1133 662q20 0 45.5 2t27.5 32q0 16 -7 23.5t-18.5 10.5t-24.5 3h-23v-71zM1192 -133h53v-223h-53v223zM1245 1092q-4 -10 1 -27.5t22 -3.5q12 12 21 33t11 39q-2 8 -4 13t-12 1q-16 -8 -25.5 -23.5 t-13.5 -31.5zM1274 -328q0 14 9 22.5t21.5 8.5t21.5 -8t9 -23q0 -16 -9 -23t-21.5 -7t-21.5 7t-9 23zM1294 813q-8 -6 4 -8q27 -10 57.5 -13.5t62.5 -3.5h62.5t59.5 -2t57.5 -5t57.5 -13q29 -8 51.5 -23.5t48.5 -27.5q0 61 -21.5 106t-80.5 68q35 31 69.5 58.5t75.5 43.5 q-49 47 -110.5 77t-126.5 46q-2 -57 -3.5 -112.5t-5.5 -112.5l-2 2v-6q-27 -2 -64.5 -4t-74.5 -9.5t-68.5 -21.5t-48.5 -39zM1364 -133h57l68 -152q-4 39 -4 77v75h47v-223h-51q-20 39 -37 78.5t-35 76.5q2 -39 2 -77.5v-77.5h-47v223zM1393 1157q16 20 31.5 40t19.5 46h-2 q-37 -37 -49 -86zM1562.5 -268q-8.5 37 14.5 80q12 29 40 43t62 14h10.5t17.5 -2t16.5 -4t7.5 -4l-9 -41q-27 12 -48 8t-36.5 -18.5t-20.5 -37t3 -46.5q16 -47 61 -41q10 2 8.5 21.5t-1.5 27.5h-27v41h76v-121q-41 -16 -79 -9t-62.5 29.5t-33 59.5z" />
<glyph unicode="%" horiz-adv-x="1067" d="M-139.5 -106.5q-10.5 12.5 8.5 34.5q41 51 96 119t122 141.5t139.5 151.5t148.5 154q-35 -4 -64.5 5t-52.5 33q-41 43 -48 90.5t8 93.5t49 88t74 73.5t82 52t75 22.5q41 4 60.5 -8t23.5 -29q18 2 36 -6q41 -25 54.5 -58.5t9.5 -72.5q112 94 192 129q55 25 112.5 28 t93.5 -6t40 -27.5t-43 -39.5q-84 -37 -189.5 -109.5t-217 -165.5t-222 -196.5t-204.5 -199t-167 -172t-106 -119.5q-12 -14 -35.5 -19.5t-44 -2.5t-31 15.5zM299.5 639q-15.5 -39 7.5 -66q12 -16 43 -13t67 21.5t69.5 48t54 64.5t19.5 75t-34 77q-45 -18 -93 -53t-83 -75 t-50.5 -79zM330.5 27q-13.5 49 0 100t47.5 102.5t76 96.5t81.5 81.5t66.5 59.5q16 16 36.5 5t31.5 -34q18 8 35.5 11t33.5 -3q72 -29 90.5 -88t-1 -128.5t-67.5 -139.5t-110.5 -117t-129 -61t-120.5 25q-57 41 -70.5 90zM429 63.5q-11 -42.5 20 -67.5q18 -16 52 -6 t70.5 37.5t70.5 67.5t50.5 85t8 90t-51.5 82q-43 -43 -91 -95t-83 -101.5t-46 -92z" />
<glyph unicode="&#x26;" horiz-adv-x="1150" d="M-17.5 155.5q-9.5 61.5 15.5 116.5q10 25 40 52.5t73 58.5t95 64.5t111 68.5q-8 41 -9 79t9 71q14 49 70.5 117.5t131.5 129t155 101.5t141 37q41 -2 64.5 -30t31 -71t-3 -95t-35.5 -101q-16 -33 -58 -70t-99.5 -77t-125 -82t-136.5 -85q51 -123 104 -198 q49 33 102.5 70.5t110.5 82.5q-59 -6 -92 0q-29 6 -42 34t-14 55.5t10 45t34 7.5q41 -18 97 -23.5t110.5 -1.5t98.5 11t62 14q37 10 51.5 -1.5t-18.5 -41.5q-23 -20 -70 -39t-100 -33q-10 -33 -26.5 -64.5t-34.5 -50.5q-16 -16 -71.5 -56t-131.5 -89q66 -45 145 -29 q39 8 35 -18.5t-33.5 -61.5t-73.5 -63.5t-85 -24.5q-18 2 -49 34t-66 83q-51 -31 -102.5 -59.5t-95.5 -50t-78.5 -36t-53.5 -14.5q-41 -2 -83 33t-71.5 87t-39 113.5zM94 127q29 -53 119 -43t236 92q-27 47 -51 99.5t-44 105.5q-61 -39 -113.5 -75t-89 -68.5t-53 -61.5 t-4.5 -49zM420 575q82 49 162 98.5t140 94.5t94 86t26 76q-6 23 -37 19.5t-76 -26t-95 -60.5t-95 -85t-78 -99t-41 -104z" />
<glyph unicode="'" horiz-adv-x="317" d="M239.5 789.5q-6.5 13.5 2.5 33.5q16 43 43.5 102.5t81.5 118.5q33 37 79 55.5t81.5 18.5t46 -18.5t-28.5 -55.5q-27 -25 -58.5 -56.5t-61.5 -63t-54.5 -59t-36.5 -42.5q-20 -27 -40 -38t-34 -10t-20.5 14.5z" />
<glyph unicode="(" horiz-adv-x="704" d="M141.5 19.5q-2.5 76.5 10 177t40 212t70.5 216.5q27 66 83 136t120.5 135t130.5 117t111 79q18 10 65 15t87 2t57.5 -14t-21.5 -34q-51 -29 -125 -81t-151.5 -123t-149.5 -157t-119 -184q-41 -84 -65.5 -185.5t-35.5 -193.5t-10 -162.5t11 -97.5q8 -27 1 -38t-22.5 -7 t-36 22.5t-34.5 53.5t-16.5 111.5z" />
<glyph unicode=")" horiz-adv-x="704" d="M-183.5 -112q-17.5 11 21.5 34q51 29 125 81t152 123t149.5 157t118.5 184q41 84 65.5 184.5t36 192.5t10.5 163.5t-12 98.5q-10 27 -2 38t23.5 7t35 -23.5t35.5 -52.5q14 -35 16.5 -111.5t-10 -177t-40 -212t-70.5 -216.5q-27 -66 -83 -136t-120.5 -134.5t-130 -117 t-110.5 -79.5q-18 -10 -65.5 -15t-87.5 -2t-57.5 14z" />
<glyph unicode="*" horiz-adv-x="563" d="M144.5 732.5q5.5 15.5 19.5 35.5t35 39q8 8 33.5 24.5t62.5 38.5q-35 23 -61.5 42.5t-43.5 29.5q-18 12 -13 37t21.5 44t40 29.5t40.5 -3.5l81 -80q16 59 33 106t31 60q16 14 49 15t60.5 -6t43 -21.5t-3.5 -28.5q-12 -10 -30.5 -37t-40.5 -62q59 33 107 55.5t65 22.5 q23 0 45 -17.5t34.5 -37t12.5 -34.5t-25 -13q-12 0 -39.5 -7.5t-65.5 -21.5t-83 -33.5t-92 -42.5l42 -42t29 -27q20 -18 29.5 -36t7.5 -30t-14 -14t-33 10l-116 72q-31 -70 -48 -135q-6 -20 -17 -26.5t-21.5 -2.5t-17.5 17.5t-5 29.5q0 12 5 43t15 72q-41 -23 -77.5 -42.5 t-65.5 -35.5q-20 -12 -27.5 -7t-2 20.5z" />
<glyph unicode="+" horiz-adv-x="966" d="M64 350q-5 10 2.5 28.5t26 39t42.5 33.5q16 10 75.5 21t133.5 24q35 61 64.5 111t50.5 73q33 37 79 55.5t81.5 18.5t46 -18.5t-28.5 -55.5q-18 -16 -52 -59t-75 -99q72 10 125 16.5t67 4.5q39 -4 49.5 -30t4.5 -54.5t-25.5 -49t-38.5 -14.5q-33 10 -107.5 11.5 t-160.5 -5.5l-166 -231q-14 -18 -30.5 -27.5t-30 -9.5t-19.5 10.5t0 28.5q8 18 37 79.5t68 135.5q-66 -10 -117 -18.5t-74 -18.5t-28 0z" />
<glyph unicode="," horiz-adv-x="468" d="M-172 -127q-14 6 9.5 44t58 90t67.5 110.5t39 105.5q6 43 27.5 44t43 -22.5t35 -64.5t1.5 -80q-12 -43 -53.5 -86t-87.5 -76.5t-86 -52t-54 -12.5z" />
<glyph unicode="-" horiz-adv-x="806" d="M146 353.5q-5 13.5 2.5 34t26.5 44t44 35.5q23 12 69 25.5t96 25.5t93 19.5t62 5.5q18 -2 38.5 -29t30.5 -56.5t4 -51t-43 -11.5q-37 8 -92 7t-112.5 -8t-109.5 -19.5t-81 -24.5q-23 -10 -28 3.5z" />
<glyph unicode="." horiz-adv-x="471" d="M-55 47q-10 20 0 49t31.5 55.5t49 45t56.5 18.5q23 0 43 -12.5t32.5 -30.5t12.5 -40.5t-18 -47.5t-49 -40t-64 -20.5t-59.5 0t-34.5 23.5z" />
<glyph unicode="/" horiz-adv-x="698" d="M-286 -108.5q1 20.5 22 47.5q41 55 106.5 131.5t146.5 167t172 187.5t184 192.5t182 183.5t167 158.5t137.5 118t92.5 61.5q47 20 103 20t99 -10t58.5 -28.5t-21.5 -35.5q-74 -33 -167 -94t-194.5 -141t-209 -173t-210.5 -189.5t-199.5 -190.5t-176.5 -176t-138 -147.5 t-89 -104.5q-12 -16 -28.5 -18.5t-27 9t-9.5 32z" />
<glyph unicode="0" d="M35 813q70 37 137.5 67.5t144.5 53.5q4 0 8.5 20.5t8.5 45t8 48t8 31.5q23 35 68 53.5t78 34.5q88 35 179 61.5t183 51.5q94 23 188.5 39t190.5 24q33 4 80 8.5t95 3.5t92 -12.5t71 -37.5q2 -4 -2 -29t-6 -33l-6 -98q0 -4 4 -4q78 -23 152.5 -58.5t123.5 -105.5 q-16 4 -36.5 -3t-41 -20.5t-38 -28t-27.5 -26.5q31 -16 50 -47t27.5 -66.5t6.5 -72.5t-13 -68q-16 43 -49.5 66.5t-74.5 35t-85 14.5t-83 5q-45 4 -94.5 2t-92.5 14q-16 6 -22 25.5t-7 43t2 46.5t5 37q-184 -14 -363.5 -56t-351.5 -102q-8 -2 -8 -6q2 -10 8 -33.5t10 -50.5 t6 -49.5t-6 -28.5q-23 -18 -58.5 -21t-64.5 -7q-39 -6 -78.5 -12.5t-78.5 -12.5q-35 -8 -67 -17.5t-62 -21.5q-14 -8 -28.5 -13t-29.5 -16q-8 -8 -18 -20t-17 -16q10 35 24.5 67.5t27.5 63.5q2 6 13 25.5t21.5 41t18.5 39t6 21.5q-25 35 -58.5 67.5t-78.5 36.5zM86 -133h47 q4 -41 7 -83t12 -83q4 41 10 83t14 83h37l25 -166q4 41 9 83t9 83h43l-43 -223h-43q-6 37 -11 73.5t-9 73.5q-4 -37 -11.5 -73.5t-13.5 -73.5h-43zM90 819q68 -37 109 -108q2 -2 -4.5 -15.5t-14.5 -29t-15 -28.5t-9 -20q-25 -45 -41 -94q51 27 104 39t108.5 20.5t110 15.5 t107.5 24q-18 18 -47 25t-62 8t-65.5 -2t-55.5 -5v131t4 131q-59 -16 -116.5 -39.5t-112.5 -52.5zM305 -133h45q4 -41 8 -83t11 -83q4 41 10 83t14 83h39l23 -166q4 41 9 83t9 83h43l-43 -223h-41q-8 37 -13 73.5t-9 73.5q-4 -37 -10.5 -73.5t-12.5 -73.5h-45zM342 709 q8 0 22.5 6t29 15t27.5 18.5t23 13.5q37 16 75 29.5t77 27.5q78 23 155.5 43.5t159.5 38.5q78 16 155 31.5t157 21.5q72 8 154.5 11.5t152.5 -29.5q6 55 6 112.5t4 110.5q0 29 2 57.5t6 57.5q2 14 -6 22.5t-20.5 13.5t-26.5 7t-27 4q-119 18 -245.5 1t-245.5 -42 q-129 -27 -255 -60.5t-249 -86.5q-23 -12 -46.5 -24.5t-43.5 -29.5q-20 -16 -24.5 -49t-8.5 -55q-8 -66 -8 -132.5v-133.5zM367 825q0 23 15 38.5t36 19.5q6 2 15 -2t5 -15q-12 -8 -22 -8q-12 -4 -16.5 -16.5t1.5 -22.5q4 -4 8.5 -5t8.5 -3q20 -2 33.5 11.5t22.5 34t13.5 41 t8.5 34.5q-27 -27 -62 -35q-27 -4 -43 12q-16 8 -16 37q0 27 12 51q27 61 86 99q12 6 25.5 12t27.5 10q10 4 21.5 12.5t21.5 10.5q12 -1 6 -13q12 0 21 -2q16 -2 27.5 -15t13.5 -32q6 -43 -23.5 -83t-66.5 -62q-18 -12 -27.5 -31.5t-18.5 -39t-20.5 -38t-34.5 -28.5 q-23 -16 -53 -11q-12 4 -20 14.5t-6 24.5zM405.5 937q2.5 -15 22.5 -15q31 0 49.5 19.5t30.5 47t18.5 58.5t10.5 51q-29 -6 -52.5 -23.5t-44.5 -38.5q-6 -6 -15 -25.5t-15.5 -39t-4 -34.5zM522 -133h45q4 -41 9.5 -83t9.5 -83q4 41 10 83t14 83h39l25 -166q2 41 7 83t11 83 h41l-41 -223h-43q-8 37 -12 73.5t-10 73.5q-4 -37 -10.5 -73.5t-12.5 -73.5h-43zM530 950q14 4 29.5 19.5t26 35t14.5 40t0 34.5q-6 23 -33 23q-14 -37 -20.5 -75t-16.5 -77zM582 138q2 34 2 61q0 20 -1 38.5t1 38.5q0 49 26.5 67.5t73.5 18.5q37 0 54.5 -20t23.5 -50 t4 -63.5t-2 -60.5v-80q0 -47 -26.5 -66.5t-71.5 -17.5q-39 0 -56.5 20.5t-23.5 50t-4 63.5zM628 952.5q-5 20.5 6 46t31.5 46t43.5 22.5q12 0 16 -10q8 -12 2 -29q-6 -23 -27.5 -40t-44.5 -21q2 -12 10.5 -13.5t17.5 3t17.5 10.5t12.5 10q25 20 36 46t21 52q2 2 -1 9.5 t-8 15.5t-8 17t-1 16q10 27 34 22q12 0 17 -12q4 -10 2 -22.5t-2 -24.5q20 2 28.5 -1t-4.5 -28q-8 -16 -17 -33.5t-11 -36.5q0 -10 6 -10q20 0 34.5 20.5t26 46t22.5 51t25 34.5q8 2 17 -2q2 -4 2 -13q-4 -12 -10.5 -21t-1.5 -24q6 -12 13 -25.5t5 -27.5h2q20 25 32.5 60.5 t45.5 52.5q37 14 49 -21q10 -14 6 -25.5t-2 -27.5q8 2 14 10q16 12 18.5 35t8.5 41q4 4 11 5t12 -1q10 -2 8 -12v-2q10 10 24 16q10 6 17.5 2t11.5 -14q4 -12 1 -22.5t-8 -21.5t-10 -22.5t-3 -23.5q14 12 24 26.5t18.5 29.5t17.5 28.5t26 23.5q20 10 51 0q4 6 17 8.5 t9 -14.5q-4 -18 -14 -38.5t-10 -41.5q0 -14 8 -2q20 20 30.5 48t19.5 55.5t23.5 53t43.5 42.5q14 8 24 -8q12 -23 4 -48.5t-24 -41.5q-14 -18 -43 -44t-25 -53q4 -16 23 -12q14 6 21 19.5t16 25.5q4 2 12 2t8 -10l-4 -12q-16 -39 -53 -54q-25 -14 -43 15q-4 4 -4 10 q-10 -8 -16.5 -15.5t-18.5 -11.5q-10 -4 -16.5 0t-12.5 8q-4 -4 -12 -8t-16 -6q-31 -6 -43 21v2q-8 -10 -17.5 -17.5t-23.5 -11.5q-14 -8 -25 12q-6 12 -3 23.5t8 22t9 21.5t2 23q-18 -8 -25 -19t-11.5 -25.5t-6.5 -29t-8 -28.5q-6 -16 -24 -8q-8 2 -9 10q0 4 1 9t1 7 q-14 -4 -19 -4t-15 -10t-24.5 -18.5t-31.5 -8.5q-10 2 -16 8.5t-10 14.5q-16 -16 -40 -32.5t-50 -12.5q-16 2 -25 18q-25 -29 -51 -36q-29 -12 -33 20q-4 27 8.5 44t22.5 38q2 4 -3 5t-7 -3q-8 -20 -18.5 -44t-26 -45.5t-36 -34.5t-46.5 -11q-31 2 -36 22.5zM638 163 q-1 -38 1 -75q0 -16 9 -26.5t21.5 -14.5t24 1t15.5 24q2 12 2 27.5v29.5v147q0 16 -10.5 27.5t-22.5 16t-23.5 -2t-15.5 -22.5q-2 -14 -1 -29.5t1 -27.5q0 -37 -1 -75zM653 416q12 14 15.5 36.5t2.5 48t-4 49t-3 42.5v125q0 16 1 30.5t-12 28.5h76q-14 -12 -12 -32.5 t2 -36.5v-142q0 -16 -2 -49t10 -47q14 -23 37.5 -8.5t28.5 33.5q8 27 2.5 54t-9.5 54q-4 14 -10 38t-8 48.5t2 46t21 33.5q10 10 31.5 10t29.5 -16q6 -16 -2 -21.5t-18.5 -4.5t-17.5 8.5t1 15.5q-16 -8 -17 -28.5t6 -44t17 -46.5t15 -35q12 -37 17 -87t-22 -85 q-10 -14 -33.5 -19t-50 -5t-53 3t-41.5 3zM655 987q12 -2 28.5 15.5t18.5 27.5q4 8 -2 12.5t-12 -2.5q-10 -10 -18.5 -24.5t-14.5 -28.5zM715 -328q0 14 9 22.5t21.5 8.5t21.5 -8t9 -23q0 -16 -9 -23t-21.5 -7t-21.5 7t-9 23zM776 1124q-2 -8 4 -20h4q0 8 1 13t-1 13 q-6 0 -8 -6zM780 4q10 14 13.5 34.5t2.5 44t-4.5 46.5t-3.5 39v172q0 10 -8 22h58q29 -12 51 -50t35 -66q0 25 2 59.5t-13 56.5h74q-12 -10 -11 -24t1 -29v-246q0 -14 -1 -31.5t11 -27.5h-207zM797 -356l59 223h64l59 -223h-51l-15 51h-53l-10 -51h-53zM844 47 q0 -14 11 -23.5t25.5 -11.5t28 3.5t15.5 19.5q-4 63 -21.5 127.5t-58.5 116.5v-232zM865 506.5q-3 19.5 7 32.5q10 12 33 13t27 -22q0 -10 -7 -15t-15.5 -5t-14.5 4t-6 14q-12 -4 -12 -14t7 -20.5t17 -19.5t17 -11q14 -4 34.5 -4t30.5 10q20 20 16 40.5t-19 38t-35.5 32 t-31.5 24.5q-18 16 -30.5 42t-12.5 52.5t13.5 48t44.5 27.5q27 6 54.5 4t51.5 -2l-6 -10q0 -14 7 -29.5t13.5 -31t5.5 -29.5t-16 -27q-14 -10 -33.5 -9t-21.5 22q0 12 7 17t15.5 5t14.5 -5t4 -13q14 2 14 12t-8 21.5t-18.5 20.5t-18.5 11q-14 4 -32.5 1t-24.5 -19 q-12 -25 -4 -43.5t24.5 -32.5t37 -27.5t32.5 -27.5q14 -20 22.5 -47t4.5 -52.5t-20.5 -44t-47.5 -22.5q-27 -2 -53.5 -1t-54.5 1q8 4 5 19.5t-8.5 33.5t-8.5 37.5zM866 -266h41q-4 23 -9 46t-11 46zM874 1014q4 -12 16.5 -10t14.5 14q2 18 -10 43q-6 -8 -14.5 -22.5 t-6.5 -24.5zM991 1059l4 -15q10 -14 25 -6q16 4 23.5 21.5t3.5 34.5q-2 10 -9.5 16t-21.5 -4q-20 -14 -25 -47zM997 4q12 14 15.5 36.5t2.5 47.5t-4 48.5t-3 39.5v127q0 16 1 29.5t-12 29.5h76q-10 -10 -13 -30.5t-2 -42t3 -43t2 -35.5v-166h104q23 0 55.5 -3t55.5 13 q-4 -8 -7 -29.5t-14 -21.5h-260zM1006 -135q29 4 64.5 6t62.5 -14q31 -23 22.5 -58t-37.5 -49q14 -6 21.5 -19.5t10.5 -28.5t5 -30.5t8 -27.5h-51q-6 12 -8 27.5t-6 28.5t-12.5 22.5t-26.5 7.5v-86h-53v221zM1057 -196.5q2 -24.5 2 -34.5h12q18 0 26.5 10t6.5 22.5 t-11.5 21.5t-27.5 7q-10 -2 -8 -26.5zM1065 416q10 12 11 25.5t1 27.5v248q0 14 -1 30.5t-11 28.5h127q25 -25 25.5 -59.5t-9.5 -67.5q-4 -8 -15 -29.5t-20.5 -45t-11.5 -45t10 -27.5q-6 12 4.5 13t21.5 -4t14 -14.5t-17 -17.5q-25 -10 -35 9.5t-8 35.5q0 16 6 32.5t8 31 t-4 22.5t-28 6v-155q16 0 41.5 -3t44.5 11q-6 -14 -8.5 -26.5t-6.5 -26.5h-139zM1098 362h78q-12 -29 2 -65.5t26 -60.5q12 29 22.5 62.5t0.5 63.5h80q-23 -12 -27 -38.5t-10 -47.5q-6 -20 -23.5 -47.5t-17.5 -48.5q0 -23 -3 -56.5t13 -51.5h-76q18 18 14.5 53.5t-3.5 58.5 q-12 23 -21.5 46.5t-17.5 45.5q-10 23 -14.5 46.5t-22.5 39.5zM1133 662q20 0 45.5 2t27.5 32q0 16 -7 23.5t-18.5 10.5t-24.5 3h-23v-71zM1192 -133h53v-223h-53v223zM1245 1092q-4 -10 1 -27.5t22 -3.5q12 12 21 33t11 39q-2 8 -4 13t-12 1q-16 -8 -25.5 -23.5 t-13.5 -31.5zM1274 -328q0 14 9 22.5t21.5 8.5t21.5 -8t9 -23q0 -16 -9 -23t-21.5 -7t-21.5 7t-9 23zM1294 813q-8 -6 4 -8q27 -10 57.5 -13.5t62.5 -3.5h62.5t59.5 -2t57.5 -5t57.5 -13q29 -8 51.5 -23.5t48.5 -27.5q0 61 -21.5 106t-80.5 68q35 31 69.5 58.5t75.5 43.5 q-49 47 -110.5 77t-126.5 46q-2 -57 -3.5 -112.5t-5.5 -112.5l-2 2v-6q-27 -2 -64.5 -4t-74.5 -9.5t-68.5 -21.5t-48.5 -39zM1364 -133h57l68 -152q-4 39 -4 77v75h47v-223h-51q-20 39 -37 78.5t-35 76.5q2 -39 2 -77.5v-77.5h-47v223zM1393 1157q16 20 31.5 40t19.5 46h-2 q-37 -37 -49 -86zM1562.5 -268q-8.5 37 14.5 80q12 29 40 43t62 14h10.5t17.5 -2t16.5 -4t7.5 -4l-9 -41q-27 12 -48 8t-36.5 -18.5t-20.5 -37t3 -46.5q16 -47 61 -41q10 2 8.5 21.5t-1.5 27.5h-27v41h76v-121q-41 -16 -79 -9t-62.5 29.5t-33 59.5z" />
<glyph unicode="1" d="M35 813q70 37 137.5 67.5t144.5 53.5q4 0 8.5 20.5t8.5 45t8 48t8 31.5q23 35 68 53.5t78 34.5q88 35 179 61.5t183 51.5q94 23 188.5 39t190.5 24q33 4 80 8.5t95 3.5t92 -12.5t71 -37.5q2 -4 -2 -29t-6 -33l-6 -98q0 -4 4 -4q78 -23 152.5 -58.5t123.5 -105.5 q-16 4 -36.5 -3t-41 -20.5t-38 -28t-27.5 -26.5q31 -16 50 -47t27.5 -66.5t6.5 -72.5t-13 -68q-16 43 -49.5 66.5t-74.5 35t-85 14.5t-83 5q-45 4 -94.5 2t-92.5 14q-16 6 -22 25.5t-7 43t2 46.5t5 37q-184 -14 -363.5 -56t-351.5 -102q-8 -2 -8 -6q2 -10 8 -33.5t10 -50.5 t6 -49.5t-6 -28.5q-23 -18 -58.5 -21t-64.5 -7q-39 -6 -78.5 -12.5t-78.5 -12.5q-35 -8 -67 -17.5t-62 -21.5q-14 -8 -28.5 -13t-29.5 -16q-8 -8 -18 -20t-17 -16q10 35 24.5 67.5t27.5 63.5q2 6 13 25.5t21.5 41t18.5 39t6 21.5q-25 35 -58.5 67.5t-78.5 36.5zM86 -133h47 q4 -41 7 -83t12 -83q4 41 10 83t14 83h37l25 -166q4 41 9 83t9 83h43l-43 -223h-43q-6 37 -11 73.5t-9 73.5q-4 -37 -11.5 -73.5t-13.5 -73.5h-43zM90 819q68 -37 109 -108q2 -2 -4.5 -15.5t-14.5 -29t-15 -28.5t-9 -20q-25 -45 -41 -94q51 27 104 39t108.5 20.5t110 15.5 t107.5 24q-18 18 -47 25t-62 8t-65.5 -2t-55.5 -5v131t4 131q-59 -16 -116.5 -39.5t-112.5 -52.5zM305 -133h45q4 -41 8 -83t11 -83q4 41 10 83t14 83h39l23 -166q4 41 9 83t9 83h43l-43 -223h-41q-8 37 -13 73.5t-9 73.5q-4 -37 -10.5 -73.5t-12.5 -73.5h-45zM342 709 q8 0 22.5 6t29 15t27.5 18.5t23 13.5q37 16 75 29.5t77 27.5q78 23 155.5 43.5t159.5 38.5q78 16 155 31.5t157 21.5q72 8 154.5 11.5t152.5 -29.5q6 55 6 112.5t4 110.5q0 29 2 57.5t6 57.5q2 14 -6 22.5t-20.5 13.5t-26.5 7t-27 4q-119 18 -245.5 1t-245.5 -42 q-129 -27 -255 -60.5t-249 -86.5q-23 -12 -46.5 -24.5t-43.5 -29.5q-20 -16 -24.5 -49t-8.5 -55q-8 -66 -8 -132.5v-133.5zM367 825q0 23 15 38.5t36 19.5q6 2 15 -2t5 -15q-12 -8 -22 -8q-12 -4 -16.5 -16.5t1.5 -22.5q4 -4 8.5 -5t8.5 -3q20 -2 33.5 11.5t22.5 34t13.5 41 t8.5 34.5q-27 -27 -62 -35q-27 -4 -43 12q-16 8 -16 37q0 27 12 51q27 61 86 99q12 6 25.5 12t27.5 10q10 4 21.5 12.5t21.5 10.5q12 -1 6 -13q12 0 21 -2q16 -2 27.5 -15t13.5 -32q6 -43 -23.5 -83t-66.5 -62q-18 -12 -27.5 -31.5t-18.5 -39t-20.5 -38t-34.5 -28.5 q-23 -16 -53 -11q-12 4 -20 14.5t-6 24.5zM405.5 937q2.5 -15 22.5 -15q31 0 49.5 19.5t30.5 47t18.5 58.5t10.5 51q-29 -6 -52.5 -23.5t-44.5 -38.5q-6 -6 -15 -25.5t-15.5 -39t-4 -34.5zM522 -133h45q4 -41 9.5 -83t9.5 -83q4 41 10 83t14 83h39l25 -166q2 41 7 83t11 83 h41l-41 -223h-43q-8 37 -12 73.5t-10 73.5q-4 -37 -10.5 -73.5t-12.5 -73.5h-43zM530 950q14 4 29.5 19.5t26 35t14.5 40t0 34.5q-6 23 -33 23q-14 -37 -20.5 -75t-16.5 -77zM582 138q2 34 2 61q0 20 -1 38.5t1 38.5q0 49 26.5 67.5t73.5 18.5q37 0 54.5 -20t23.5 -50 t4 -63.5t-2 -60.5v-80q0 -47 -26.5 -66.5t-71.5 -17.5q-39 0 -56.5 20.5t-23.5 50t-4 63.5zM628 952.5q-5 20.5 6 46t31.5 46t43.5 22.5q12 0 16 -10q8 -12 2 -29q-6 -23 -27.5 -40t-44.5 -21q2 -12 10.5 -13.5t17.5 3t17.5 10.5t12.5 10q25 20 36 46t21 52q2 2 -1 9.5 t-8 15.5t-8 17t-1 16q10 27 34 22q12 0 17 -12q4 -10 2 -22.5t-2 -24.5q20 2 28.5 -1t-4.5 -28q-8 -16 -17 -33.5t-11 -36.5q0 -10 6 -10q20 0 34.5 20.5t26 46t22.5 51t25 34.5q8 2 17 -2q2 -4 2 -13q-4 -12 -10.5 -21t-1.5 -24q6 -12 13 -25.5t5 -27.5h2q20 25 32.5 60.5 t45.5 52.5q37 14 49 -21q10 -14 6 -25.5t-2 -27.5q8 2 14 10q16 12 18.5 35t8.5 41q4 4 11 5t12 -1q10 -2 8 -12v-2q10 10 24 16q10 6 17.5 2t11.5 -14q4 -12 1 -22.5t-8 -21.5t-10 -22.5t-3 -23.5q14 12 24 26.5t18.5 29.5t17.5 28.5t26 23.5q20 10 51 0q4 6 17 8.5 t9 -14.5q-4 -18 -14 -38.5t-10 -41.5q0 -14 8 -2q20 20 30.5 48t19.5 55.5t23.5 53t43.5 42.5q14 8 24 -8q12 -23 4 -48.5t-24 -41.5q-14 -18 -43 -44t-25 -53q4 -16 23 -12q14 6 21 19.5t16 25.5q4 2 12 2t8 -10l-4 -12q-16 -39 -53 -54q-25 -14 -43 15q-4 4 -4 10 q-10 -8 -16.5 -15.5t-18.5 -11.5q-10 -4 -16.5 0t-12.5 8q-4 -4 -12 -8t-16 -6q-31 -6 -43 21v2q-8 -10 -17.5 -17.5t-23.5 -11.5q-14 -8 -25 12q-6 12 -3 23.5t8 22t9 21.5t2 23q-18 -8 -25 -19t-11.5 -25.5t-6.5 -29t-8 -28.5q-6 -16 -24 -8q-8 2 -9 10q0 4 1 9t1 7 q-14 -4 -19 -4t-15 -10t-24.5 -18.5t-31.5 -8.5q-10 2 -16 8.5t-10 14.5q-16 -16 -40 -32.5t-50 -12.5q-16 2 -25 18q-25 -29 -51 -36q-29 -12 -33 20q-4 27 8.5 44t22.5 38q2 4 -3 5t-7 -3q-8 -20 -18.5 -44t-26 -45.5t-36 -34.5t-46.5 -11q-31 2 -36 22.5zM638 163 q-1 -38 1 -75q0 -16 9 -26.5t21.5 -14.5t24 1t15.5 24q2 12 2 27.5v29.5v147q0 16 -10.5 27.5t-22.5 16t-23.5 -2t-15.5 -22.5q-2 -14 -1 -29.5t1 -27.5q0 -37 -1 -75zM653 416q12 14 15.5 36.5t2.5 48t-4 49t-3 42.5v125q0 16 1 30.5t-12 28.5h76q-14 -12 -12 -32.5 t2 -36.5v-142q0 -16 -2 -49t10 -47q14 -23 37.5 -8.5t28.5 33.5q8 27 2.5 54t-9.5 54q-4 14 -10 38t-8 48.5t2 46t21 33.5q10 10 31.5 10t29.5 -16q6 -16 -2 -21.5t-18.5 -4.5t-17.5 8.5t1 15.5q-16 -8 -17 -28.5t6 -44t17 -46.5t15 -35q12 -37 17 -87t-22 -85 q-10 -14 -33.5 -19t-50 -5t-53 3t-41.5 3zM655 987q12 -2 28.5 15.5t18.5 27.5q4 8 -2 12.5t-12 -2.5q-10 -10 -18.5 -24.5t-14.5 -28.5zM715 -328q0 14 9 22.5t21.5 8.5t21.5 -8t9 -23q0 -16 -9 -23t-21.5 -7t-21.5 7t-9 23zM776 1124q-2 -8 4 -20h4q0 8 1 13t-1 13 q-6 0 -8 -6zM780 4q10 14 13.5 34.5t2.5 44t-4.5 46.5t-3.5 39v172q0 10 -8 22h58q29 -12 51 -50t35 -66q0 25 2 59.5t-13 56.5h74q-12 -10 -11 -24t1 -29v-246q0 -14 -1 -31.5t11 -27.5h-207zM797 -356l59 223h64l59 -223h-51l-15 51h-53l-10 -51h-53zM844 47 q0 -14 11 -23.5t25.5 -11.5t28 3.5t15.5 19.5q-4 63 -21.5 127.5t-58.5 116.5v-232zM865 506.5q-3 19.5 7 32.5q10 12 33 13t27 -22q0 -10 -7 -15t-15.5 -5t-14.5 4t-6 14q-12 -4 -12 -14t7 -20.5t17 -19.5t17 -11q14 -4 34.5 -4t30.5 10q20 20 16 40.5t-19 38t-35.5 32 t-31.5 24.5q-18 16 -30.5 42t-12.5 52.5t13.5 48t44.5 27.5q27 6 54.5 4t51.5 -2l-6 -10q0 -14 7 -29.5t13.5 -31t5.5 -29.5t-16 -27q-14 -10 -33.5 -9t-21.5 22q0 12 7 17t15.5 5t14.5 -5t4 -13q14 2 14 12t-8 21.5t-18.5 20.5t-18.5 11q-14 4 -32.5 1t-24.5 -19 q-12 -25 -4 -43.5t24.5 -32.5t37 -27.5t32.5 -27.5q14 -20 22.5 -47t4.5 -52.5t-20.5 -44t-47.5 -22.5q-27 -2 -53.5 -1t-54.5 1q8 4 5 19.5t-8.5 33.5t-8.5 37.5zM866 -266h41q-4 23 -9 46t-11 46zM874 1014q4 -12 16.5 -10t14.5 14q2 18 -10 43q-6 -8 -14.5 -22.5 t-6.5 -24.5zM991 1059l4 -15q10 -14 25 -6q16 4 23.5 21.5t3.5 34.5q-2 10 -9.5 16t-21.5 -4q-20 -14 -25 -47zM997 4q12 14 15.5 36.5t2.5 47.5t-4 48.5t-3 39.5v127q0 16 1 29.5t-12 29.5h76q-10 -10 -13 -30.5t-2 -42t3 -43t2 -35.5v-166h104q23 0 55.5 -3t55.5 13 q-4 -8 -7 -29.5t-14 -21.5h-260zM1006 -135q29 4 64.5 6t62.5 -14q31 -23 22.5 -58t-37.5 -49q14 -6 21.5 -19.5t10.5 -28.5t5 -30.5t8 -27.5h-51q-6 12 -8 27.5t-6 28.5t-12.5 22.5t-26.5 7.5v-86h-53v221zM1057 -196.5q2 -24.5 2 -34.5h12q18 0 26.5 10t6.5 22.5 t-11.5 21.5t-27.5 7q-10 -2 -8 -26.5zM1065 416q10 12 11 25.5t1 27.5v248q0 14 -1 30.5t-11 28.5h127q25 -25 25.5 -59.5t-9.5 -67.5q-4 -8 -15 -29.5t-20.5 -45t-11.5 -45t10 -27.5q-6 12 4.5 13t21.5 -4t14 -14.5t-17 -17.5q-25 -10 -35 9.5t-8 35.5q0 16 6 32.5t8 31 t-4 22.5t-28 6v-155q16 0 41.5 -3t44.5 11q-6 -14 -8.5 -26.5t-6.5 -26.5h-139zM1098 362h78q-12 -29 2 -65.5t26 -60.5q12 29 22.5 62.5t0.5 63.5h80q-23 -12 -27 -38.5t-10 -47.5q-6 -20 -23.5 -47.5t-17.5 -48.5q0 -23 -3 -56.5t13 -51.5h-76q18 18 14.5 53.5t-3.5 58.5 q-12 23 -21.5 46.5t-17.5 45.5q-10 23 -14.5 46.5t-22.5 39.5zM1133 662q20 0 45.5 2t27.5 32q0 16 -7 23.5t-18.5 10.5t-24.5 3h-23v-71zM1192 -133h53v-223h-53v223zM1245 1092q-4 -10 1 -27.5t22 -3.5q12 12 21 33t11 39q-2 8 -4 13t-12 1q-16 -8 -25.5 -23.5 t-13.5 -31.5zM1274 -328q0 14 9 22.5t21.5 8.5t21.5 -8t9 -23q0 -16 -9 -23t-21.5 -7t-21.5 7t-9 23zM1294 813q-8 -6 4 -8q27 -10 57.5 -13.5t62.5 -3.5h62.5t59.5 -2t57.5 -5t57.5 -13q29 -8 51.5 -23.5t48.5 -27.5q0 61 -21.5 106t-80.5 68q35 31 69.5 58.5t75.5 43.5 q-49 47 -110.5 77t-126.5 46q-2 -57 -3.5 -112.5t-5.5 -112.5l-2 2v-6q-27 -2 -64.5 -4t-74.5 -9.5t-68.5 -21.5t-48.5 -39zM1364 -133h57l68 -152q-4 39 -4 77v75h47v-223h-51q-20 39 -37 78.5t-35 76.5q2 -39 2 -77.5v-77.5h-47v223zM1393 1157q16 20 31.5 40t19.5 46h-2 q-37 -37 -49 -86zM1562.5 -268q-8.5 37 14.5 80q12 29 40 43t62 14h10.5t17.5 -2t16.5 -4t7.5 -4l-9 -41q-27 12 -48 8t-36.5 -18.5t-20.5 -37t3 -46.5q16 -47 61 -41q10 2 8.5 21.5t-1.5 27.5h-27v41h76v-121q-41 -16 -79 -9t-62.5 29.5t-33 59.5z" />
<glyph unicode="2" d="M35 813q70 37 137.5 67.5t144.5 53.5q4 0 8.5 20.5t8.5 45t8 48t8 31.5q23 35 68 53.5t78 34.5q88 35 179 61.5t183 51.5q94 23 188.5 39t190.5 24q33 4 80 8.5t95 3.5t92 -12.5t71 -37.5q2 -4 -2 -29t-6 -33l-6 -98q0 -4 4 -4q78 -23 152.5 -58.5t123.5 -105.5 q-16 4 -36.5 -3t-41 -20.5t-38 -28t-27.5 -26.5q31 -16 50 -47t27.5 -66.5t6.5 -72.5t-13 -68q-16 43 -49.5 66.5t-74.5 35t-85 14.5t-83 5q-45 4 -94.5 2t-92.5 14q-16 6 -22 25.5t-7 43t2 46.5t5 37q-184 -14 -363.5 -56t-351.5 -102q-8 -2 -8 -6q2 -10 8 -33.5t10 -50.5 t6 -49.5t-6 -28.5q-23 -18 -58.5 -21t-64.5 -7q-39 -6 -78.5 -12.5t-78.5 -12.5q-35 -8 -67 -17.5t-62 -21.5q-14 -8 -28.5 -13t-29.5 -16q-8 -8 -18 -20t-17 -16q10 35 24.5 67.5t27.5 63.5q2 6 13 25.5t21.5 41t18.5 39t6 21.5q-25 35 -58.5 67.5t-78.5 36.5zM86 -133h47 q4 -41 7 -83t12 -83q4 41 10 83t14 83h37l25 -166q4 41 9 83t9 83h43l-43 -223h-43q-6 37 -11 73.5t-9 73.5q-4 -37 -11.5 -73.5t-13.5 -73.5h-43zM90 819q68 -37 109 -108q2 -2 -4.5 -15.5t-14.5 -29t-15 -28.5t-9 -20q-25 -45 -41 -94q51 27 104 39t108.5 20.5t110 15.5 t107.5 24q-18 18 -47 25t-62 8t-65.5 -2t-55.5 -5v131t4 131q-59 -16 -116.5 -39.5t-112.5 -52.5zM305 -133h45q4 -41 8 -83t11 -83q4 41 10 83t14 83h39l23 -166q4 41 9 83t9 83h43l-43 -223h-41q-8 37 -13 73.5t-9 73.5q-4 -37 -10.5 -73.5t-12.5 -73.5h-45zM342 709 q8 0 22.5 6t29 15t27.5 18.5t23 13.5q37 16 75 29.5t77 27.5q78 23 155.5 43.5t159.5 38.5q78 16 155 31.5t157 21.5q72 8 154.5 11.5t152.5 -29.5q6 55 6 112.5t4 110.5q0 29 2 57.5t6 57.5q2 14 -6 22.5t-20.5 13.5t-26.5 7t-27 4q-119 18 -245.5 1t-245.5 -42 q-129 -27 -255 -60.5t-249 -86.5q-23 -12 -46.5 -24.5t-43.5 -29.5q-20 -16 -24.5 -49t-8.5 -55q-8 -66 -8 -132.5v-133.5zM367 825q0 23 15 38.5t36 19.5q6 2 15 -2t5 -15q-12 -8 -22 -8q-12 -4 -16.5 -16.5t1.5 -22.5q4 -4 8.5 -5t8.5 -3q20 -2 33.5 11.5t22.5 34t13.5 41 t8.5 34.5q-27 -27 -62 -35q-27 -4 -43 12q-16 8 -16 37q0 27 12 51q27 61 86 99q12 6 25.5 12t27.5 10q10 4 21.5 12.5t21.5 10.5q12 -1 6 -13q12 0 21 -2q16 -2 27.5 -15t13.5 -32q6 -43 -23.5 -83t-66.5 -62q-18 -12 -27.5 -31.5t-18.5 -39t-20.5 -38t-34.5 -28.5 q-23 -16 -53 -11q-12 4 -20 14.5t-6 24.5zM405.5 937q2.5 -15 22.5 -15q31 0 49.5 19.5t30.5 47t18.5 58.5t10.5 51q-29 -6 -52.5 -23.5t-44.5 -38.5q-6 -6 -15 -25.5t-15.5 -39t-4 -34.5zM522 -133h45q4 -41 9.5 -83t9.5 -83q4 41 10 83t14 83h39l25 -166q2 41 7 83t11 83 h41l-41 -223h-43q-8 37 -12 73.5t-10 73.5q-4 -37 -10.5 -73.5t-12.5 -73.5h-43zM530 950q14 4 29.5 19.5t26 35t14.5 40t0 34.5q-6 23 -33 23q-14 -37 -20.5 -75t-16.5 -77zM582 138q2 34 2 61q0 20 -1 38.5t1 38.5q0 49 26.5 67.5t73.5 18.5q37 0 54.5 -20t23.5 -50 t4 -63.5t-2 -60.5v-80q0 -47 -26.5 -66.5t-71.5 -17.5q-39 0 -56.5 20.5t-23.5 50t-4 63.5zM628 952.5q-5 20.5 6 46t31.5 46t43.5 22.5q12 0 16 -10q8 -12 2 -29q-6 -23 -27.5 -40t-44.5 -21q2 -12 10.5 -13.5t17.5 3t17.5 10.5t12.5 10q25 20 36 46t21 52q2 2 -1 9.5 t-8 15.5t-8 17t-1 16q10 27 34 22q12 0 17 -12q4 -10 2 -22.5t-2 -24.5q20 2 28.5 -1t-4.5 -28q-8 -16 -17 -33.5t-11 -36.5q0 -10 6 -10q20 0 34.5 20.5t26 46t22.5 51t25 34.5q8 2 17 -2q2 -4 2 -13q-4 -12 -10.5 -21t-1.5 -24q6 -12 13 -25.5t5 -27.5h2q20 25 32.5 60.5 t45.5 52.5q37 14 49 -21q10 -14 6 -25.5t-2 -27.5q8 2 14 10q16 12 18.5 35t8.5 41q4 4 11 5t12 -1q10 -2 8 -12v-2q10 10 24 16q10 6 17.5 2t11.5 -14q4 -12 1 -22.5t-8 -21.5t-10 -22.5t-3 -23.5q14 12 24 26.5t18.5 29.5t17.5 28.5t26 23.5q20 10 51 0q4 6 17 8.5 t9 -14.5q-4 -18 -14 -38.5t-10 -41.5q0 -14 8 -2q20 20 30.5 48t19.5 55.5t23.5 53t43.5 42.5q14 8 24 -8q12 -23 4 -48.5t-24 -41.5q-14 -18 -43 -44t-25 -53q4 -16 23 -12q14 6 21 19.5t16 25.5q4 2 12 2t8 -10l-4 -12q-16 -39 -53 -54q-25 -14 -43 15q-4 4 -4 10 q-10 -8 -16.5 -15.5t-18.5 -11.5q-10 -4 -16.5 0t-12.5 8q-4 -4 -12 -8t-16 -6q-31 -6 -43 21v2q-8 -10 -17.5 -17.5t-23.5 -11.5q-14 -8 -25 12q-6 12 -3 23.5t8 22t9 21.5t2 23q-18 -8 -25 -19t-11.5 -25.5t-6.5 -29t-8 -28.5q-6 -16 -24 -8q-8 2 -9 10q0 4 1 9t1 7 q-14 -4 -19 -4t-15 -10t-24.5 -18.5t-31.5 -8.5q-10 2 -16 8.5t-10 14.5q-16 -16 -40 -32.5t-50 -12.5q-16 2 -25 18q-25 -29 -51 -36q-29 -12 -33 20q-4 27 8.5 44t22.5 38q2 4 -3 5t-7 -3q-8 -20 -18.5 -44t-26 -45.5t-36 -34.5t-46.5 -11q-31 2 -36 22.5zM638 163 q-1 -38 1 -75q0 -16 9 -26.5t21.5 -14.5t24 1t15.5 24q2 12 2 27.5v29.5v147q0 16 -10.5 27.5t-22.5 16t-23.5 -2t-15.5 -22.5q-2 -14 -1 -29.5t1 -27.5q0 -37 -1 -75zM653 416q12 14 15.5 36.5t2.5 48t-4 49t-3 42.5v125q0 16 1 30.5t-12 28.5h76q-14 -12 -12 -32.5 t2 -36.5v-142q0 -16 -2 -49t10 -47q14 -23 37.5 -8.5t28.5 33.5q8 27 2.5 54t-9.5 54q-4 14 -10 38t-8 48.5t2 46t21 33.5q10 10 31.5 10t29.5 -16q6 -16 -2 -21.5t-18.5 -4.5t-17.5 8.5t1 15.5q-16 -8 -17 -28.5t6 -44t17 -46.5t15 -35q12 -37 17 -87t-22 -85 q-10 -14 -33.5 -19t-50 -5t-53 3t-41.5 3zM655 987q12 -2 28.5 15.5t18.5 27.5q4 8 -2 12.5t-12 -2.5q-10 -10 -18.5 -24.5t-14.5 -28.5zM715 -328q0 14 9 22.5t21.5 8.5t21.5 -8t9 -23q0 -16 -9 -23t-21.5 -7t-21.5 7t-9 23zM776 1124q-2 -8 4 -20h4q0 8 1 13t-1 13 q-6 0 -8 -6zM780 4q10 14 13.5 34.5t2.5 44t-4.5 46.5t-3.5 39v172q0 10 -8 22h58q29 -12 51 -50t35 -66q0 25 2 59.5t-13 56.5h74q-12 -10 -11 -24t1 -29v-246q0 -14 -1 -31.5t11 -27.5h-207zM797 -356l59 223h64l59 -223h-51l-15 51h-53l-10 -51h-53zM844 47 q0 -14 11 -23.5t25.5 -11.5t28 3.5t15.5 19.5q-4 63 -21.5 127.5t-58.5 116.5v-232zM865 506.5q-3 19.5 7 32.5q10 12 33 13t27 -22q0 -10 -7 -15t-15.5 -5t-14.5 4t-6 14q-12 -4 -12 -14t7 -20.5t17 -19.5t17 -11q14 -4 34.5 -4t30.5 10q20 20 16 40.5t-19 38t-35.5 32 t-31.5 24.5q-18 16 -30.5 42t-12.5 52.5t13.5 48t44.5 27.5q27 6 54.5 4t51.5 -2l-6 -10q0 -14 7 -29.5t13.5 -31t5.5 -29.5t-16 -27q-14 -10 -33.5 -9t-21.5 22q0 12 7 17t15.5 5t14.5 -5t4 -13q14 2 14 12t-8 21.5t-18.5 20.5t-18.5 11q-14 4 -32.5 1t-24.5 -19 q-12 -25 -4 -43.5t24.5 -32.5t37 -27.5t32.5 -27.5q14 -20 22.5 -47t4.5 -52.5t-20.5 -44t-47.5 -22.5q-27 -2 -53.5 -1t-54.5 1q8 4 5 19.5t-8.5 33.5t-8.5 37.5zM866 -266h41q-4 23 -9 46t-11 46zM874 1014q4 -12 16.5 -10t14.5 14q2 18 -10 43q-6 -8 -14.5 -22.5 t-6.5 -24.5zM991 1059l4 -15q10 -14 25 -6q16 4 23.5 21.5t3.5 34.5q-2 10 -9.5 16t-21.5 -4q-20 -14 -25 -47zM997 4q12 14 15.5 36.5t2.5 47.5t-4 48.5t-3 39.5v127q0 16 1 29.5t-12 29.5h76q-10 -10 -13 -30.5t-2 -42t3 -43t2 -35.5v-166h104q23 0 55.5 -3t55.5 13 q-4 -8 -7 -29.5t-14 -21.5h-260zM1006 -135q29 4 64.5 6t62.5 -14q31 -23 22.5 -58t-37.5 -49q14 -6 21.5 -19.5t10.5 -28.5t5 -30.5t8 -27.5h-51q-6 12 -8 27.5t-6 28.5t-12.5 22.5t-26.5 7.5v-86h-53v221zM1057 -196.5q2 -24.5 2 -34.5h12q18 0 26.5 10t6.5 22.5 t-11.5 21.5t-27.5 7q-10 -2 -8 -26.5zM1065 416q10 12 11 25.5t1 27.5v248q0 14 -1 30.5t-11 28.5h127q25 -25 25.5 -59.5t-9.5 -67.5q-4 -8 -15 -29.5t-20.5 -45t-11.5 -45t10 -27.5q-6 12 4.5 13t21.5 -4t14 -14.5t-17 -17.5q-25 -10 -35 9.5t-8 35.5q0 16 6 32.5t8 31 t-4 22.5t-28 6v-155q16 0 41.5 -3t44.5 11q-6 -14 -8.5 -26.5t-6.5 -26.5h-139zM1098 362h78q-12 -29 2 -65.5t26 -60.5q12 29 22.5 62.5t0.5 63.5h80q-23 -12 -27 -38.5t-10 -47.5q-6 -20 -23.5 -47.5t-17.5 -48.5q0 -23 -3 -56.5t13 -51.5h-76q18 18 14.5 53.5t-3.5 58.5 q-12 23 -21.5 46.5t-17.5 45.5q-10 23 -14.5 46.5t-22.5 39.5zM1133 662q20 0 45.5 2t27.5 32q0 16 -7 23.5t-18.5 10.5t-24.5 3h-23v-71zM1192 -133h53v-223h-53v223zM1245 1092q-4 -10 1 -27.5t22 -3.5q12 12 21 33t11 39q-2 8 -4 13t-12 1q-16 -8 -25.5 -23.5 t-13.5 -31.5zM1274 -328q0 14 9 22.5t21.5 8.5t21.5 -8t9 -23q0 -16 -9 -23t-21.5 -7t-21.5 7t-9 23zM1294 813q-8 -6 4 -8q27 -10 57.5 -13.5t62.5 -3.5h62.5t59.5 -2t57.5 -5t57.5 -13q29 -8 51.5 -23.5t48.5 -27.5q0 61 -21.5 106t-80.5 68q35 31 69.5 58.5t75.5 43.5 q-49 47 -110.5 77t-126.5 46q-2 -57 -3.5 -112.5t-5.5 -112.5l-2 2v-6q-27 -2 -64.5 -4t-74.5 -9.5t-68.5 -21.5t-48.5 -39zM1364 -133h57l68 -152q-4 39 -4 77v75h47v-223h-51q-20 39 -37 78.5t-35 76.5q2 -39 2 -77.5v-77.5h-47v223zM1393 1157q16 20 31.5 40t19.5 46h-2 q-37 -37 -49 -86zM1562.5 -268q-8.5 37 14.5 80q12 29 40 43t62 14h10.5t17.5 -2t16.5 -4t7.5 -4l-9 -41q-27 12 -48 8t-36.5 -18.5t-20.5 -37t3 -46.5q16 -47 61 -41q10 2 8.5 21.5t-1.5 27.5h-27v41h76v-121q-41 -16 -79 -9t-62.5 29.5t-33 59.5z" />
<glyph unicode="3" d="M35 813q70 37 137.5 67.5t144.5 53.5q4 0 8.5 20.5t8.5 45t8 48t8 31.5q23 35 68 53.5t78 34.5q88 35 179 61.5t183 51.5q94 23 188.5 39t190.5 24q33 4 80 8.5t95 3.5t92 -12.5t71 -37.5q2 -4 -2 -29t-6 -33l-6 -98q0 -4 4 -4q78 -23 152.5 -58.5t123.5 -105.5 q-16 4 -36.5 -3t-41 -20.5t-38 -28t-27.5 -26.5q31 -16 50 -47t27.5 -66.5t6.5 -72.5t-13 -68q-16 43 -49.5 66.5t-74.5 35t-85 14.5t-83 5q-45 4 -94.5 2t-92.5 14q-16 6 -22 25.5t-7 43t2 46.5t5 37q-184 -14 -363.5 -56t-351.5 -102q-8 -2 -8 -6q2 -10 8 -33.5t10 -50.5 t6 -49.5t-6 -28.5q-23 -18 -58.5 -21t-64.5 -7q-39 -6 -78.5 -12.5t-78.5 -12.5q-35 -8 -67 -17.5t-62 -21.5q-14 -8 -28.5 -13t-29.5 -16q-8 -8 -18 -20t-17 -16q10 35 24.5 67.5t27.5 63.5q2 6 13 25.5t21.5 41t18.5 39t6 21.5q-25 35 -58.5 67.5t-78.5 36.5zM86 -133h47 q4 -41 7 -83t12 -83q4 41 10 83t14 83h37l25 -166q4 41 9 83t9 83h43l-43 -223h-43q-6 37 -11 73.5t-9 73.5q-4 -37 -11.5 -73.5t-13.5 -73.5h-43zM90 819q68 -37 109 -108q2 -2 -4.5 -15.5t-14.5 -29t-15 -28.5t-9 -20q-25 -45 -41 -94q51 27 104 39t108.5 20.5t110 15.5 t107.5 24q-18 18 -47 25t-62 8t-65.5 -2t-55.5 -5v131t4 131q-59 -16 -116.5 -39.5t-112.5 -52.5zM305 -133h45q4 -41 8 -83t11 -83q4 41 10 83t14 83h39l23 -166q4 41 9 83t9 83h43l-43 -223h-41q-8 37 -13 73.5t-9 73.5q-4 -37 -10.5 -73.5t-12.5 -73.5h-45zM342 709 q8 0 22.5 6t29 15t27.5 18.5t23 13.5q37 16 75 29.5t77 27.5q78 23 155.5 43.5t159.5 38.5q78 16 155 31.5t157 21.5q72 8 154.5 11.5t152.5 -29.5q6 55 6 112.5t4 110.5q0 29 2 57.5t6 57.5q2 14 -6 22.5t-20.5 13.5t-26.5 7t-27 4q-119 18 -245.5 1t-245.5 -42 q-129 -27 -255 -60.5t-249 -86.5q-23 -12 -46.5 -24.5t-43.5 -29.5q-20 -16 -24.5 -49t-8.5 -55q-8 -66 -8 -132.5v-133.5zM367 825q0 23 15 38.5t36 19.5q6 2 15 -2t5 -15q-12 -8 -22 -8q-12 -4 -16.5 -16.5t1.5 -22.5q4 -4 8.5 -5t8.5 -3q20 -2 33.5 11.5t22.5 34t13.5 41 t8.5 34.5q-27 -27 -62 -35q-27 -4 -43 12q-16 8 -16 37q0 27 12 51q27 61 86 99q12 6 25.5 12t27.5 10q10 4 21.5 12.5t21.5 10.5q12 -1 6 -13q12 0 21 -2q16 -2 27.5 -15t13.5 -32q6 -43 -23.5 -83t-66.5 -62q-18 -12 -27.5 -31.5t-18.5 -39t-20.5 -38t-34.5 -28.5 q-23 -16 -53 -11q-12 4 -20 14.5t-6 24.5zM405.5 937q2.5 -15 22.5 -15q31 0 49.5 19.5t30.5 47t18.5 58.5t10.5 51q-29 -6 -52.5 -23.5t-44.5 -38.5q-6 -6 -15 -25.5t-15.5 -39t-4 -34.5zM522 -133h45q4 -41 9.5 -83t9.5 -83q4 41 10 83t14 83h39l25 -166q2 41 7 83t11 83 h41l-41 -223h-43q-8 37 -12 73.5t-10 73.5q-4 -37 -10.5 -73.5t-12.5 -73.5h-43zM530 950q14 4 29.5 19.5t26 35t14.5 40t0 34.5q-6 23 -33 23q-14 -37 -20.5 -75t-16.5 -77zM582 138q2 34 2 61q0 20 -1 38.5t1 38.5q0 49 26.5 67.5t73.5 18.5q37 0 54.5 -20t23.5 -50 t4 -63.5t-2 -60.5v-80q0 -47 -26.5 -66.5t-71.5 -17.5q-39 0 -56.5 20.5t-23.5 50t-4 63.5zM628 952.5q-5 20.5 6 46t31.5 46t43.5 22.5q12 0 16 -10q8 -12 2 -29q-6 -23 -27.5 -40t-44.5 -21q2 -12 10.5 -13.5t17.5 3t17.5 10.5t12.5 10q25 20 36 46t21 52q2 2 -1 9.5 t-8 15.5t-8 17t-1 16q10 27 34 22q12 0 17 -12q4 -10 2 -22.5t-2 -24.5q20 2 28.5 -1t-4.5 -28q-8 -16 -17 -33.5t-11 -36.5q0 -10 6 -10q20 0 34.5 20.5t26 46t22.5 51t25 34.5q8 2 17 -2q2 -4 2 -13q-4 -12 -10.5 -21t-1.5 -24q6 -12 13 -25.5t5 -27.5h2q20 25 32.5 60.5 t45.5 52.5q37 14 49 -21q10 -14 6 -25.5t-2 -27.5q8 2 14 10q16 12 18.5 35t8.5 41q4 4 11 5t12 -1q10 -2 8 -12v-2q10 10 24 16q10 6 17.5 2t11.5 -14q4 -12 1 -22.5t-8 -21.5t-10 -22.5t-3 -23.5q14 12 24 26.5t18.5 29.5t17.5 28.5t26 23.5q20 10 51 0q4 6 17 8.5 t9 -14.5q-4 -18 -14 -38.5t-10 -41.5q0 -14 8 -2q20 20 30.5 48t19.5 55.5t23.5 53t43.5 42.5q14 8 24 -8q12 -23 4 -48.5t-24 -41.5q-14 -18 -43 -44t-25 -53q4 -16 23 -12q14 6 21 19.5t16 25.5q4 2 12 2t8 -10l-4 -12q-16 -39 -53 -54q-25 -14 -43 15q-4 4 -4 10 q-10 -8 -16.5 -15.5t-18.5 -11.5q-10 -4 -16.5 0t-12.5 8q-4 -4 -12 -8t-16 -6q-31 -6 -43 21v2q-8 -10 -17.5 -17.5t-23.5 -11.5q-14 -8 -25 12q-6 12 -3 23.5t8 22t9 21.5t2 23q-18 -8 -25 -19t-11.5 -25.5t-6.5 -29t-8 -28.5q-6 -16 -24 -8q-8 2 -9 10q0 4 1 9t1 7 q-14 -4 -19 -4t-15 -10t-24.5 -18.5t-31.5 -8.5q-10 2 -16 8.5t-10 14.5q-16 -16 -40 -32.5t-50 -12.5q-16 2 -25 18q-25 -29 -51 -36q-29 -12 -33 20q-4 27 8.5 44t22.5 38q2 4 -3 5t-7 -3q-8 -20 -18.5 -44t-26 -45.5t-36 -34.5t-46.5 -11q-31 2 -36 22.5zM638 163 q-1 -38 1 -75q0 -16 9 -26.5t21.5 -14.5t24 1t15.5 24q2 12 2 27.5v29.5v147q0 16 -10.5 27.5t-22.5 16t-23.5 -2t-15.5 -22.5q-2 -14 -1 -29.5t1 -27.5q0 -37 -1 -75zM653 416q12 14 15.5 36.5t2.5 48t-4 49t-3 42.5v125q0 16 1 30.5t-12 28.5h76q-14 -12 -12 -32.5 t2 -36.5v-142q0 -16 -2 -49t10 -47q14 -23 37.5 -8.5t28.5 33.5q8 27 2.5 54t-9.5 54q-4 14 -10 38t-8 48.5t2 46t21 33.5q10 10 31.5 10t29.5 -16q6 -16 -2 -21.5t-18.5 -4.5t-17.5 8.5t1 15.5q-16 -8 -17 -28.5t6 -44t17 -46.5t15 -35q12 -37 17 -87t-22 -85 q-10 -14 -33.5 -19t-50 -5t-53 3t-41.5 3zM655 987q12 -2 28.5 15.5t18.5 27.5q4 8 -2 12.5t-12 -2.5q-10 -10 -18.5 -24.5t-14.5 -28.5zM715 -328q0 14 9 22.5t21.5 8.5t21.5 -8t9 -23q0 -16 -9 -23t-21.5 -7t-21.5 7t-9 23zM776 1124q-2 -8 4 -20h4q0 8 1 13t-1 13 q-6 0 -8 -6zM780 4q10 14 13.5 34.5t2.5 44t-4.5 46.5t-3.5 39v172q0 10 -8 22h58q29 -12 51 -50t35 -66q0 25 2 59.5t-13 56.5h74q-12 -10 -11 -24t1 -29v-246q0 -14 -1 -31.5t11 -27.5h-207zM797 -356l59 223h64l59 -223h-51l-15 51h-53l-10 -51h-53zM844 47 q0 -14 11 -23.5t25.5 -11.5t28 3.5t15.5 19.5q-4 63 -21.5 127.5t-58.5 116.5v-232zM865 506.5q-3 19.5 7 32.5q10 12 33 13t27 -22q0 -10 -7 -15t-15.5 -5t-14.5 4t-6 14q-12 -4 -12 -14t7 -20.5t17 -19.5t17 -11q14 -4 34.5 -4t30.5 10q20 20 16 40.5t-19 38t-35.5 32 t-31.5 24.5q-18 16 -30.5 42t-12.5 52.5t13.5 48t44.5 27.5q27 6 54.5 4t51.5 -2l-6 -10q0 -14 7 -29.5t13.5 -31t5.5 -29.5t-16 -27q-14 -10 -33.5 -9t-21.5 22q0 12 7 17t15.5 5t14.5 -5t4 -13q14 2 14 12t-8 21.5t-18.5 20.5t-18.5 11q-14 4 -32.5 1t-24.5 -19 q-12 -25 -4 -43.5t24.5 -32.5t37 -27.5t32.5 -27.5q14 -20 22.5 -47t4.5 -52.5t-20.5 -44t-47.5 -22.5q-27 -2 -53.5 -1t-54.5 1q8 4 5 19.5t-8.5 33.5t-8.5 37.5zM866 -266h41q-4 23 -9 46t-11 46zM874 1014q4 -12 16.5 -10t14.5 14q2 18 -10 43q-6 -8 -14.5 -22.5 t-6.5 -24.5zM991 1059l4 -15q10 -14 25 -6q16 4 23.5 21.5t3.5 34.5q-2 10 -9.5 16t-21.5 -4q-20 -14 -25 -47zM997 4q12 14 15.5 36.5t2.5 47.5t-4 48.5t-3 39.5v127q0 16 1 29.5t-12 29.5h76q-10 -10 -13 -30.5t-2 -42t3 -43t2 -35.5v-166h104q23 0 55.5 -3t55.5 13 q-4 -8 -7 -29.5t-14 -21.5h-260zM1006 -135q29 4 64.5 6t62.5 -14q31 -23 22.5 -58t-37.5 -49q14 -6 21.5 -19.5t10.5 -28.5t5 -30.5t8 -27.5h-51q-6 12 -8 27.5t-6 28.5t-12.5 22.5t-26.5 7.5v-86h-53v221zM1057 -196.5q2 -24.5 2 -34.5h12q18 0 26.5 10t6.5 22.5 t-11.5 21.5t-27.5 7q-10 -2 -8 -26.5zM1065 416q10 12 11 25.5t1 27.5v248q0 14 -1 30.5t-11 28.5h127q25 -25 25.5 -59.5t-9.5 -67.5q-4 -8 -15 -29.5t-20.5 -45t-11.5 -45t10 -27.5q-6 12 4.5 13t21.5 -4t14 -14.5t-17 -17.5q-25 -10 -35 9.5t-8 35.5q0 16 6 32.5t8 31 t-4 22.5t-28 6v-155q16 0 41.5 -3t44.5 11q-6 -14 -8.5 -26.5t-6.5 -26.5h-139zM1098 362h78q-12 -29 2 -65.5t26 -60.5q12 29 22.5 62.5t0.5 63.5h80q-23 -12 -27 -38.5t-10 -47.5q-6 -20 -23.5 -47.5t-17.5 -48.5q0 -23 -3 -56.5t13 -51.5h-76q18 18 14.5 53.5t-3.5 58.5 q-12 23 -21.5 46.5t-17.5 45.5q-10 23 -14.5 46.5t-22.5 39.5zM1133 662q20 0 45.5 2t27.5 32q0 16 -7 23.5t-18.5 10.5t-24.5 3h-23v-71zM1192 -133h53v-223h-53v223zM1245 1092q-4 -10 1 -27.5t22 -3.5q12 12 21 33t11 39q-2 8 -4 13t-12 1q-16 -8 -25.5 -23.5 t-13.5 -31.5zM1274 -328q0 14 9 22.5t21.5 8.5t21.5 -8t9 -23q0 -16 -9 -23t-21.5 -7t-21.5 7t-9 23zM1294 813q-8 -6 4 -8q27 -10 57.5 -13.5t62.5 -3.5h62.5t59.5 -2t57.5 -5t57.5 -13q29 -8 51.5 -23.5t48.5 -27.5q0 61 -21.5 106t-80.5 68q35 31 69.5 58.5t75.5 43.5 q-49 47 -110.5 77t-126.5 46q-2 -57 -3.5 -112.5t-5.5 -112.5l-2 2v-6q-27 -2 -64.5 -4t-74.5 -9.5t-68.5 -21.5t-48.5 -39zM1364 -133h57l68 -152q-4 39 -4 77v75h47v-223h-51q-20 39 -37 78.5t-35 76.5q2 -39 2 -77.5v-77.5h-47v223zM1393 1157q16 20 31.5 40t19.5 46h-2 q-37 -37 -49 -86zM1562.5 -268q-8.5 37 14.5 80q12 29 40 43t62 14h10.5t17.5 -2t16.5 -4t7.5 -4l-9 -41q-27 12 -48 8t-36.5 -18.5t-20.5 -37t3 -46.5q16 -47 61 -41q10 2 8.5 21.5t-1.5 27.5h-27v41h76v-121q-41 -16 -79 -9t-62.5 29.5t-33 59.5z" />
<glyph unicode="4" d="M35 813q70 37 137.5 67.5t144.5 53.5q4 0 8.5 20.5t8.5 45t8 48t8 31.5q23 35 68 53.5t78 34.5q88 35 179 61.5t183 51.5q94 23 188.5 39t190.5 24q33 4 80 8.5t95 3.5t92 -12.5t71 -37.5q2 -4 -2 -29t-6 -33l-6 -98q0 -4 4 -4q78 -23 152.5 -58.5t123.5 -105.5 q-16 4 -36.5 -3t-41 -20.5t-38 -28t-27.5 -26.5q31 -16 50 -47t27.5 -66.5t6.5 -72.5t-13 -68q-16 43 -49.5 66.5t-74.5 35t-85 14.5t-83 5q-45 4 -94.5 2t-92.5 14q-16 6 -22 25.5t-7 43t2 46.5t5 37q-184 -14 -363.5 -56t-351.5 -102q-8 -2 -8 -6q2 -10 8 -33.5t10 -50.5 t6 -49.5t-6 -28.5q-23 -18 -58.5 -21t-64.5 -7q-39 -6 -78.5 -12.5t-78.5 -12.5q-35 -8 -67 -17.5t-62 -21.5q-14 -8 -28.5 -13t-29.5 -16q-8 -8 -18 -20t-17 -16q10 35 24.5 67.5t27.5 63.5q2 6 13 25.5t21.5 41t18.5 39t6 21.5q-25 35 -58.5 67.5t-78.5 36.5zM86 -133h47 q4 -41 7 -83t12 -83q4 41 10 83t14 83h37l25 -166q4 41 9 83t9 83h43l-43 -223h-43q-6 37 -11 73.5t-9 73.5q-4 -37 -11.5 -73.5t-13.5 -73.5h-43zM90 819q68 -37 109 -108q2 -2 -4.5 -15.5t-14.5 -29t-15 -28.5t-9 -20q-25 -45 -41 -94q51 27 104 39t108.5 20.5t110 15.5 t107.5 24q-18 18 -47 25t-62 8t-65.5 -2t-55.5 -5v131t4 131q-59 -16 -116.5 -39.5t-112.5 -52.5zM305 -133h45q4 -41 8 -83t11 -83q4 41 10 83t14 83h39l23 -166q4 41 9 83t9 83h43l-43 -223h-41q-8 37 -13 73.5t-9 73.5q-4 -37 -10.5 -73.5t-12.5 -73.5h-45zM342 709 q8 0 22.5 6t29 15t27.5 18.5t23 13.5q37 16 75 29.5t77 27.5q78 23 155.5 43.5t159.5 38.5q78 16 155 31.5t157 21.5q72 8 154.5 11.5t152.5 -29.5q6 55 6 112.5t4 110.5q0 29 2 57.5t6 57.5q2 14 -6 22.5t-20.5 13.5t-26.5 7t-27 4q-119 18 -245.5 1t-245.5 -42 q-129 -27 -255 -60.5t-249 -86.5q-23 -12 -46.5 -24.5t-43.5 -29.5q-20 -16 -24.5 -49t-8.5 -55q-8 -66 -8 -132.5v-133.5zM367 825q0 23 15 38.5t36 19.5q6 2 15 -2t5 -15q-12 -8 -22 -8q-12 -4 -16.5 -16.5t1.5 -22.5q4 -4 8.5 -5t8.5 -3q20 -2 33.5 11.5t22.5 34t13.5 41 t8.5 34.5q-27 -27 -62 -35q-27 -4 -43 12q-16 8 -16 37q0 27 12 51q27 61 86 99q12 6 25.5 12t27.5 10q10 4 21.5 12.5t21.5 10.5q12 -1 6 -13q12 0 21 -2q16 -2 27.5 -15t13.5 -32q6 -43 -23.5 -83t-66.5 -62q-18 -12 -27.5 -31.5t-18.5 -39t-20.5 -38t-34.5 -28.5 q-23 -16 -53 -11q-12 4 -20 14.5t-6 24.5zM405.5 937q2.5 -15 22.5 -15q31 0 49.5 19.5t30.5 47t18.5 58.5t10.5 51q-29 -6 -52.5 -23.5t-44.5 -38.5q-6 -6 -15 -25.5t-15.5 -39t-4 -34.5zM522 -133h45q4 -41 9.5 -83t9.5 -83q4 41 10 83t14 83h39l25 -166q2 41 7 83t11 83 h41l-41 -223h-43q-8 37 -12 73.5t-10 73.5q-4 -37 -10.5 -73.5t-12.5 -73.5h-43zM530 950q14 4 29.5 19.5t26 35t14.5 40t0 34.5q-6 23 -33 23q-14 -37 -20.5 -75t-16.5 -77zM582 138q2 34 2 61q0 20 -1 38.5t1 38.5q0 49 26.5 67.5t73.5 18.5q37 0 54.5 -20t23.5 -50 t4 -63.5t-2 -60.5v-80q0 -47 -26.5 -66.5t-71.5 -17.5q-39 0 -56.5 20.5t-23.5 50t-4 63.5zM628 952.5q-5 20.5 6 46t31.5 46t43.5 22.5q12 0 16 -10q8 -12 2 -29q-6 -23 -27.5 -40t-44.5 -21q2 -12 10.5 -13.5t17.5 3t17.5 10.5t12.5 10q25 20 36 46t21 52q2 2 -1 9.5 t-8 15.5t-8 17t-1 16q10 27 34 22q12 0 17 -12q4 -10 2 -22.5t-2 -24.5q20 2 28.5 -1t-4.5 -28q-8 -16 -17 -33.5t-11 -36.5q0 -10 6 -10q20 0 34.5 20.5t26 46t22.5 51t25 34.5q8 2 17 -2q2 -4 2 -13q-4 -12 -10.5 -21t-1.5 -24q6 -12 13 -25.5t5 -27.5h2q20 25 32.5 60.5 t45.5 52.5q37 14 49 -21q10 -14 6 -25.5t-2 -27.5q8 2 14 10q16 12 18.5 35t8.5 41q4 4 11 5t12 -1q10 -2 8 -12v-2q10 10 24 16q10 6 17.5 2t11.5 -14q4 -12 1 -22.5t-8 -21.5t-10 -22.5t-3 -23.5q14 12 24 26.5t18.5 29.5t17.5 28.5t26 23.5q20 10 51 0q4 6 17 8.5 t9 -14.5q-4 -18 -14 -38.5t-10 -41.5q0 -14 8 -2q20 20 30.5 48t19.5 55.5t23.5 53t43.5 42.5q14 8 24 -8q12 -23 4 -48.5t-24 -41.5q-14 -18 -43 -44t-25 -53q4 -16 23 -12q14 6 21 19.5t16 25.5q4 2 12 2t8 -10l-4 -12q-16 -39 -53 -54q-25 -14 -43 15q-4 4 -4 10 q-10 -8 -16.5 -15.5t-18.5 -11.5q-10 -4 -16.5 0t-12.5 8q-4 -4 -12 -8t-16 -6q-31 -6 -43 21v2q-8 -10 -17.5 -17.5t-23.5 -11.5q-14 -8 -25 12q-6 12 -3 23.5t8 22t9 21.5t2 23q-18 -8 -25 -19t-11.5 -25.5t-6.5 -29t-8 -28.5q-6 -16 -24 -8q-8 2 -9 10q0 4 1 9t1 7 q-14 -4 -19 -4t-15 -10t-24.5 -18.5t-31.5 -8.5q-10 2 -16 8.5t-10 14.5q-16 -16 -40 -32.5t-50 -12.5q-16 2 -25 18q-25 -29 -51 -36q-29 -12 -33 20q-4 27 8.5 44t22.5 38q2 4 -3 5t-7 -3q-8 -20 -18.5 -44t-26 -45.5t-36 -34.5t-46.5 -11q-31 2 -36 22.5zM638 163 q-1 -38 1 -75q0 -16 9 -26.5t21.5 -14.5t24 1t15.5 24q2 12 2 27.5v29.5v147q0 16 -10.5 27.5t-22.5 16t-23.5 -2t-15.5 -22.5q-2 -14 -1 -29.5t1 -27.5q0 -37 -1 -75zM653 416q12 14 15.5 36.5t2.5 48t-4 49t-3 42.5v125q0 16 1 30.5t-12 28.5h76q-14 -12 -12 -32.5 t2 -36.5v-142q0 -16 -2 -49t10 -47q14 -23 37.5 -8.5t28.5 33.5q8 27 2.5 54t-9.5 54q-4 14 -10 38t-8 48.5t2 46t21 33.5q10 10 31.5 10t29.5 -16q6 -16 -2 -21.5t-18.5 -4.5t-17.5 8.5t1 15.5q-16 -8 -17 -28.5t6 -44t17 -46.5t15 -35q12 -37 17 -87t-22 -85 q-10 -14 -33.5 -19t-50 -5t-53 3t-41.5 3zM655 987q12 -2 28.5 15.5t18.5 27.5q4 8 -2 12.5t-12 -2.5q-10 -10 -18.5 -24.5t-14.5 -28.5zM715 -328q0 14 9 22.5t21.5 8.5t21.5 -8t9 -23q0 -16 -9 -23t-21.5 -7t-21.5 7t-9 23zM776 1124q-2 -8 4 -20h4q0 8 1 13t-1 13 q-6 0 -8 -6zM780 4q10 14 13.5 34.5t2.5 44t-4.5 46.5t-3.5 39v172q0 10 -8 22h58q29 -12 51 -50t35 -66q0 25 2 59.5t-13 56.5h74q-12 -10 -11 -24t1 -29v-246q0 -14 -1 -31.5t11 -27.5h-207zM797 -356l59 223h64l59 -223h-51l-15 51h-53l-10 -51h-53zM844 47 q0 -14 11 -23.5t25.5 -11.5t28 3.5t15.5 19.5q-4 63 -21.5 127.5t-58.5 116.5v-232zM865 506.5q-3 19.5 7 32.5q10 12 33 13t27 -22q0 -10 -7 -15t-15.5 -5t-14.5 4t-6 14q-12 -4 -12 -14t7 -20.5t17 -19.5t17 -11q14 -4 34.5 -4t30.5 10q20 20 16 40.5t-19 38t-35.5 32 t-31.5 24.5q-18 16 -30.5 42t-12.5 52.5t13.5 48t44.5 27.5q27 6 54.5 4t51.5 -2l-6 -10q0 -14 7 -29.5t13.5 -31t5.5 -29.5t-16 -27q-14 -10 -33.5 -9t-21.5 22q0 12 7 17t15.5 5t14.5 -5t4 -13q14 2 14 12t-8 21.5t-18.5 20.5t-18.5 11q-14 4 -32.5 1t-24.5 -19 q-12 -25 -4 -43.5t24.5 -32.5t37 -27.5t32.5 -27.5q14 -20 22.5 -47t4.5 -52.5t-20.5 -44t-47.5 -22.5q-27 -2 -53.5 -1t-54.5 1q8 4 5 19.5t-8.5 33.5t-8.5 37.5zM866 -266h41q-4 23 -9 46t-11 46zM874 1014q4 -12 16.5 -10t14.5 14q2 18 -10 43q-6 -8 -14.5 -22.5 t-6.5 -24.5zM991 1059l4 -15q10 -14 25 -6q16 4 23.5 21.5t3.5 34.5q-2 10 -9.5 16t-21.5 -4q-20 -14 -25 -47zM997 4q12 14 15.5 36.5t2.5 47.5t-4 48.5t-3 39.5v127q0 16 1 29.5t-12 29.5h76q-10 -10 -13 -30.5t-2 -42t3 -43t2 -35.5v-166h104q23 0 55.5 -3t55.5 13 q-4 -8 -7 -29.5t-14 -21.5h-260zM1006 -135q29 4 64.5 6t62.5 -14q31 -23 22.5 -58t-37.5 -49q14 -6 21.5 -19.5t10.5 -28.5t5 -30.5t8 -27.5h-51q-6 12 -8 27.5t-6 28.5t-12.5 22.5t-26.5 7.5v-86h-53v221zM1057 -196.5q2 -24.5 2 -34.5h12q18 0 26.5 10t6.5 22.5 t-11.5 21.5t-27.5 7q-10 -2 -8 -26.5zM1065 416q10 12 11 25.5t1 27.5v248q0 14 -1 30.5t-11 28.5h127q25 -25 25.5 -59.5t-9.5 -67.5q-4 -8 -15 -29.5t-20.5 -45t-11.5 -45t10 -27.5q-6 12 4.5 13t21.5 -4t14 -14.5t-17 -17.5q-25 -10 -35 9.5t-8 35.5q0 16 6 32.5t8 31 t-4 22.5t-28 6v-155q16 0 41.5 -3t44.5 11q-6 -14 -8.5 -26.5t-6.5 -26.5h-139zM1098 362h78q-12 -29 2 -65.5t26 -60.5q12 29 22.5 62.5t0.5 63.5h80q-23 -12 -27 -38.5t-10 -47.5q-6 -20 -23.5 -47.5t-17.5 -48.5q0 -23 -3 -56.5t13 -51.5h-76q18 18 14.5 53.5t-3.5 58.5 q-12 23 -21.5 46.5t-17.5 45.5q-10 23 -14.5 46.5t-22.5 39.5zM1133 662q20 0 45.5 2t27.5 32q0 16 -7 23.5t-18.5 10.5t-24.5 3h-23v-71zM1192 -133h53v-223h-53v223zM1245 1092q-4 -10 1 -27.5t22 -3.5q12 12 21 33t11 39q-2 8 -4 13t-12 1q-16 -8 -25.5 -23.5 t-13.5 -31.5zM1274 -328q0 14 9 22.5t21.5 8.5t21.5 -8t9 -23q0 -16 -9 -23t-21.5 -7t-21.5 7t-9 23zM1294 813q-8 -6 4 -8q27 -10 57.5 -13.5t62.5 -3.5h62.5t59.5 -2t57.5 -5t57.5 -13q29 -8 51.5 -23.5t48.5 -27.5q0 61 -21.5 106t-80.5 68q35 31 69.5 58.5t75.5 43.5 q-49 47 -110.5 77t-126.5 46q-2 -57 -3.5 -112.5t-5.5 -112.5l-2 2v-6q-27 -2 -64.5 -4t-74.5 -9.5t-68.5 -21.5t-48.5 -39zM1364 -133h57l68 -152q-4 39 -4 77v75h47v-223h-51q-20 39 -37 78.5t-35 76.5q2 -39 2 -77.5v-77.5h-47v223zM1393 1157q16 20 31.5 40t19.5 46h-2 q-37 -37 -49 -86zM1562.5 -268q-8.5 37 14.5 80q12 29 40 43t62 14h10.5t17.5 -2t16.5 -4t7.5 -4l-9 -41q-27 12 -48 8t-36.5 -18.5t-20.5 -37t3 -46.5q16 -47 61 -41q10 2 8.5 21.5t-1.5 27.5h-27v41h76v-121q-41 -16 -79 -9t-62.5 29.5t-33 59.5z" />
<glyph unicode="5" d="M35 813q70 37 137.5 67.5t144.5 53.5q4 0 8.5 20.5t8.5 45t8 48t8 31.5q23 35 68 53.5t78 34.5q88 35 179 61.5t183 51.5q94 23 188.5 39t190.5 24q33 4 80 8.5t95 3.5t92 -12.5t71 -37.5q2 -4 -2 -29t-6 -33l-6 -98q0 -4 4 -4q78 -23 152.5 -58.5t123.5 -105.5 q-16 4 -36.5 -3t-41 -20.5t-38 -28t-27.5 -26.5q31 -16 50 -47t27.5 -66.5t6.5 -72.5t-13 -68q-16 43 -49.5 66.5t-74.5 35t-85 14.5t-83 5q-45 4 -94.5 2t-92.5 14q-16 6 -22 25.5t-7 43t2 46.5t5 37q-184 -14 -363.5 -56t-351.5 -102q-8 -2 -8 -6q2 -10 8 -33.5t10 -50.5 t6 -49.5t-6 -28.5q-23 -18 -58.5 -21t-64.5 -7q-39 -6 -78.5 -12.5t-78.5 -12.5q-35 -8 -67 -17.5t-62 -21.5q-14 -8 -28.5 -13t-29.5 -16q-8 -8 -18 -20t-17 -16q10 35 24.5 67.5t27.5 63.5q2 6 13 25.5t21.5 41t18.5 39t6 21.5q-25 35 -58.5 67.5t-78.5 36.5zM86 -133h47 q4 -41 7 -83t12 -83q4 41 10 83t14 83h37l25 -166q4 41 9 83t9 83h43l-43 -223h-43q-6 37 -11 73.5t-9 73.5q-4 -37 -11.5 -73.5t-13.5 -73.5h-43zM90 819q68 -37 109 -108q2 -2 -4.5 -15.5t-14.5 -29t-15 -28.5t-9 -20q-25 -45 -41 -94q51 27 104 39t108.5 20.5t110 15.5 t107.5 24q-18 18 -47 25t-62 8t-65.5 -2t-55.5 -5v131t4 131q-59 -16 -116.5 -39.5t-112.5 -52.5zM305 -133h45q4 -41 8 -83t11 -83q4 41 10 83t14 83h39l23 -166q4 41 9 83t9 83h43l-43 -223h-41q-8 37 -13 73.5t-9 73.5q-4 -37 -10.5 -73.5t-12.5 -73.5h-45zM342 709 q8 0 22.5 6t29 15t27.5 18.5t23 13.5q37 16 75 29.5t77 27.5q78 23 155.5 43.5t159.5 38.5q78 16 155 31.5t157 21.5q72 8 154.5 11.5t152.5 -29.5q6 55 6 112.5t4 110.5q0 29 2 57.5t6 57.5q2 14 -6 22.5t-20.5 13.5t-26.5 7t-27 4q-119 18 -245.5 1t-245.5 -42 q-129 -27 -255 -60.5t-249 -86.5q-23 -12 -46.5 -24.5t-43.5 -29.5q-20 -16 -24.5 -49t-8.5 -55q-8 -66 -8 -132.5v-133.5zM367 825q0 23 15 38.5t36 19.5q6 2 15 -2t5 -15q-12 -8 -22 -8q-12 -4 -16.5 -16.5t1.5 -22.5q4 -4 8.5 -5t8.5 -3q20 -2 33.5 11.5t22.5 34t13.5 41 t8.5 34.5q-27 -27 -62 -35q-27 -4 -43 12q-16 8 -16 37q0 27 12 51q27 61 86 99q12 6 25.5 12t27.5 10q10 4 21.5 12.5t21.5 10.5q12 -1 6 -13q12 0 21 -2q16 -2 27.5 -15t13.5 -32q6 -43 -23.5 -83t-66.5 -62q-18 -12 -27.5 -31.5t-18.5 -39t-20.5 -38t-34.5 -28.5 q-23 -16 -53 -11q-12 4 -20 14.5t-6 24.5zM405.5 937q2.5 -15 22.5 -15q31 0 49.5 19.5t30.5 47t18.5 58.5t10.5 51q-29 -6 -52.5 -23.5t-44.5 -38.5q-6 -6 -15 -25.5t-15.5 -39t-4 -34.5zM522 -133h45q4 -41 9.5 -83t9.5 -83q4 41 10 83t14 83h39l25 -166q2 41 7 83t11 83 h41l-41 -223h-43q-8 37 -12 73.5t-10 73.5q-4 -37 -10.5 -73.5t-12.5 -73.5h-43zM530 950q14 4 29.5 19.5t26 35t14.5 40t0 34.5q-6 23 -33 23q-14 -37 -20.5 -75t-16.5 -77zM582 138q2 34 2 61q0 20 -1 38.5t1 38.5q0 49 26.5 67.5t73.5 18.5q37 0 54.5 -20t23.5 -50 t4 -63.5t-2 -60.5v-80q0 -47 -26.5 -66.5t-71.5 -17.5q-39 0 -56.5 20.5t-23.5 50t-4 63.5zM628 952.5q-5 20.5 6 46t31.5 46t43.5 22.5q12 0 16 -10q8 -12 2 -29q-6 -23 -27.5 -40t-44.5 -21q2 -12 10.5 -13.5t17.5 3t17.5 10.5t12.5 10q25 20 36 46t21 52q2 2 -1 9.5 t-8 15.5t-8 17t-1 16q10 27 34 22q12 0 17 -12q4 -10 2 -22.5t-2 -24.5q20 2 28.5 -1t-4.5 -28q-8 -16 -17 -33.5t-11 -36.5q0 -10 6 -10q20 0 34.5 20.5t26 46t22.5 51t25 34.5q8 2 17 -2q2 -4 2 -13q-4 -12 -10.5 -21t-1.5 -24q6 -12 13 -25.5t5 -27.5h2q20 25 32.5 60.5 t45.5 52.5q37 14 49 -21q10 -14 6 -25.5t-2 -27.5q8 2 14 10q16 12 18.5 35t8.5 41q4 4 11 5t12 -1q10 -2 8 -12v-2q10 10 24 16q10 6 17.5 2t11.5 -14q4 -12 1 -22.5t-8 -21.5t-10 -22.5t-3 -23.5q14 12 24 26.5t18.5 29.5t17.5 28.5t26 23.5q20 10 51 0q4 6 17 8.5 t9 -14.5q-4 -18 -14 -38.5t-10 -41.5q0 -14 8 -2q20 20 30.5 48t19.5 55.5t23.5 53t43.5 42.5q14 8 24 -8q12 -23 4 -48.5t-24 -41.5q-14 -18 -43 -44t-25 -53q4 -16 23 -12q14 6 21 19.5t16 25.5q4 2 12 2t8 -10l-4 -12q-16 -39 -53 -54q-25 -14 -43 15q-4 4 -4 10 q-10 -8 -16.5 -15.5t-18.5 -11.5q-10 -4 -16.5 0t-12.5 8q-4 -4 -12 -8t-16 -6q-31 -6 -43 21v2q-8 -10 -17.5 -17.5t-23.5 -11.5q-14 -8 -25 12q-6 12 -3 23.5t8 22t9 21.5t2 23q-18 -8 -25 -19t-11.5 -25.5t-6.5 -29t-8 -28.5q-6 -16 -24 -8q-8 2 -9 10q0 4 1 9t1 7 q-14 -4 -19 -4t-15 -10t-24.5 -18.5t-31.5 -8.5q-10 2 -16 8.5t-10 14.5q-16 -16 -40 -32.5t-50 -12.5q-16 2 -25 18q-25 -29 -51 -36q-29 -12 -33 20q-4 27 8.5 44t22.5 38q2 4 -3 5t-7 -3q-8 -20 -18.5 -44t-26 -45.5t-36 -34.5t-46.5 -11q-31 2 -36 22.5zM638 163 q-1 -38 1 -75q0 -16 9 -26.5t21.5 -14.5t24 1t15.5 24q2 12 2 27.5v29.5v147q0 16 -10.5 27.5t-22.5 16t-23.5 -2t-15.5 -22.5q-2 -14 -1 -29.5t1 -27.5q0 -37 -1 -75zM653 416q12 14 15.5 36.5t2.5 48t-4 49t-3 42.5v125q0 16 1 30.5t-12 28.5h76q-14 -12 -12 -32.5 t2 -36.5v-142q0 -16 -2 -49t10 -47q14 -23 37.5 -8.5t28.5 33.5q8 27 2.5 54t-9.5 54q-4 14 -10 38t-8 48.5t2 46t21 33.5q10 10 31.5 10t29.5 -16q6 -16 -2 -21.5t-18.5 -4.5t-17.5 8.5t1 15.5q-16 -8 -17 -28.5t6 -44t17 -46.5t15 -35q12 -37 17 -87t-22 -85 q-10 -14 -33.5 -19t-50 -5t-53 3t-41.5 3zM655 987q12 -2 28.5 15.5t18.5 27.5q4 8 -2 12.5t-12 -2.5q-10 -10 -18.5 -24.5t-14.5 -28.5zM715 -328q0 14 9 22.5t21.5 8.5t21.5 -8t9 -23q0 -16 -9 -23t-21.5 -7t-21.5 7t-9 23zM776 1124q-2 -8 4 -20h4q0 8 1 13t-1 13 q-6 0 -8 -6zM780 4q10 14 13.5 34.5t2.5 44t-4.5 46.5t-3.5 39v172q0 10 -8 22h58q29 -12 51 -50t35 -66q0 25 2 59.5t-13 56.5h74q-12 -10 -11 -24t1 -29v-246q0 -14 -1 -31.5t11 -27.5h-207zM797 -356l59 223h64l59 -223h-51l-15 51h-53l-10 -51h-53zM844 47 q0 -14 11 -23.5t25.5 -11.5t28 3.5t15.5 19.5q-4 63 -21.5 127.5t-58.5 116.5v-232zM865 506.5q-3 19.5 7 32.5q10 12 33 13t27 -22q0 -10 -7 -15t-15.5 -5t-14.5 4t-6 14q-12 -4 -12 -14t7 -20.5t17 -19.5t17 -11q14 -4 34.5 -4t30.5 10q20 20 16 40.5t-19 38t-35.5 32 t-31.5 24.5q-18 16 -30.5 42t-12.5 52.5t13.5 48t44.5 27.5q27 6 54.5 4t51.5 -2l-6 -10q0 -14 7 -29.5t13.5 -31t5.5 -29.5t-16 -27q-14 -10 -33.5 -9t-21.5 22q0 12 7 17t15.5 5t14.5 -5t4 -13q14 2 14 12t-8 21.5t-18.5 20.5t-18.5 11q-14 4 -32.5 1t-24.5 -19 q-12 -25 -4 -43.5t24.5 -32.5t37 -27.5t32.5 -27.5q14 -20 22.5 -47t4.5 -52.5t-20.5 -44t-47.5 -22.5q-27 -2 -53.5 -1t-54.5 1q8 4 5 19.5t-8.5 33.5t-8.5 37.5zM866 -266h41q-4 23 -9 46t-11 46zM874 1014q4 -12 16.5 -10t14.5 14q2 18 -10 43q-6 -8 -14.5 -22.5 t-6.5 -24.5zM991 1059l4 -15q10 -14 25 -6q16 4 23.5 21.5t3.5 34.5q-2 10 -9.5 16t-21.5 -4q-20 -14 -25 -47zM997 4q12 14 15.5 36.5t2.5 47.5t-4 48.5t-3 39.5v127q0 16 1 29.5t-12 29.5h76q-10 -10 -13 -30.5t-2 -42t3 -43t2 -35.5v-166h104q23 0 55.5 -3t55.5 13 q-4 -8 -7 -29.5t-14 -21.5h-260zM1006 -135q29 4 64.5 6t62.5 -14q31 -23 22.5 -58t-37.5 -49q14 -6 21.5 -19.5t10.5 -28.5t5 -30.5t8 -27.5h-51q-6 12 -8 27.5t-6 28.5t-12.5 22.5t-26.5 7.5v-86h-53v221zM1057 -196.5q2 -24.5 2 -34.5h12q18 0 26.5 10t6.5 22.5 t-11.5 21.5t-27.5 7q-10 -2 -8 -26.5zM1065 416q10 12 11 25.5t1 27.5v248q0 14 -1 30.5t-11 28.5h127q25 -25 25.5 -59.5t-9.5 -67.5q-4 -8 -15 -29.5t-20.5 -45t-11.5 -45t10 -27.5q-6 12 4.5 13t21.5 -4t14 -14.5t-17 -17.5q-25 -10 -35 9.5t-8 35.5q0 16 6 32.5t8 31 t-4 22.5t-28 6v-155q16 0 41.5 -3t44.5 11q-6 -14 -8.5 -26.5t-6.5 -26.5h-139zM1098 362h78q-12 -29 2 -65.5t26 -60.5q12 29 22.5 62.5t0.5 63.5h80q-23 -12 -27 -38.5t-10 -47.5q-6 -20 -23.5 -47.5t-17.5 -48.5q0 -23 -3 -56.5t13 -51.5h-76q18 18 14.5 53.5t-3.5 58.5 q-12 23 -21.5 46.5t-17.5 45.5q-10 23 -14.5 46.5t-22.5 39.5zM1133 662q20 0 45.5 2t27.5 32q0 16 -7 23.5t-18.5 10.5t-24.5 3h-23v-71zM1192 -133h53v-223h-53v223zM1245 1092q-4 -10 1 -27.5t22 -3.5q12 12 21 33t11 39q-2 8 -4 13t-12 1q-16 -8 -25.5 -23.5 t-13.5 -31.5zM1274 -328q0 14 9 22.5t21.5 8.5t21.5 -8t9 -23q0 -16 -9 -23t-21.5 -7t-21.5 7t-9 23zM1294 813q-8 -6 4 -8q27 -10 57.5 -13.5t62.5 -3.5h62.5t59.5 -2t57.5 -5t57.5 -13q29 -8 51.5 -23.5t48.5 -27.5q0 61 -21.5 106t-80.5 68q35 31 69.5 58.5t75.5 43.5 q-49 47 -110.5 77t-126.5 46q-2 -57 -3.5 -112.5t-5.5 -112.5l-2 2v-6q-27 -2 -64.5 -4t-74.5 -9.5t-68.5 -21.5t-48.5 -39zM1364 -133h57l68 -152q-4 39 -4 77v75h47v-223h-51q-20 39 -37 78.5t-35 76.5q2 -39 2 -77.5v-77.5h-47v223zM1393 1157q16 20 31.5 40t19.5 46h-2 q-37 -37 -49 -86zM1562.5 -268q-8.5 37 14.5 80q12 29 40 43t62 14h10.5t17.5 -2t16.5 -4t7.5 -4l-9 -41q-27 12 -48 8t-36.5 -18.5t-20.5 -37t3 -46.5q16 -47 61 -41q10 2 8.5 21.5t-1.5 27.5h-27v41h76v-121q-41 -16 -79 -9t-62.5 29.5t-33 59.5z" />
<glyph unicode="6" d="M35 813q70 37 137.5 67.5t144.5 53.5q4 0 8.5 20.5t8.5 45t8 48t8 31.5q23 35 68 53.5t78 34.5q88 35 179 61.5t183 51.5q94 23 188.5 39t190.5 24q33 4 80 8.5t95 3.5t92 -12.5t71 -37.5q2 -4 -2 -29t-6 -33l-6 -98q0 -4 4 -4q78 -23 152.5 -58.5t123.5 -105.5 q-16 4 -36.5 -3t-41 -20.5t-38 -28t-27.5 -26.5q31 -16 50 -47t27.5 -66.5t6.5 -72.5t-13 -68q-16 43 -49.5 66.5t-74.5 35t-85 14.5t-83 5q-45 4 -94.5 2t-92.5 14q-16 6 -22 25.5t-7 43t2 46.5t5 37q-184 -14 -363.5 -56t-351.5 -102q-8 -2 -8 -6q2 -10 8 -33.5t10 -50.5 t6 -49.5t-6 -28.5q-23 -18 -58.5 -21t-64.5 -7q-39 -6 -78.5 -12.5t-78.5 -12.5q-35 -8 -67 -17.5t-62 -21.5q-14 -8 -28.5 -13t-29.5 -16q-8 -8 -18 -20t-17 -16q10 35 24.5 67.5t27.5 63.5q2 6 13 25.5t21.5 41t18.5 39t6 21.5q-25 35 -58.5 67.5t-78.5 36.5zM86 -133h47 q4 -41 7 -83t12 -83q4 41 10 83t14 83h37l25 -166q4 41 9 83t9 83h43l-43 -223h-43q-6 37 -11 73.5t-9 73.5q-4 -37 -11.5 -73.5t-13.5 -73.5h-43zM90 819q68 -37 109 -108q2 -2 -4.5 -15.5t-14.5 -29t-15 -28.5t-9 -20q-25 -45 -41 -94q51 27 104 39t108.5 20.5t110 15.5 t107.5 24q-18 18 -47 25t-62 8t-65.5 -2t-55.5 -5v131t4 131q-59 -16 -116.5 -39.5t-112.5 -52.5zM305 -133h45q4 -41 8 -83t11 -83q4 41 10 83t14 83h39l23 -166q4 41 9 83t9 83h43l-43 -223h-41q-8 37 -13 73.5t-9 73.5q-4 -37 -10.5 -73.5t-12.5 -73.5h-45zM342 709 q8 0 22.5 6t29 15t27.5 18.5t23 13.5q37 16 75 29.5t77 27.5q78 23 155.5 43.5t159.5 38.5q78 16 155 31.5t157 21.5q72 8 154.5 11.5t152.5 -29.5q6 55 6 112.5t4 110.5q0 29 2 57.5t6 57.5q2 14 -6 22.5t-20.5 13.5t-26.5 7t-27 4q-119 18 -245.5 1t-245.5 -42 q-129 -27 -255 -60.5t-249 -86.5q-23 -12 -46.5 -24.5t-43.5 -29.5q-20 -16 -24.5 -49t-8.5 -55q-8 -66 -8 -132.5v-133.5zM367 825q0 23 15 38.5t36 19.5q6 2 15 -2t5 -15q-12 -8 -22 -8q-12 -4 -16.5 -16.5t1.5 -22.5q4 -4 8.5 -5t8.5 -3q20 -2 33.5 11.5t22.5 34t13.5 41 t8.5 34.5q-27 -27 -62 -35q-27 -4 -43 12q-16 8 -16 37q0 27 12 51q27 61 86 99q12 6 25.5 12t27.5 10q10 4 21.5 12.5t21.5 10.5q12 -1 6 -13q12 0 21 -2q16 -2 27.5 -15t13.5 -32q6 -43 -23.5 -83t-66.5 -62q-18 -12 -27.5 -31.5t-18.5 -39t-20.5 -38t-34.5 -28.5 q-23 -16 -53 -11q-12 4 -20 14.5t-6 24.5zM405.5 937q2.5 -15 22.5 -15q31 0 49.5 19.5t30.5 47t18.5 58.5t10.5 51q-29 -6 -52.5 -23.5t-44.5 -38.5q-6 -6 -15 -25.5t-15.5 -39t-4 -34.5zM522 -133h45q4 -41 9.5 -83t9.5 -83q4 41 10 83t14 83h39l25 -166q2 41 7 83t11 83 h41l-41 -223h-43q-8 37 -12 73.5t-10 73.5q-4 -37 -10.5 -73.5t-12.5 -73.5h-43zM530 950q14 4 29.5 19.5t26 35t14.5 40t0 34.5q-6 23 -33 23q-14 -37 -20.5 -75t-16.5 -77zM582 138q2 34 2 61q0 20 -1 38.5t1 38.5q0 49 26.5 67.5t73.5 18.5q37 0 54.5 -20t23.5 -50 t4 -63.5t-2 -60.5v-80q0 -47 -26.5 -66.5t-71.5 -17.5q-39 0 -56.5 20.5t-23.5 50t-4 63.5zM628 952.5q-5 20.5 6 46t31.5 46t43.5 22.5q12 0 16 -10q8 -12 2 -29q-6 -23 -27.5 -40t-44.5 -21q2 -12 10.5 -13.5t17.5 3t17.5 10.5t12.5 10q25 20 36 46t21 52q2 2 -1 9.5 t-8 15.5t-8 17t-1 16q10 27 34 22q12 0 17 -12q4 -10 2 -22.5t-2 -24.5q20 2 28.5 -1t-4.5 -28q-8 -16 -17 -33.5t-11 -36.5q0 -10 6 -10q20 0 34.5 20.5t26 46t22.5 51t25 34.5q8 2 17 -2q2 -4 2 -13q-4 -12 -10.5 -21t-1.5 -24q6 -12 13 -25.5t5 -27.5h2q20 25 32.5 60.5 t45.5 52.5q37 14 49 -21q10 -14 6 -25.5t-2 -27.5q8 2 14 10q16 12 18.5 35t8.5 41q4 4 11 5t12 -1q10 -2 8 -12v-2q10 10 24 16q10 6 17.5 2t11.5 -14q4 -12 1 -22.5t-8 -21.5t-10 -22.5t-3 -23.5q14 12 24 26.5t18.5 29.5t17.5 28.5t26 23.5q20 10 51 0q4 6 17 8.5 t9 -14.5q-4 -18 -14 -38.5t-10 -41.5q0 -14 8 -2q20 20 30.5 48t19.5 55.5t23.5 53t43.5 42.5q14 8 24 -8q12 -23 4 -48.5t-24 -41.5q-14 -18 -43 -44t-25 -53q4 -16 23 -12q14 6 21 19.5t16 25.5q4 2 12 2t8 -10l-4 -12q-16 -39 -53 -54q-25 -14 -43 15q-4 4 -4 10 q-10 -8 -16.5 -15.5t-18.5 -11.5q-10 -4 -16.5 0t-12.5 8q-4 -4 -12 -8t-16 -6q-31 -6 -43 21v2q-8 -10 -17.5 -17.5t-23.5 -11.5q-14 -8 -25 12q-6 12 -3 23.5t8 22t9 21.5t2 23q-18 -8 -25 -19t-11.5 -25.5t-6.5 -29t-8 -28.5q-6 -16 -24 -8q-8 2 -9 10q0 4 1 9t1 7 q-14 -4 -19 -4t-15 -10t-24.5 -18.5t-31.5 -8.5q-10 2 -16 8.5t-10 14.5q-16 -16 -40 -32.5t-50 -12.5q-16 2 -25 18q-25 -29 -51 -36q-29 -12 -33 20q-4 27 8.5 44t22.5 38q2 4 -3 5t-7 -3q-8 -20 -18.5 -44t-26 -45.5t-36 -34.5t-46.5 -11q-31 2 -36 22.5zM638 163 q-1 -38 1 -75q0 -16 9 -26.5t21.5 -14.5t24 1t15.5 24q2 12 2 27.5v29.5v147q0 16 -10.5 27.5t-22.5 16t-23.5 -2t-15.5 -22.5q-2 -14 -1 -29.5t1 -27.5q0 -37 -1 -75zM653 416q12 14 15.5 36.5t2.5 48t-4 49t-3 42.5v125q0 16 1 30.5t-12 28.5h76q-14 -12 -12 -32.5 t2 -36.5v-142q0 -16 -2 -49t10 -47q14 -23 37.5 -8.5t28.5 33.5q8 27 2.5 54t-9.5 54q-4 14 -10 38t-8 48.5t2 46t21 33.5q10 10 31.5 10t29.5 -16q6 -16 -2 -21.5t-18.5 -4.5t-17.5 8.5t1 15.5q-16 -8 -17 -28.5t6 -44t17 -46.5t15 -35q12 -37 17 -87t-22 -85 q-10 -14 -33.5 -19t-50 -5t-53 3t-41.5 3zM655 987q12 -2 28.5 15.5t18.5 27.5q4 8 -2 12.5t-12 -2.5q-10 -10 -18.5 -24.5t-14.5 -28.5zM715 -328q0 14 9 22.5t21.5 8.5t21.5 -8t9 -23q0 -16 -9 -23t-21.5 -7t-21.5 7t-9 23zM776 1124q-2 -8 4 -20h4q0 8 1 13t-1 13 q-6 0 -8 -6zM780 4q10 14 13.5 34.5t2.5 44t-4.5 46.5t-3.5 39v172q0 10 -8 22h58q29 -12 51 -50t35 -66q0 25 2 59.5t-13 56.5h74q-12 -10 -11 -24t1 -29v-246q0 -14 -1 -31.5t11 -27.5h-207zM797 -356l59 223h64l59 -223h-51l-15 51h-53l-10 -51h-53zM844 47 q0 -14 11 -23.5t25.5 -11.5t28 3.5t15.5 19.5q-4 63 -21.5 127.5t-58.5 116.5v-232zM865 506.5q-3 19.5 7 32.5q10 12 33 13t27 -22q0 -10 -7 -15t-15.5 -5t-14.5 4t-6 14q-12 -4 -12 -14t7 -20.5t17 -19.5t17 -11q14 -4 34.5 -4t30.5 10q20 20 16 40.5t-19 38t-35.5 32 t-31.5 24.5q-18 16 -30.5 42t-12.5 52.5t13.5 48t44.5 27.5q27 6 54.5 4t51.5 -2l-6 -10q0 -14 7 -29.5t13.5 -31t5.5 -29.5t-16 -27q-14 -10 -33.5 -9t-21.5 22q0 12 7 17t15.5 5t14.5 -5t4 -13q14 2 14 12t-8 21.5t-18.5 20.5t-18.5 11q-14 4 -32.5 1t-24.5 -19 q-12 -25 -4 -43.5t24.5 -32.5t37 -27.5t32.5 -27.5q14 -20 22.5 -47t4.5 -52.5t-20.5 -44t-47.5 -22.5q-27 -2 -53.5 -1t-54.5 1q8 4 5 19.5t-8.5 33.5t-8.5 37.5zM866 -266h41q-4 23 -9 46t-11 46zM874 1014q4 -12 16.5 -10t14.5 14q2 18 -10 43q-6 -8 -14.5 -22.5 t-6.5 -24.5zM991 1059l4 -15q10 -14 25 -6q16 4 23.5 21.5t3.5 34.5q-2 10 -9.5 16t-21.5 -4q-20 -14 -25 -47zM997 4q12 14 15.5 36.5t2.5 47.5t-4 48.5t-3 39.5v127q0 16 1 29.5t-12 29.5h76q-10 -10 -13 -30.5t-2 -42t3 -43t2 -35.5v-166h104q23 0 55.5 -3t55.5 13 q-4 -8 -7 -29.5t-14 -21.5h-260zM1006 -135q29 4 64.5 6t62.5 -14q31 -23 22.5 -58t-37.5 -49q14 -6 21.5 -19.5t10.5 -28.5t5 -30.5t8 -27.5h-51q-6 12 -8 27.5t-6 28.5t-12.5 22.5t-26.5 7.5v-86h-53v221zM1057 -196.5q2 -24.5 2 -34.5h12q18 0 26.5 10t6.5 22.5 t-11.5 21.5t-27.5 7q-10 -2 -8 -26.5zM1065 416q10 12 11 25.5t1 27.5v248q0 14 -1 30.5t-11 28.5h127q25 -25 25.5 -59.5t-9.5 -67.5q-4 -8 -15 -29.5t-20.5 -45t-11.5 -45t10 -27.5q-6 12 4.5 13t21.5 -4t14 -14.5t-17 -17.5q-25 -10 -35 9.5t-8 35.5q0 16 6 32.5t8 31 t-4 22.5t-28 6v-155q16 0 41.5 -3t44.5 11q-6 -14 -8.5 -26.5t-6.5 -26.5h-139zM1098 362h78q-12 -29 2 -65.5t26 -60.5q12 29 22.5 62.5t0.5 63.5h80q-23 -12 -27 -38.5t-10 -47.5q-6 -20 -23.5 -47.5t-17.5 -48.5q0 -23 -3 -56.5t13 -51.5h-76q18 18 14.5 53.5t-3.5 58.5 q-12 23 -21.5 46.5t-17.5 45.5q-10 23 -14.5 46.5t-22.5 39.5zM1133 662q20 0 45.5 2t27.5 32q0 16 -7 23.5t-18.5 10.5t-24.5 3h-23v-71zM1192 -133h53v-223h-53v223zM1245 1092q-4 -10 1 -27.5t22 -3.5q12 12 21 33t11 39q-2 8 -4 13t-12 1q-16 -8 -25.5 -23.5 t-13.5 -31.5zM1274 -328q0 14 9 22.5t21.5 8.5t21.5 -8t9 -23q0 -16 -9 -23t-21.5 -7t-21.5 7t-9 23zM1294 813q-8 -6 4 -8q27 -10 57.5 -13.5t62.5 -3.5h62.5t59.5 -2t57.5 -5t57.5 -13q29 -8 51.5 -23.5t48.5 -27.5q0 61 -21.5 106t-80.5 68q35 31 69.5 58.5t75.5 43.5 q-49 47 -110.5 77t-126.5 46q-2 -57 -3.5 -112.5t-5.5 -112.5l-2 2v-6q-27 -2 -64.5 -4t-74.5 -9.5t-68.5 -21.5t-48.5 -39zM1364 -133h57l68 -152q-4 39 -4 77v75h47v-223h-51q-20 39 -37 78.5t-35 76.5q2 -39 2 -77.5v-77.5h-47v223zM1393 1157q16 20 31.5 40t19.5 46h-2 q-37 -37 -49 -86zM1562.5 -268q-8.5 37 14.5 80q12 29 40 43t62 14h10.5t17.5 -2t16.5 -4t7.5 -4l-9 -41q-27 12 -48 8t-36.5 -18.5t-20.5 -37t3 -46.5q16 -47 61 -41q10 2 8.5 21.5t-1.5 27.5h-27v41h76v-121q-41 -16 -79 -9t-62.5 29.5t-33 59.5z" />
<glyph unicode="7" d="M35 813q70 37 137.5 67.5t144.5 53.5q4 0 8.5 20.5t8.5 45t8 48t8 31.5q23 35 68 53.5t78 34.5q88 35 179 61.5t183 51.5q94 23 188.5 39t190.5 24q33 4 80 8.5t95 3.5t92 -12.5t71 -37.5q2 -4 -2 -29t-6 -33l-6 -98q0 -4 4 -4q78 -23 152.5 -58.5t123.5 -105.5 q-16 4 -36.5 -3t-41 -20.5t-38 -28t-27.5 -26.5q31 -16 50 -47t27.5 -66.5t6.5 -72.5t-13 -68q-16 43 -49.5 66.5t-74.5 35t-85 14.5t-83 5q-45 4 -94.5 2t-92.5 14q-16 6 -22 25.5t-7 43t2 46.5t5 37q-184 -14 -363.5 -56t-351.5 -102q-8 -2 -8 -6q2 -10 8 -33.5t10 -50.5 t6 -49.5t-6 -28.5q-23 -18 -58.5 -21t-64.5 -7q-39 -6 -78.5 -12.5t-78.5 -12.5q-35 -8 -67 -17.5t-62 -21.5q-14 -8 -28.5 -13t-29.5 -16q-8 -8 -18 -20t-17 -16q10 35 24.5 67.5t27.5 63.5q2 6 13 25.5t21.5 41t18.5 39t6 21.5q-25 35 -58.5 67.5t-78.5 36.5zM86 -133h47 q4 -41 7 -83t12 -83q4 41 10 83t14 83h37l25 -166q4 41 9 83t9 83h43l-43 -223h-43q-6 37 -11 73.5t-9 73.5q-4 -37 -11.5 -73.5t-13.5 -73.5h-43zM90 819q68 -37 109 -108q2 -2 -4.5 -15.5t-14.5 -29t-15 -28.5t-9 -20q-25 -45 -41 -94q51 27 104 39t108.5 20.5t110 15.5 t107.5 24q-18 18 -47 25t-62 8t-65.5 -2t-55.5 -5v131t4 131q-59 -16 -116.5 -39.5t-112.5 -52.5zM305 -133h45q4 -41 8 -83t11 -83q4 41 10 83t14 83h39l23 -166q4 41 9 83t9 83h43l-43 -223h-41q-8 37 -13 73.5t-9 73.5q-4 -37 -10.5 -73.5t-12.5 -73.5h-45zM342 709 q8 0 22.5 6t29 15t27.5 18.5t23 13.5q37 16 75 29.5t77 27.5q78 23 155.5 43.5t159.5 38.5q78 16 155 31.5t157 21.5q72 8 154.5 11.5t152.5 -29.5q6 55 6 112.5t4 110.5q0 29 2 57.5t6 57.5q2 14 -6 22.5t-20.5 13.5t-26.5 7t-27 4q-119 18 -245.5 1t-245.5 -42 q-129 -27 -255 -60.5t-249 -86.5q-23 -12 -46.5 -24.5t-43.5 -29.5q-20 -16 -24.5 -49t-8.5 -55q-8 -66 -8 -132.5v-133.5zM367 825q0 23 15 38.5t36 19.5q6 2 15 -2t5 -15q-12 -8 -22 -8q-12 -4 -16.5 -16.5t1.5 -22.5q4 -4 8.5 -5t8.5 -3q20 -2 33.5 11.5t22.5 34t13.5 41 t8.5 34.5q-27 -27 -62 -35q-27 -4 -43 12q-16 8 -16 37q0 27 12 51q27 61 86 99q12 6 25.5 12t27.5 10q10 4 21.5 12.5t21.5 10.5q12 -1 6 -13q12 0 21 -2q16 -2 27.5 -15t13.5 -32q6 -43 -23.5 -83t-66.5 -62q-18 -12 -27.5 -31.5t-18.5 -39t-20.5 -38t-34.5 -28.5 q-23 -16 -53 -11q-12 4 -20 14.5t-6 24.5zM405.5 937q2.5 -15 22.5 -15q31 0 49.5 19.5t30.5 47t18.5 58.5t10.5 51q-29 -6 -52.5 -23.5t-44.5 -38.5q-6 -6 -15 -25.5t-15.5 -39t-4 -34.5zM522 -133h45q4 -41 9.5 -83t9.5 -83q4 41 10 83t14 83h39l25 -166q2 41 7 83t11 83 h41l-41 -223h-43q-8 37 -12 73.5t-10 73.5q-4 -37 -10.5 -73.5t-12.5 -73.5h-43zM530 950q14 4 29.5 19.5t26 35t14.5 40t0 34.5q-6 23 -33 23q-14 -37 -20.5 -75t-16.5 -77zM582 138q2 34 2 61q0 20 -1 38.5t1 38.5q0 49 26.5 67.5t73.5 18.5q37 0 54.5 -20t23.5 -50 t4 -63.5t-2 -60.5v-80q0 -47 -26.5 -66.5t-71.5 -17.5q-39 0 -56.5 20.5t-23.5 50t-4 63.5zM628 952.5q-5 20.5 6 46t31.5 46t43.5 22.5q12 0 16 -10q8 -12 2 -29q-6 -23 -27.5 -40t-44.5 -21q2 -12 10.5 -13.5t17.5 3t17.5 10.5t12.5 10q25 20 36 46t21 52q2 2 -1 9.5 t-8 15.5t-8 17t-1 16q10 27 34 22q12 0 17 -12q4 -10 2 -22.5t-2 -24.5q20 2 28.5 -1t-4.5 -28q-8 -16 -17 -33.5t-11 -36.5q0 -10 6 -10q20 0 34.5 20.5t26 46t22.5 51t25 34.5q8 2 17 -2q2 -4 2 -13q-4 -12 -10.5 -21t-1.5 -24q6 -12 13 -25.5t5 -27.5h2q20 25 32.5 60.5 t45.5 52.5q37 14 49 -21q10 -14 6 -25.5t-2 -27.5q8 2 14 10q16 12 18.5 35t8.5 41q4 4 11 5t12 -1q10 -2 8 -12v-2q10 10 24 16q10 6 17.5 2t11.5 -14q4 -12 1 -22.5t-8 -21.5t-10 -22.5t-3 -23.5q14 12 24 26.5t18.5 29.5t17.5 28.5t26 23.5q20 10 51 0q4 6 17 8.5 t9 -14.5q-4 -18 -14 -38.5t-10 -41.5q0 -14 8 -2q20 20 30.5 48t19.5 55.5t23.5 53t43.5 42.5q14 8 24 -8q12 -23 4 -48.5t-24 -41.5q-14 -18 -43 -44t-25 -53q4 -16 23 -12q14 6 21 19.5t16 25.5q4 2 12 2t8 -10l-4 -12q-16 -39 -53 -54q-25 -14 -43 15q-4 4 -4 10 q-10 -8 -16.5 -15.5t-18.5 -11.5q-10 -4 -16.5 0t-12.5 8q-4 -4 -12 -8t-16 -6q-31 -6 -43 21v2q-8 -10 -17.5 -17.5t-23.5 -11.5q-14 -8 -25 12q-6 12 -3 23.5t8 22t9 21.5t2 23q-18 -8 -25 -19t-11.5 -25.5t-6.5 -29t-8 -28.5q-6 -16 -24 -8q-8 2 -9 10q0 4 1 9t1 7 q-14 -4 -19 -4t-15 -10t-24.5 -18.5t-31.5 -8.5q-10 2 -16 8.5t-10 14.5q-16 -16 -40 -32.5t-50 -12.5q-16 2 -25 18q-25 -29 -51 -36q-29 -12 -33 20q-4 27 8.5 44t22.5 38q2 4 -3 5t-7 -3q-8 -20 -18.5 -44t-26 -45.5t-36 -34.5t-46.5 -11q-31 2 -36 22.5zM638 163 q-1 -38 1 -75q0 -16 9 -26.5t21.5 -14.5t24 1t15.5 24q2 12 2 27.5v29.5v147q0 16 -10.5 27.5t-22.5 16t-23.5 -2t-15.5 -22.5q-2 -14 -1 -29.5t1 -27.5q0 -37 -1 -75zM653 416q12 14 15.5 36.5t2.5 48t-4 49t-3 42.5v125q0 16 1 30.5t-12 28.5h76q-14 -12 -12 -32.5 t2 -36.5v-142q0 -16 -2 -49t10 -47q14 -23 37.5 -8.5t28.5 33.5q8 27 2.5 54t-9.5 54q-4 14 -10 38t-8 48.5t2 46t21 33.5q10 10 31.5 10t29.5 -16q6 -16 -2 -21.5t-18.5 -4.5t-17.5 8.5t1 15.5q-16 -8 -17 -28.5t6 -44t17 -46.5t15 -35q12 -37 17 -87t-22 -85 q-10 -14 -33.5 -19t-50 -5t-53 3t-41.5 3zM655 987q12 -2 28.5 15.5t18.5 27.5q4 8 -2 12.5t-12 -2.5q-10 -10 -18.5 -24.5t-14.5 -28.5zM715 -328q0 14 9 22.5t21.5 8.5t21.5 -8t9 -23q0 -16 -9 -23t-21.5 -7t-21.5 7t-9 23zM776 1124q-2 -8 4 -20h4q0 8 1 13t-1 13 q-6 0 -8 -6zM780 4q10 14 13.5 34.5t2.5 44t-4.5 46.5t-3.5 39v172q0 10 -8 22h58q29 -12 51 -50t35 -66q0 25 2 59.5t-13 56.5h74q-12 -10 -11 -24t1 -29v-246q0 -14 -1 -31.5t11 -27.5h-207zM797 -356l59 223h64l59 -223h-51l-15 51h-53l-10 -51h-53zM844 47 q0 -14 11 -23.5t25.5 -11.5t28 3.5t15.5 19.5q-4 63 -21.5 127.5t-58.5 116.5v-232zM865 506.5q-3 19.5 7 32.5q10 12 33 13t27 -22q0 -10 -7 -15t-15.5 -5t-14.5 4t-6 14q-12 -4 -12 -14t7 -20.5t17 -19.5t17 -11q14 -4 34.5 -4t30.5 10q20 20 16 40.5t-19 38t-35.5 32 t-31.5 24.5q-18 16 -30.5 42t-12.5 52.5t13.5 48t44.5 27.5q27 6 54.5 4t51.5 -2l-6 -10q0 -14 7 -29.5t13.5 -31t5.5 -29.5t-16 -27q-14 -10 -33.5 -9t-21.5 22q0 12 7 17t15.5 5t14.5 -5t4 -13q14 2 14 12t-8 21.5t-18.5 20.5t-18.5 11q-14 4 -32.5 1t-24.5 -19 q-12 -25 -4 -43.5t24.5 -32.5t37 -27.5t32.5 -27.5q14 -20 22.5 -47t4.5 -52.5t-20.5 -44t-47.5 -22.5q-27 -2 -53.5 -1t-54.5 1q8 4 5 19.5t-8.5 33.5t-8.5 37.5zM866 -266h41q-4 23 -9 46t-11 46zM874 1014q4 -12 16.5 -10t14.5 14q2 18 -10 43q-6 -8 -14.5 -22.5 t-6.5 -24.5zM991 1059l4 -15q10 -14 25 -6q16 4 23.5 21.5t3.5 34.5q-2 10 -9.5 16t-21.5 -4q-20 -14 -25 -47zM997 4q12 14 15.5 36.5t2.5 47.5t-4 48.5t-3 39.5v127q0 16 1 29.5t-12 29.5h76q-10 -10 -13 -30.5t-2 -42t3 -43t2 -35.5v-166h104q23 0 55.5 -3t55.5 13 q-4 -8 -7 -29.5t-14 -21.5h-260zM1006 -135q29 4 64.5 6t62.5 -14q31 -23 22.5 -58t-37.5 -49q14 -6 21.5 -19.5t10.5 -28.5t5 -30.5t8 -27.5h-51q-6 12 -8 27.5t-6 28.5t-12.5 22.5t-26.5 7.5v-86h-53v221zM1057 -196.5q2 -24.5 2 -34.5h12q18 0 26.5 10t6.5 22.5 t-11.5 21.5t-27.5 7q-10 -2 -8 -26.5zM1065 416q10 12 11 25.5t1 27.5v248q0 14 -1 30.5t-11 28.5h127q25 -25 25.5 -59.5t-9.5 -67.5q-4 -8 -15 -29.5t-20.5 -45t-11.5 -45t10 -27.5q-6 12 4.5 13t21.5 -4t14 -14.5t-17 -17.5q-25 -10 -35 9.5t-8 35.5q0 16 6 32.5t8 31 t-4 22.5t-28 6v-155q16 0 41.5 -3t44.5 11q-6 -14 -8.5 -26.5t-6.5 -26.5h-139zM1098 362h78q-12 -29 2 -65.5t26 -60.5q12 29 22.5 62.5t0.5 63.5h80q-23 -12 -27 -38.5t-10 -47.5q-6 -20 -23.5 -47.5t-17.5 -48.5q0 -23 -3 -56.5t13 -51.5h-76q18 18 14.5 53.5t-3.5 58.5 q-12 23 -21.5 46.5t-17.5 45.5q-10 23 -14.5 46.5t-22.5 39.5zM1133 662q20 0 45.5 2t27.5 32q0 16 -7 23.5t-18.5 10.5t-24.5 3h-23v-71zM1192 -133h53v-223h-53v223zM1245 1092q-4 -10 1 -27.5t22 -3.5q12 12 21 33t11 39q-2 8 -4 13t-12 1q-16 -8 -25.5 -23.5 t-13.5 -31.5zM1274 -328q0 14 9 22.5t21.5 8.5t21.5 -8t9 -23q0 -16 -9 -23t-21.5 -7t-21.5 7t-9 23zM1294 813q-8 -6 4 -8q27 -10 57.5 -13.5t62.5 -3.5h62.5t59.5 -2t57.5 -5t57.5 -13q29 -8 51.5 -23.5t48.5 -27.5q0 61 -21.5 106t-80.5 68q35 31 69.5 58.5t75.5 43.5 q-49 47 -110.5 77t-126.5 46q-2 -57 -3.5 -112.5t-5.5 -112.5l-2 2v-6q-27 -2 -64.5 -4t-74.5 -9.5t-68.5 -21.5t-48.5 -39zM1364 -133h57l68 -152q-4 39 -4 77v75h47v-223h-51q-20 39 -37 78.5t-35 76.5q2 -39 2 -77.5v-77.5h-47v223zM1393 1157q16 20 31.5 40t19.5 46h-2 q-37 -37 -49 -86zM1562.5 -268q-8.5 37 14.5 80q12 29 40 43t62 14h10.5t17.5 -2t16.5 -4t7.5 -4l-9 -41q-27 12 -48 8t-36.5 -18.5t-20.5 -37t3 -46.5q16 -47 61 -41q10 2 8.5 21.5t-1.5 27.5h-27v41h76v-121q-41 -16 -79 -9t-62.5 29.5t-33 59.5z" />
<glyph unicode="8" d="M35 813q70 37 137.5 67.5t144.5 53.5q4 0 8.5 20.5t8.5 45t8 48t8 31.5q23 35 68 53.5t78 34.5q88 35 179 61.5t183 51.5q94 23 188.5 39t190.5 24q33 4 80 8.5t95 3.5t92 -12.5t71 -37.5q2 -4 -2 -29t-6 -33l-6 -98q0 -4 4 -4q78 -23 152.5 -58.5t123.5 -105.5 q-16 4 -36.5 -3t-41 -20.5t-38 -28t-27.5 -26.5q31 -16 50 -47t27.5 -66.5t6.5 -72.5t-13 -68q-16 43 -49.5 66.5t-74.5 35t-85 14.5t-83 5q-45 4 -94.5 2t-92.5 14q-16 6 -22 25.5t-7 43t2 46.5t5 37q-184 -14 -363.5 -56t-351.5 -102q-8 -2 -8 -6q2 -10 8 -33.5t10 -50.5 t6 -49.5t-6 -28.5q-23 -18 -58.5 -21t-64.5 -7q-39 -6 -78.5 -12.5t-78.5 -12.5q-35 -8 -67 -17.5t-62 -21.5q-14 -8 -28.5 -13t-29.5 -16q-8 -8 -18 -20t-17 -16q10 35 24.5 67.5t27.5 63.5q2 6 13 25.5t21.5 41t18.5 39t6 21.5q-25 35 -58.5 67.5t-78.5 36.5zM86 -133h47 q4 -41 7 -83t12 -83q4 41 10 83t14 83h37l25 -166q4 41 9 83t9 83h43l-43 -223h-43q-6 37 -11 73.5t-9 73.5q-4 -37 -11.5 -73.5t-13.5 -73.5h-43zM90 819q68 -37 109 -108q2 -2 -4.5 -15.5t-14.5 -29t-15 -28.5t-9 -20q-25 -45 -41 -94q51 27 104 39t108.5 20.5t110 15.5 t107.5 24q-18 18 -47 25t-62 8t-65.5 -2t-55.5 -5v131t4 131q-59 -16 -116.5 -39.5t-112.5 -52.5zM305 -133h45q4 -41 8 -83t11 -83q4 41 10 83t14 83h39l23 -166q4 41 9 83t9 83h43l-43 -223h-41q-8 37 -13 73.5t-9 73.5q-4 -37 -10.5 -73.5t-12.5 -73.5h-45zM342 709 q8 0 22.5 6t29 15t27.5 18.5t23 13.5q37 16 75 29.5t77 27.5q78 23 155.5 43.5t159.5 38.5q78 16 155 31.5t157 21.5q72 8 154.5 11.5t152.5 -29.5q6 55 6 112.5t4 110.5q0 29 2 57.5t6 57.5q2 14 -6 22.5t-20.5 13.5t-26.5 7t-27 4q-119 18 -245.5 1t-245.5 -42 q-129 -27 -255 -60.5t-249 -86.5q-23 -12 -46.5 -24.5t-43.5 -29.5q-20 -16 -24.5 -49t-8.5 -55q-8 -66 -8 -132.5v-133.5zM367 825q0 23 15 38.5t36 19.5q6 2 15 -2t5 -15q-12 -8 -22 -8q-12 -4 -16.5 -16.5t1.5 -22.5q4 -4 8.5 -5t8.5 -3q20 -2 33.5 11.5t22.5 34t13.5 41 t8.5 34.5q-27 -27 -62 -35q-27 -4 -43 12q-16 8 -16 37q0 27 12 51q27 61 86 99q12 6 25.5 12t27.5 10q10 4 21.5 12.5t21.5 10.5q12 -1 6 -13q12 0 21 -2q16 -2 27.5 -15t13.5 -32q6 -43 -23.5 -83t-66.5 -62q-18 -12 -27.5 -31.5t-18.5 -39t-20.5 -38t-34.5 -28.5 q-23 -16 -53 -11q-12 4 -20 14.5t-6 24.5zM405.5 937q2.5 -15 22.5 -15q31 0 49.5 19.5t30.5 47t18.5 58.5t10.5 51q-29 -6 -52.5 -23.5t-44.5 -38.5q-6 -6 -15 -25.5t-15.5 -39t-4 -34.5zM522 -133h45q4 -41 9.5 -83t9.5 -83q4 41 10 83t14 83h39l25 -166q2 41 7 83t11 83 h41l-41 -223h-43q-8 37 -12 73.5t-10 73.5q-4 -37 -10.5 -73.5t-12.5 -73.5h-43zM530 950q14 4 29.5 19.5t26 35t14.5 40t0 34.5q-6 23 -33 23q-14 -37 -20.5 -75t-16.5 -77zM582 138q2 34 2 61q0 20 -1 38.5t1 38.5q0 49 26.5 67.5t73.5 18.5q37 0 54.5 -20t23.5 -50 t4 -63.5t-2 -60.5v-80q0 -47 -26.5 -66.5t-71.5 -17.5q-39 0 -56.5 20.5t-23.5 50t-4 63.5zM628 952.5q-5 20.5 6 46t31.5 46t43.5 22.5q12 0 16 -10q8 -12 2 -29q-6 -23 -27.5 -40t-44.5 -21q2 -12 10.5 -13.5t17.5 3t17.5 10.5t12.5 10q25 20 36 46t21 52q2 2 -1 9.5 t-8 15.5t-8 17t-1 16q10 27 34 22q12 0 17 -12q4 -10 2 -22.5t-2 -24.5q20 2 28.5 -1t-4.5 -28q-8 -16 -17 -33.5t-11 -36.5q0 -10 6 -10q20 0 34.5 20.5t26 46t22.5 51t25 34.5q8 2 17 -2q2 -4 2 -13q-4 -12 -10.5 -21t-1.5 -24q6 -12 13 -25.5t5 -27.5h2q20 25 32.5 60.5 t45.5 52.5q37 14 49 -21q10 -14 6 -25.5t-2 -27.5q8 2 14 10q16 12 18.5 35t8.5 41q4 4 11 5t12 -1q10 -2 8 -12v-2q10 10 24 16q10 6 17.5 2t11.5 -14q4 -12 1 -22.5t-8 -21.5t-10 -22.5t-3 -23.5q14 12 24 26.5t18.5 29.5t17.5 28.5t26 23.5q20 10 51 0q4 6 17 8.5 t9 -14.5q-4 -18 -14 -38.5t-10 -41.5q0 -14 8 -2q20 20 30.5 48t19.5 55.5t23.5 53t43.5 42.5q14 8 24 -8q12 -23 4 -48.5t-24 -41.5q-14 -18 -43 -44t-25 -53q4 -16 23 -12q14 6 21 19.5t16 25.5q4 2 12 2t8 -10l-4 -12q-16 -39 -53 -54q-25 -14 -43 15q-4 4 -4 10 q-10 -8 -16.5 -15.5t-18.5 -11.5q-10 -4 -16.5 0t-12.5 8q-4 -4 -12 -8t-16 -6q-31 -6 -43 21v2q-8 -10 -17.5 -17.5t-23.5 -11.5q-14 -8 -25 12q-6 12 -3 23.5t8 22t9 21.5t2 23q-18 -8 -25 -19t-11.5 -25.5t-6.5 -29t-8 -28.5q-6 -16 -24 -8q-8 2 -9 10q0 4 1 9t1 7 q-14 -4 -19 -4t-15 -10t-24.5 -18.5t-31.5 -8.5q-10 2 -16 8.5t-10 14.5q-16 -16 -40 -32.5t-50 -12.5q-16 2 -25 18q-25 -29 -51 -36q-29 -12 -33 20q-4 27 8.5 44t22.5 38q2 4 -3 5t-7 -3q-8 -20 -18.5 -44t-26 -45.5t-36 -34.5t-46.5 -11q-31 2 -36 22.5zM638 163 q-1 -38 1 -75q0 -16 9 -26.5t21.5 -14.5t24 1t15.5 24q2 12 2 27.5v29.5v147q0 16 -10.5 27.5t-22.5 16t-23.5 -2t-15.5 -22.5q-2 -14 -1 -29.5t1 -27.5q0 -37 -1 -75zM653 416q12 14 15.5 36.5t2.5 48t-4 49t-3 42.5v125q0 16 1 30.5t-12 28.5h76q-14 -12 -12 -32.5 t2 -36.5v-142q0 -16 -2 -49t10 -47q14 -23 37.5 -8.5t28.5 33.5q8 27 2.5 54t-9.5 54q-4 14 -10 38t-8 48.5t2 46t21 33.5q10 10 31.5 10t29.5 -16q6 -16 -2 -21.5t-18.5 -4.5t-17.5 8.5t1 15.5q-16 -8 -17 -28.5t6 -44t17 -46.5t15 -35q12 -37 17 -87t-22 -85 q-10 -14 -33.5 -19t-50 -5t-53 3t-41.5 3zM655 987q12 -2 28.5 15.5t18.5 27.5q4 8 -2 12.5t-12 -2.5q-10 -10 -18.5 -24.5t-14.5 -28.5zM715 -328q0 14 9 22.5t21.5 8.5t21.5 -8t9 -23q0 -16 -9 -23t-21.5 -7t-21.5 7t-9 23zM776 1124q-2 -8 4 -20h4q0 8 1 13t-1 13 q-6 0 -8 -6zM780 4q10 14 13.5 34.5t2.5 44t-4.5 46.5t-3.5 39v172q0 10 -8 22h58q29 -12 51 -50t35 -66q0 25 2 59.5t-13 56.5h74q-12 -10 -11 -24t1 -29v-246q0 -14 -1 -31.5t11 -27.5h-207zM797 -356l59 223h64l59 -223h-51l-15 51h-53l-10 -51h-53zM844 47 q0 -14 11 -23.5t25.5 -11.5t28 3.5t15.5 19.5q-4 63 -21.5 127.5t-58.5 116.5v-232zM865 506.5q-3 19.5 7 32.5q10 12 33 13t27 -22q0 -10 -7 -15t-15.5 -5t-14.5 4t-6 14q-12 -4 -12 -14t7 -20.5t17 -19.5t17 -11q14 -4 34.5 -4t30.5 10q20 20 16 40.5t-19 38t-35.5 32 t-31.5 24.5q-18 16 -30.5 42t-12.5 52.5t13.5 48t44.5 27.5q27 6 54.5 4t51.5 -2l-6 -10q0 -14 7 -29.5t13.5 -31t5.5 -29.5t-16 -27q-14 -10 -33.5 -9t-21.5 22q0 12 7 17t15.5 5t14.5 -5t4 -13q14 2 14 12t-8 21.5t-18.5 20.5t-18.5 11q-14 4 -32.5 1t-24.5 -19 q-12 -25 -4 -43.5t24.5 -32.5t37 -27.5t32.5 -27.5q14 -20 22.5 -47t4.5 -52.5t-20.5 -44t-47.5 -22.5q-27 -2 -53.5 -1t-54.5 1q8 4 5 19.5t-8.5 33.5t-8.5 37.5zM866 -266h41q-4 23 -9 46t-11 46zM874 1014q4 -12 16.5 -10t14.5 14q2 18 -10 43q-6 -8 -14.5 -22.5 t-6.5 -24.5zM991 1059l4 -15q10 -14 25 -6q16 4 23.5 21.5t3.5 34.5q-2 10 -9.5 16t-21.5 -4q-20 -14 -25 -47zM997 4q12 14 15.5 36.5t2.5 47.5t-4 48.5t-3 39.5v127q0 16 1 29.5t-12 29.5h76q-10 -10 -13 -30.5t-2 -42t3 -43t2 -35.5v-166h104q23 0 55.5 -3t55.5 13 q-4 -8 -7 -29.5t-14 -21.5h-260zM1006 -135q29 4 64.5 6t62.5 -14q31 -23 22.5 -58t-37.5 -49q14 -6 21.5 -19.5t10.5 -28.5t5 -30.5t8 -27.5h-51q-6 12 -8 27.5t-6 28.5t-12.5 22.5t-26.5 7.5v-86h-53v221zM1057 -196.5q2 -24.5 2 -34.5h12q18 0 26.5 10t6.5 22.5 t-11.5 21.5t-27.5 7q-10 -2 -8 -26.5zM1065 416q10 12 11 25.5t1 27.5v248q0 14 -1 30.5t-11 28.5h127q25 -25 25.5 -59.5t-9.5 -67.5q-4 -8 -15 -29.5t-20.5 -45t-11.5 -45t10 -27.5q-6 12 4.5 13t21.5 -4t14 -14.5t-17 -17.5q-25 -10 -35 9.5t-8 35.5q0 16 6 32.5t8 31 t-4 22.5t-28 6v-155q16 0 41.5 -3t44.5 11q-6 -14 -8.5 -26.5t-6.5 -26.5h-139zM1098 362h78q-12 -29 2 -65.5t26 -60.5q12 29 22.5 62.5t0.5 63.5h80q-23 -12 -27 -38.5t-10 -47.5q-6 -20 -23.5 -47.5t-17.5 -48.5q0 -23 -3 -56.5t13 -51.5h-76q18 18 14.5 53.5t-3.5 58.5 q-12 23 -21.5 46.5t-17.5 45.5q-10 23 -14.5 46.5t-22.5 39.5zM1133 662q20 0 45.5 2t27.5 32q0 16 -7 23.5t-18.5 10.5t-24.5 3h-23v-71zM1192 -133h53v-223h-53v223zM1245 1092q-4 -10 1 -27.5t22 -3.5q12 12 21 33t11 39q-2 8 -4 13t-12 1q-16 -8 -25.5 -23.5 t-13.5 -31.5zM1274 -328q0 14 9 22.5t21.5 8.5t21.5 -8t9 -23q0 -16 -9 -23t-21.5 -7t-21.5 7t-9 23zM1294 813q-8 -6 4 -8q27 -10 57.5 -13.5t62.5 -3.5h62.5t59.5 -2t57.5 -5t57.5 -13q29 -8 51.5 -23.5t48.5 -27.5q0 61 -21.5 106t-80.5 68q35 31 69.5 58.5t75.5 43.5 q-49 47 -110.5 77t-126.5 46q-2 -57 -3.5 -112.5t-5.5 -112.5l-2 2v-6q-27 -2 -64.5 -4t-74.5 -9.5t-68.5 -21.5t-48.5 -39zM1364 -133h57l68 -152q-4 39 -4 77v75h47v-223h-51q-20 39 -37 78.5t-35 76.5q2 -39 2 -77.5v-77.5h-47v223zM1393 1157q16 20 31.5 40t19.5 46h-2 q-37 -37 -49 -86zM1562.5 -268q-8.5 37 14.5 80q12 29 40 43t62 14h10.5t17.5 -2t16.5 -4t7.5 -4l-9 -41q-27 12 -48 8t-36.5 -18.5t-20.5 -37t3 -46.5q16 -47 61 -41q10 2 8.5 21.5t-1.5 27.5h-27v41h76v-121q-41 -16 -79 -9t-62.5 29.5t-33 59.5z" />
<glyph unicode="9" d="M35 813q70 37 137.5 67.5t144.5 53.5q4 0 8.5 20.5t8.5 45t8 48t8 31.5q23 35 68 53.5t78 34.5q88 35 179 61.5t183 51.5q94 23 188.5 39t190.5 24q33 4 80 8.5t95 3.5t92 -12.5t71 -37.5q2 -4 -2 -29t-6 -33l-6 -98q0 -4 4 -4q78 -23 152.5 -58.5t123.5 -105.5 q-16 4 -36.5 -3t-41 -20.5t-38 -28t-27.5 -26.5q31 -16 50 -47t27.5 -66.5t6.5 -72.5t-13 -68q-16 43 -49.5 66.5t-74.5 35t-85 14.5t-83 5q-45 4 -94.5 2t-92.5 14q-16 6 -22 25.5t-7 43t2 46.5t5 37q-184 -14 -363.5 -56t-351.5 -102q-8 -2 -8 -6q2 -10 8 -33.5t10 -50.5 t6 -49.5t-6 -28.5q-23 -18 -58.5 -21t-64.5 -7q-39 -6 -78.5 -12.5t-78.5 -12.5q-35 -8 -67 -17.5t-62 -21.5q-14 -8 -28.5 -13t-29.5 -16q-8 -8 -18 -20t-17 -16q10 35 24.5 67.5t27.5 63.5q2 6 13 25.5t21.5 41t18.5 39t6 21.5q-25 35 -58.5 67.5t-78.5 36.5zM86 -133h47 q4 -41 7 -83t12 -83q4 41 10 83t14 83h37l25 -166q4 41 9 83t9 83h43l-43 -223h-43q-6 37 -11 73.5t-9 73.5q-4 -37 -11.5 -73.5t-13.5 -73.5h-43zM90 819q68 -37 109 -108q2 -2 -4.5 -15.5t-14.5 -29t-15 -28.5t-9 -20q-25 -45 -41 -94q51 27 104 39t108.5 20.5t110 15.5 t107.5 24q-18 18 -47 25t-62 8t-65.5 -2t-55.5 -5v131t4 131q-59 -16 -116.5 -39.5t-112.5 -52.5zM305 -133h45q4 -41 8 -83t11 -83q4 41 10 83t14 83h39l23 -166q4 41 9 83t9 83h43l-43 -223h-41q-8 37 -13 73.5t-9 73.5q-4 -37 -10.5 -73.5t-12.5 -73.5h-45zM342 709 q8 0 22.5 6t29 15t27.5 18.5t23 13.5q37 16 75 29.5t77 27.5q78 23 155.5 43.5t159.5 38.5q78 16 155 31.5t157 21.5q72 8 154.5 11.5t152.5 -29.5q6 55 6 112.5t4 110.5q0 29 2 57.5t6 57.5q2 14 -6 22.5t-20.5 13.5t-26.5 7t-27 4q-119 18 -245.5 1t-245.5 -42 q-129 -27 -255 -60.5t-249 -86.5q-23 -12 -46.5 -24.5t-43.5 -29.5q-20 -16 -24.5 -49t-8.5 -55q-8 -66 -8 -132.5v-133.5zM367 825q0 23 15 38.5t36 19.5q6 2 15 -2t5 -15q-12 -8 -22 -8q-12 -4 -16.5 -16.5t1.5 -22.5q4 -4 8.5 -5t8.5 -3q20 -2 33.5 11.5t22.5 34t13.5 41 t8.5 34.5q-27 -27 -62 -35q-27 -4 -43 12q-16 8 -16 37q0 27 12 51q27 61 86 99q12 6 25.5 12t27.5 10q10 4 21.5 12.5t21.5 10.5q12 -1 6 -13q12 0 21 -2q16 -2 27.5 -15t13.5 -32q6 -43 -23.5 -83t-66.5 -62q-18 -12 -27.5 -31.5t-18.5 -39t-20.5 -38t-34.5 -28.5 q-23 -16 -53 -11q-12 4 -20 14.5t-6 24.5zM405.5 937q2.5 -15 22.5 -15q31 0 49.5 19.5t30.5 47t18.5 58.5t10.5 51q-29 -6 -52.5 -23.5t-44.5 -38.5q-6 -6 -15 -25.5t-15.5 -39t-4 -34.5zM522 -133h45q4 -41 9.5 -83t9.5 -83q4 41 10 83t14 83h39l25 -166q2 41 7 83t11 83 h41l-41 -223h-43q-8 37 -12 73.5t-10 73.5q-4 -37 -10.5 -73.5t-12.5 -73.5h-43zM530 950q14 4 29.5 19.5t26 35t14.5 40t0 34.5q-6 23 -33 23q-14 -37 -20.5 -75t-16.5 -77zM582 138q2 34 2 61q0 20 -1 38.5t1 38.5q0 49 26.5 67.5t73.5 18.5q37 0 54.5 -20t23.5 -50 t4 -63.5t-2 -60.5v-80q0 -47 -26.5 -66.5t-71.5 -17.5q-39 0 -56.5 20.5t-23.5 50t-4 63.5zM628 952.5q-5 20.5 6 46t31.5 46t43.5 22.5q12 0 16 -10q8 -12 2 -29q-6 -23 -27.5 -40t-44.5 -21q2 -12 10.5 -13.5t17.5 3t17.5 10.5t12.5 10q25 20 36 46t21 52q2 2 -1 9.5 t-8 15.5t-8 17t-1 16q10 27 34 22q12 0 17 -12q4 -10 2 -22.5t-2 -24.5q20 2 28.5 -1t-4.5 -28q-8 -16 -17 -33.5t-11 -36.5q0 -10 6 -10q20 0 34.5 20.5t26 46t22.5 51t25 34.5q8 2 17 -2q2 -4 2 -13q-4 -12 -10.5 -21t-1.5 -24q6 -12 13 -25.5t5 -27.5h2q20 25 32.5 60.5 t45.5 52.5q37 14 49 -21q10 -14 6 -25.5t-2 -27.5q8 2 14 10q16 12 18.5 35t8.5 41q4 4 11 5t12 -1q10 -2 8 -12v-2q10 10 24 16q10 6 17.5 2t11.5 -14q4 -12 1 -22.5t-8 -21.5t-10 -22.5t-3 -23.5q14 12 24 26.5t18.5 29.5t17.5 28.5t26 23.5q20 10 51 0q4 6 17 8.5 t9 -14.5q-4 -18 -14 -38.5t-10 -41.5q0 -14 8 -2q20 20 30.5 48t19.5 55.5t23.5 53t43.5 42.5q14 8 24 -8q12 -23 4 -48.5t-24 -41.5q-14 -18 -43 -44t-25 -53q4 -16 23 -12q14 6 21 19.5t16 25.5q4 2 12 2t8 -10l-4 -12q-16 -39 -53 -54q-25 -14 -43 15q-4 4 -4 10 q-10 -8 -16.5 -15.5t-18.5 -11.5q-10 -4 -16.5 0t-12.5 8q-4 -4 -12 -8t-16 -6q-31 -6 -43 21v2q-8 -10 -17.5 -17.5t-23.5 -11.5q-14 -8 -25 12q-6 12 -3 23.5t8 22t9 21.5t2 23q-18 -8 -25 -19t-11.5 -25.5t-6.5 -29t-8 -28.5q-6 -16 -24 -8q-8 2 -9 10q0 4 1 9t1 7 q-14 -4 -19 -4t-15 -10t-24.5 -18.5t-31.5 -8.5q-10 2 -16 8.5t-10 14.5q-16 -16 -40 -32.5t-50 -12.5q-16 2 -25 18q-25 -29 -51 -36q-29 -12 -33 20q-4 27 8.5 44t22.5 38q2 4 -3 5t-7 -3q-8 -20 -18.5 -44t-26 -45.5t-36 -34.5t-46.5 -11q-31 2 -36 22.5zM638 163 q-1 -38 1 -75q0 -16 9 -26.5t21.5 -14.5t24 1t15.5 24q2 12 2 27.5v29.5v147q0 16 -10.5 27.5t-22.5 16t-23.5 -2t-15.5 -22.5q-2 -14 -1 -29.5t1 -27.5q0 -37 -1 -75zM653 416q12 14 15.5 36.5t2.5 48t-4 49t-3 42.5v125q0 16 1 30.5t-12 28.5h76q-14 -12 -12 -32.5 t2 -36.5v-142q0 -16 -2 -49t10 -47q14 -23 37.5 -8.5t28.5 33.5q8 27 2.5 54t-9.5 54q-4 14 -10 38t-8 48.5t2 46t21 33.5q10 10 31.5 10t29.5 -16q6 -16 -2 -21.5t-18.5 -4.5t-17.5 8.5t1 15.5q-16 -8 -17 -28.5t6 -44t17 -46.5t15 -35q12 -37 17 -87t-22 -85 q-10 -14 -33.5 -19t-50 -5t-53 3t-41.5 3zM655 987q12 -2 28.5 15.5t18.5 27.5q4 8 -2 12.5t-12 -2.5q-10 -10 -18.5 -24.5t-14.5 -28.5zM715 -328q0 14 9 22.5t21.5 8.5t21.5 -8t9 -23q0 -16 -9 -23t-21.5 -7t-21.5 7t-9 23zM776 1124q-2 -8 4 -20h4q0 8 1 13t-1 13 q-6 0 -8 -6zM780 4q10 14 13.5 34.5t2.5 44t-4.5 46.5t-3.5 39v172q0 10 -8 22h58q29 -12 51 -50t35 -66q0 25 2 59.5t-13 56.5h74q-12 -10 -11 -24t1 -29v-246q0 -14 -1 -31.5t11 -27.5h-207zM797 -356l59 223h64l59 -223h-51l-15 51h-53l-10 -51h-53zM844 47 q0 -14 11 -23.5t25.5 -11.5t28 3.5t15.5 19.5q-4 63 -21.5 127.5t-58.5 116.5v-232zM865 506.5q-3 19.5 7 32.5q10 12 33 13t27 -22q0 -10 -7 -15t-15.5 -5t-14.5 4t-6 14q-12 -4 -12 -14t7 -20.5t17 -19.5t17 -11q14 -4 34.5 -4t30.5 10q20 20 16 40.5t-19 38t-35.5 32 t-31.5 24.5q-18 16 -30.5 42t-12.5 52.5t13.5 48t44.5 27.5q27 6 54.5 4t51.5 -2l-6 -10q0 -14 7 -29.5t13.5 -31t5.5 -29.5t-16 -27q-14 -10 -33.5 -9t-21.5 22q0 12 7 17t15.5 5t14.5 -5t4 -13q14 2 14 12t-8 21.5t-18.5 20.5t-18.5 11q-14 4 -32.5 1t-24.5 -19 q-12 -25 -4 -43.5t24.5 -32.5t37 -27.5t32.5 -27.5q14 -20 22.5 -47t4.5 -52.5t-20.5 -44t-47.5 -22.5q-27 -2 -53.5 -1t-54.5 1q8 4 5 19.5t-8.5 33.5t-8.5 37.5zM866 -266h41q-4 23 -9 46t-11 46zM874 1014q4 -12 16.5 -10t14.5 14q2 18 -10 43q-6 -8 -14.5 -22.5 t-6.5 -24.5zM991 1059l4 -15q10 -14 25 -6q16 4 23.5 21.5t3.5 34.5q-2 10 -9.5 16t-21.5 -4q-20 -14 -25 -47zM997 4q12 14 15.5 36.5t2.5 47.5t-4 48.5t-3 39.5v127q0 16 1 29.5t-12 29.5h76q-10 -10 -13 -30.5t-2 -42t3 -43t2 -35.5v-166h104q23 0 55.5 -3t55.5 13 q-4 -8 -7 -29.5t-14 -21.5h-260zM1006 -135q29 4 64.5 6t62.5 -14q31 -23 22.5 -58t-37.5 -49q14 -6 21.5 -19.5t10.5 -28.5t5 -30.5t8 -27.5h-51q-6 12 -8 27.5t-6 28.5t-12.5 22.5t-26.5 7.5v-86h-53v221zM1057 -196.5q2 -24.5 2 -34.5h12q18 0 26.5 10t6.5 22.5 t-11.5 21.5t-27.5 7q-10 -2 -8 -26.5zM1065 416q10 12 11 25.5t1 27.5v248q0 14 -1 30.5t-11 28.5h127q25 -25 25.5 -59.5t-9.5 -67.5q-4 -8 -15 -29.5t-20.5 -45t-11.5 -45t10 -27.5q-6 12 4.5 13t21.5 -4t14 -14.5t-17 -17.5q-25 -10 -35 9.5t-8 35.5q0 16 6 32.5t8 31 t-4 22.5t-28 6v-155q16 0 41.5 -3t44.5 11q-6 -14 -8.5 -26.5t-6.5 -26.5h-139zM1098 362h78q-12 -29 2 -65.5t26 -60.5q12 29 22.5 62.5t0.5 63.5h80q-23 -12 -27 -38.5t-10 -47.5q-6 -20 -23.5 -47.5t-17.5 -48.5q0 -23 -3 -56.5t13 -51.5h-76q18 18 14.5 53.5t-3.5 58.5 q-12 23 -21.5 46.5t-17.5 45.5q-10 23 -14.5 46.5t-22.5 39.5zM1133 662q20 0 45.5 2t27.5 32q0 16 -7 23.5t-18.5 10.5t-24.5 3h-23v-71zM1192 -133h53v-223h-53v223zM1245 1092q-4 -10 1 -27.5t22 -3.5q12 12 21 33t11 39q-2 8 -4 13t-12 1q-16 -8 -25.5 -23.5 t-13.5 -31.5zM1274 -328q0 14 9 22.5t21.5 8.5t21.5 -8t9 -23q0 -16 -9 -23t-21.5 -7t-21.5 7t-9 23zM1294 813q-8 -6 4 -8q27 -10 57.5 -13.5t62.5 -3.5h62.5t59.5 -2t57.5 -5t57.5 -13q29 -8 51.5 -23.5t48.5 -27.5q0 61 -21.5 106t-80.5 68q35 31 69.5 58.5t75.5 43.5 q-49 47 -110.5 77t-126.5 46q-2 -57 -3.5 -112.5t-5.5 -112.5l-2 2v-6q-27 -2 -64.5 -4t-74.5 -9.5t-68.5 -21.5t-48.5 -39zM1364 -133h57l68 -152q-4 39 -4 77v75h47v-223h-51q-20 39 -37 78.5t-35 76.5q2 -39 2 -77.5v-77.5h-47v223zM1393 1157q16 20 31.5 40t19.5 46h-2 q-37 -37 -49 -86zM1562.5 -268q-8.5 37 14.5 80q12 29 40 43t62 14h10.5t17.5 -2t16.5 -4t7.5 -4l-9 -41q-27 12 -48 8t-36.5 -18.5t-20.5 -37t3 -46.5q16 -47 61 -41q10 2 8.5 21.5t-1.5 27.5h-27v41h76v-121q-41 -16 -79 -9t-62.5 29.5t-33 59.5z" />
<glyph unicode=":" horiz-adv-x="573" d="M4 68q-10 20 11.5 54t53 66.5t65.5 55t48 20.5q20 -4 35.5 -20.5t20 -40t-2 -49t-24.5 -50.5t-50 -40t-63.5 -20t-58.5 0t-35 24zM201 553q-10 20 0 49t31.5 55.5t49 45t56.5 18.5q23 0 43 -11.5t32.5 -29.5t12.5 -42t-18 -46q-18 -25 -50 -40t-64 -21.5t-58.5 -1 t-34.5 23.5z" />
<glyph unicode=";" horiz-adv-x="573" d="M-100 -121q-14 6 9 44t58 90.5t68 110.5t39 105q6 43 27.5 44t43 -22.5t35 -64.5t0.5 -80q-12 -43 -53 -86t-87 -76.5t-86 -52t-54 -12.5zM201 553q-10 20 0 49t31.5 55.5t49 45t56.5 18.5q23 0 43 -11.5t32.5 -29.5t12.5 -42t-18 -46q-18 -25 -50 -40t-64 -21.5 t-58.5 -1t-34.5 23.5z" />
<glyph unicode="&#x3c;" horiz-adv-x="841" d="M165 417.5q-3 18.5 10 41t38 44t55 29.5q31 8 95.5 37t135 61t131.5 61.5t81 41.5q35 18 44 5t-0.5 -42.5t-34 -66.5t-56.5 -62q-31 -23 -85.5 -44t-107.5 -37.5t-93 -25.5t-42 -9q6 -2 31.5 -12.5t57.5 -23t60.5 -25.5t40.5 -21q18 -18 16.5 -44t-16 -47.5t-35 -31.5 t-38.5 6q-12 10 -48 33.5t-77 48t-79 43t-56 20.5q-25 2 -28 20.5z" />
<glyph unicode="=" horiz-adv-x="966" d="M88 241q-6 9 0 24.5t23.5 35t42.5 31.5q23 12 77 34.5t125.5 42t150.5 31t150 -1.5q23 -4 23 -30.5t-12.5 -55t-34 -49t-39.5 -12.5q-45 18 -114.5 17t-140.5 -12t-132.5 -26.5t-89.5 -27.5q-23 -10 -29 -1zM247 518.5q5 16.5 21 36t41 31.5q23 12 77 32.5t124 39 t148.5 27.5t150.5 -3q23 -4 25 -28.5t-8.5 -52.5t-30 -47t-37.5 -11q-45 18 -115 17t-140.5 -12t-132 -26.5t-89.5 -27.5q-23 -10 -31 -1t-3 25.5z" />
<glyph unicode="&#x3e;" horiz-adv-x="841" d="M138 257q-9 13 0 43t34 66.5t57 61.5q31 20 83.5 40.5t104.5 37t92 27t44 12.5q-8 2 -33.5 11t-56.5 21.5t-58.5 25.5t-37.5 24q-18 18 -16.5 43.5t16 47t35 31t38.5 -5.5q12 -10 48 -33.5t77 -48t79 -43t56 -20.5q25 -2 28 -20.5t-10 -41t-38 -44t-55 -29.5 q-31 -8 -95.5 -37t-135 -60.5t-131.5 -61.5t-81 -42q-35 -18 -44 -5z" />
<glyph unicode="?" horiz-adv-x="1101" d="M27 47q-10 20 0 48t30.5 54.5t49 45t55.5 18.5q23 0 44 -11.5t33.5 -29.5t12.5 -40.5t-19 -47.5q-18 -25 -49.5 -40t-63.5 -21.5t-58.5 0t-34.5 24.5zM227 485.5q2 36.5 31 67.5q35 37 98.5 70.5t138 68.5t153.5 71t145.5 79t112.5 94t57 115q4 33 -20.5 43t-66.5 1.5 t-95.5 -32t-105.5 -56t-98.5 -71.5t-70.5 -78q-23 -35 -44.5 -24.5t-31.5 43t-5 76.5t36 79q29 33 81 63.5t113.5 55.5t126 39t119.5 12q47 -2 90 -38t66.5 -89t21.5 -114.5t-45 -114.5q-47 -57 -111.5 -99t-137 -76t-147.5 -63.5t-141.5 -61.5t-120.5 -71t-85 -92 q-10 -18 -26.5 -5t-28 42t-9.5 65.5z" />
<glyph unicode="@" horiz-adv-x="1226" d="M-98 53q-12 78 15.5 175.5t82.5 199.5t133 203.5t167 188.5t182 154.5t180 100.5q76 29 153.5 19.5t142 -47t108.5 -99t50 -137.5q4 -55 -4 -129t-28.5 -153.5t-53.5 -157.5t-77 -143.5t-98.5 -111t-117.5 -57.5q-31 -6 -58.5 2.5t-47 26.5t-30.5 45t-9 57q2 25 11 55.5 t22.5 61.5t27 57.5t21.5 45.5q-12 -20 -51 -84t-90.5 -132.5t-105.5 -123t-99 -58.5q-33 -4 -65 19.5t-55.5 60.5t-34.5 78t-5 76q8 37 39 96t76 126t99 133.5t108.5 118.5t105.5 83t88 24q14 -2 34.5 -21.5t36 -50t22.5 -68.5t-3 -77q29 -14 49.5 -43.5t5.5 -58.5 q-96 -184 -123.5 -269t3.5 -81q37 4 79.5 59t82.5 137t71 179.5t45 185.5t7 155.5t-44 88.5q-61 37 -144 20.5t-174 -70t-183.5 -135.5t-170 -178t-136 -199.5t-82 -199t-6 -174t88.5 -127.5q45 -31 99.5 -32t106.5 17.5t97.5 48t75.5 60.5q25 27 34 10.5t0 -54.5t-36.5 -84 t-77.5 -77q-57 -35 -143 -31t-169 40t-148.5 101.5t-79.5 153.5zM297 230.5q-16 -48.5 2 -64.5q16 -16 54 5.5t90.5 73.5t115 132t127.5 180q18 45 24 80t-8 41q-25 10 -69.5 -18.5t-95 -80t-100.5 -116t-87 -124.5t-53 -108.5z" />
<glyph unicode="A" horiz-adv-x="1865" d="M28 -38l-2 12q0 20 10 48q13 38 41.5 78.5t67.5 61.5q18 8 74.5 26.5t138.5 40t184.5 44t211.5 40.5q96 92 202.5 190.5t213 195t206 184.5t181 158.5t140 116.5t81.5 61q18 9 42 10q12 0 26 -3q40 -7 74 -28.5t52 -50.5q10 -15 10 -29q0 -13 -8 -26q-6 -8 -34.5 -61.5 t-72.5 -136.5t-96.5 -188.5t-105.5 -216t-100 -220t-82 -203.5q-35 -92 -49 -160q-8 -36 -8 -61q0 -22 6 -35q18 -41 -3.5 -48.5t-57.5 11t-71.5 56.5t-44.5 89q-1 6 -1 12q0 42 33 122q38 93 102 210q-29 3 -72 3q-57 0 -139 -5q-142 -8 -326 -43q-143 -145 -248.5 -271 t-140.5 -210q-8 -19 -22 -19q-5 -1 -9 1q-20 8 -38 36q-16 29 -26 70q-4 17 -5 35q0 24 8 49q6 23 66.5 89t158.5 163q-133 -35 -268 -85t-265 -120q-31 -15 -35 7zM981 346q79 8 149 11q30 1 59 2q39 0 77 -3q25 -2 65.5 -21.5t73.5 -39.5q47 86 100.5 177t105.5 178 t99 165t83 139q35 60 55 96q16 30 17 41q0 2 -1 3t-2 1q-8 0 -42 -24q-40 -27 -104.5 -78t-150.5 -122.5t-182.5 -156.5t-200 -179.5t-201.5 -188.5z" />
<glyph unicode="B" horiz-adv-x="1767" d="M20 283q0 31 20.5 33.5t44.5 -12.5t40 -40.5t10 -52.5q-3 -14 -3 -30.5t3 -36.5q6 -40 26.5 -82t54.5 -77.5t81 -54.5q80 -32 176 -34h21q86 0 178 18q102 20 204.5 57t195.5 85t171 103.5t132.5 110t78.5 104.5q14 29 13 54q0 18 -7 35q-14 33 -48 46t-77 13t-90 -10 t-90 -24.5t-77 -30t-48 -23.5q-23 -14 -38 6t-21 52q-3 15 -3 30q0 18 4 36q7 34 34 48q16 10 74.5 37t134 62.5t160.5 78.5t154.5 85t115 80t45.5 67q-2 49 -50 72q-46 22 -122 24h-18q-70 0 -154 -14q-96 -16 -193.5 -41t-190 -58.5t-162 -68.5t-106.5 -70 q-29 -27 -29 -49q0 -6 3 -12q6 -14 35.5 -11t71.5 16t92.5 33.5t96.5 40t83.5 34t56.5 18.5q27 4 55.5 -4t41.5 -24.5t3 -41t-57 -51.5q-47 -29 -128 -91.5t-164 -137t-153.5 -150.5t-97.5 -131q-10 -20 -35.5 -25.5t-50 3t-40 28t-5.5 47.5q10 27 57.5 80t106.5 111.5 t120.5 111t102.5 76.5q-84 -43 -123 -51q-26 -5 -46 -5q-10 0 -19 1q-14 2 -36 29.5t-41.5 65.5t-31.5 78q-9 30 -9 52q0 7 1 14q2 18 41 50t101.5 69t146.5 74t178 66.5t194 47.5q82 14 161 14q18 0 36 -1q129 -6 207 -46t117 -92.5t45 -104.5q2 -17 2 -32q0 -30 -8 -51 q-14 -37 -49 -72.5t-79 -68.5t-93.5 -61.5t-92.5 -51t-74.5 -37t-44.5 -18.5q9 1 18 1q49 1 89 -19q46 -22 78.5 -56t48.5 -71t16 -64q0 -74 -53 -148.5t-143 -145t-204 -132t-232.5 -106.5t-233.5 -72t-203 -27q-121 0 -214 46.5t-157.5 120t-98.5 166.5t-34 190z" />
<glyph unicode="C" horiz-adv-x="1368" d="M23 129q-1 8 -1 17q0 62 38 150q44 101 126 215t198 231.5t257 218t303 173t334 97.5q65 9 117 9q43 0 77 -6q78 -13 124 -43t64 -70q16 -36 15 -65v-7q-4 -35 -62.5 -85.5t-136 -107.5t-153.5 -118.5t-113 -116.5q-14 -20 -41.5 -11.5t-49 34.5t-31.5 60q-3 10 -2 20 q0 24 16 46q20 29 64 60.5t97.5 63.5t107.5 63.5t94 60.5t58.5 55.5t0.5 48.5q-29 34 -89 34q-13 0 -28 -2q-82 -9 -201 -50q-100 -35 -208.5 -96.5t-215 -140.5t-205 -169t-177 -184t-132.5 -188t-72 -176q-7 -35 -8 -67q0 -44 14 -83q24 -68 101 -113q46 -29 111 -29h2 q66 0 139.5 19t146 50.5t132 67.5t99.5 72.5t48 63.5q10 35 38 31t51.5 -30t32.5 -62q2 -10 2 -20q0 -26 -18 -50q-23 -31 -81 -73t-131.5 -79.5t-154.5 -65.5t-151 -28q-109 0 -205 25.5t-169.5 75t-119.5 119t-52 155.5z" />
<glyph unicode="D" horiz-adv-x="1964" d="M23 154q-1 6 -1 11q0 24 30 28q7 1 15 1q32 0 71 -14q48 -18 92 -50t49 -71q4 -43 37.5 -82.5t87.5 -69.5q54 -31 128 -45q45 -9 95 -8q31 0 63 3q131 12 276.5 82.5t285 175t259 230.5t196.5 251q77 124 101 236q8 35 8 67q0 69 -36 121q-37 54 -120 68q-43 8 -93 7 q-47 -1 -99 -7q-110 -14 -238 -49t-254 -84.5t-242 -106.5t-202 -112.5t-133 -103.5q-37 -38 -37 -65q0 -8 3 -14q8 -21 44 -20q13 -1 27 1q60 8 146 35t185 69t188 83t156 75.5t85 51.5q29 23 50.5 4.5t29.5 -52.5q4 -18 4 -38q0 -17 -3 -35q-7 -39 -38 -57t-84 -60.5 t-115.5 -98.5t-128 -120.5t-122 -128t-96.5 -123t-50 -102.5q-6 -27 -30.5 -24t-48.5 25q-24 23 -40 64q-9 25 -10 53q0 18 4 38q6 33 40 73.5t82 84.5t106.5 90t117 89t109.5 81t86 67q-252 -129 -418 -205t-219 -90q-6 -1 -12 -1q-22 0 -50 16q-36 22 -66 60t-44 89 q-7 26 -7 51.5t7 50.5q10 35 69.5 91.5t154.5 122t218 132t260.5 120.5t282.5 91t283 41h16q110 0 186 -52q82 -56 130 -135t66 -163q14 -63 14 -109q0 -15 -1 -28q-12 -100 -70.5 -214t-151.5 -226.5t-213 -215t-253 -181.5t-272.5 -127t-272.5 -48h-14q-176 0 -297 47 q-125 49 -203 115.5t-114.5 135.5t-44.5 108z" />
<glyph unicode="E" horiz-adv-x="1402" d="M20 668q0 26 25 68q27 46 73 96.5t95 74.5q74 35 188.5 73t248.5 74t279.5 67.5t282 55t254 38t199.5 14.5q47 0 83 -13.5t54 -31.5q13 -13 13 -24q1 -4 -1 -7q-6 -14 -38 -16q-242 -16 -480.5 -60.5t-468.5 -109.5q16 -27 29.5 -58.5t9.5 -60.5q-6 -41 -52 -107.5 t-114 -148.5q57 18 102.5 29.5t71.5 13.5h9q35 1 77 -13q48 -16 78.5 -36.5t32.5 -39t-49 -22.5q-84 -10 -212 -39.5t-265 -70.5q-72 -80 -138.5 -159t-113.5 -146.5t-67 -119.5q-10 -25 -11 -44q0 -21 12 -35q31 -36 94 -37q5 0 9 1q70 3 162 31.5t192 78t190.5 104.5 t161 111.5t101.5 97.5q23 31 41 23q18 -6 23 -38q2 -10 2 -23q0 -25 -7 -58q-10 -49 -47 -103q-20 -31 -73.5 -67.5t-124 -74.5t-153.5 -73t-161 -62.5t-144.5 -46t-107.5 -20.5q-8 -1 -16 -1q-49 1 -93 21q-52 24 -88 66q-36 40 -52 96q-10 35 -11 71q0 22 4 44 q10 51 53 123t107 156q-66 -23 -120 -46.5t-89 -43.5q-33 -18 -43 -11t-4 25t25.5 43t45.5 41q43 29 125 66.5t181 78.5q55 68 110 135.5t102.5 128t82 111.5t49.5 86q-186 -59 -358.5 -130t-325.5 -152q-50 -27 -50 6z" />
<glyph unicode="F" horiz-adv-x="1243" d="M24 67q-2 5 -2 12q0 13 6 29q10 26 33 53t52 38q29 8 112.5 35.5t190.5 60.5q68 94 143.5 198.5t144 201t124 180t85.5 139.5q-201 -53 -388 -128t-328 -173q-29 -18 -36 6q-3 10 -3 23q0 18 6 42q10 41 39.5 86t79.5 68q90 41 203.5 78t239.5 69.5t257 59t254 46 t232.5 30t191.5 10.5q55 0 95 -15.5t58 -33.5q15 -14 15 -25q0 -3 -1 -6q-5 -14 -42 -14q-74 0 -168 -6.5t-201.5 -20.5t-225.5 -35.5t-237 -52.5q16 -10 30 -36q9 -18 9 -48q0 -13 -2 -29q-4 -25 -37.5 -80t-87 -129.5t-120 -165t-134.5 -186.5q76 20 145 33.5t122 17.5h9 q44 -1 86 -19q46 -20 73.5 -45.5t29.5 -47t-41 -19.5q-25 0 -78 -3t-123.5 -12t-154.5 -21.5t-170 -30.5q-78 -115 -137.5 -221.5t-81.5 -190.5q-16 -54 -35 -54q-20 1 -38 33q-16 30 -26 80q-6 30 -6 59q0 18 2 34q2 20 38 77.5t93 139.5q-74 -20 -140 -43t-120 -49 q-29 -14 -35 1z" />
<glyph unicode="G" horiz-adv-x="1601" d="M12 137q16 98 70.5 212t134.5 228.5t177.5 222t198.5 194.5t197.5 147.5t176.5 79.5q61 14 121 14q53 0 106 -11q111 -24 200 -68t145 -97q60 -57 60 -91q0 -15 -21 -18q-22 -2 -51.5 7.5t-58 27t-38.5 37.5q-4 8 -25 36.5t-64 51.5t-111 31q-15 2 -30 2q-60 0 -139 -25 q-80 -25 -169 -82t-179 -135t-176 -171t-157 -191.5t-124 -194.5t-76 -180q-17 -61 -17 -112q0 -20 2 -38q9 -67 62 -104q39 -27 95 -27q11 0 24 1q72 7 150.5 39t156.5 82t139.5 102.5t98.5 99.5t35 74q-2 12 -29 15q-13 2 -29.5 2t-35.5 -2q-39 -3 -84.5 -11.5 t-81.5 -14.5q-23 -4 -42.5 2.5t-29.5 18.5t-7 28.5t25 28.5q14 8 66.5 25.5t123 38t152.5 42t158 38t136 26.5q44 7 70 7q11 0 19 -1q37 -4 75 -30.5t62.5 -55t26.5 -51t-35 -18.5q-32 4 -74 4q-29 0 -62 -2q-83 -4 -163 -13q-94 -8 -194 -22q41 -8 71 -21 q27 -10 48.5 -27.5t17.5 -41.5q-4 -35 -36 -80t-83 -95.5t-115.5 -99.5t-133 -91t-138 -71.5t-129.5 -39.5q-12 -2 -28 -2q-23 0 -52 5q-49 9 -104 29.5t-108.5 53t-94.5 75.5t-64 96q-15 36 -15 75q0 18 3 36z" />
<glyph unicode="H" horiz-adv-x="1845" d="M19 -28q-3 10 -3 23q0 15 4 33q8 34 32 75.5t65 66.5q14 8 59 26.5t114.5 41t159 46t191.5 46.5q59 72 112.5 137t96.5 117q49 59 94 112q-6 12 -12 27q-4 10 -7 24.5t1 24.5q6 16 51 65.5t101.5 105.5t109.5 107.5t74 71.5q20 20 40.5 10t33 -34.5t12.5 -56t-19 -52.5 q-10 -10 -55 -67.5t-111.5 -143.5t-149.5 -193.5t-167 -219.5q112 16 222 23q60 4 118 4q51 0 102 -3q27 -2 47.5 -8t36.5 -16q86 119 183.5 249.5t192.5 250.5t179 216.5t144 147.5q10 9 19 9q12 0 21 -16q17 -26 24 -69q4 -27 4 -55q0 -16 -1 -32q-4 -44 -22 -60 q-63 -51 -146.5 -139.5t-174.5 -197t-184 -228t-176 -235.5t-150.5 -217.5t-104.5 -170.5q-18 -31 -35 -21t-27 40t-12 69v13q0 31 8 52q14 33 70.5 120t140.5 206h-27q-140 -1 -274 -19q-147 -20 -285 -53q-66 -86 -124 -165.5t-104 -144.5t-74.5 -109t-35.5 -58 q-13 -32 -35 -32h-4q-24 3 -44 28q-19 24 -28 62q-4 15 -4 29q0 22 9 42q6 12 24.5 38t46 62.5t62.5 82.5t76 98q-180 -57 -301 -112.5t-154 -78.5q-23 -17 -30 5z" />
<glyph unicode="I" horiz-adv-x="1173" d="M25 -131q10 12 51 27.5t99 32t127 31.5t134 30q-16 12 -26.5 31.5t-6.5 46.5q2 18 38 81.5t91.5 150.5t125 189.5t137 200.5t126 182t95.5 136q-86 -35 -140.5 -64t-72.5 -41q-20 -12 -52 -3t-58.5 29.5t-39 44.5t5.5 38t72.5 36.5t127.5 48t155 52.5t154.5 48.5 t129 34.5t74.5 15h5q18 0 44 -12q29 -14 50.5 -32.5t28.5 -34.5q2 -4 2 -8q0 -10 -15 -13q-109 -20 -204 -48t-175 -57q20 -25 30.5 -57.5t-10.5 -52.5q-12 -12 -53 -67.5t-97 -138.5t-123 -183.5t-129 -198.5t-112.5 -187t-76.5 -149l125 25q18 2 44.5 -9.5t44 -26.5 t17.5 -30.5t-33 -21.5q-35 -6 -120 -32t-180 -56.5t-178 -58t-112 -38.5q-13 -4 -25 -4q-15 0 -28 6q-24 12 -40 34q-18 22 -26 44q-5 12 -4 19q0 6 3 10z" />
<glyph unicode="J" horiz-adv-x="1359" d="M25 -121q-3 19 -3 38q0 55 20 117q28 85 75 160.5t105.5 130t109.5 60.5q7 1 14 1q25 0 56 -12q38 -14 66 -34.5t38 -39.5t-17 -26q-41 -10 -88 -41.5t-92 -75.5t-84 -94.5t-63.5 -94.5t-29.5 -75.5t18 -42.5q28 -12 63 -12q69 0 165 49q144 74 312 249t341.5 447 t318.5 634q6 16 17 16q6 0 13 -6q21 -15 40.5 -47.5t29.5 -73.5q6 -23 6 -41q0 -15 -4 -27q-33 -96 -97.5 -220t-150.5 -257t-187.5 -264t-202.5 -239.5t-198.5 -184.5t-175.5 -96q-68 -18 -140 -21h-20q-60 0 -110 12q-59 15 -99 42.5t-46 68.5z" />
<glyph unicode="K" horiz-adv-x="1480" d="M12 -90q4 18 33 70.5t73 125t98 157.5t110.5 170t110.5 162t95 132q-23 29 -37 45t-10 32.5t30 41t81 70t143 120t219 191.5q9 9 23 9q10 0 22 -4q31 -9 56.5 -29.5t37 -44t-13.5 -36.5q-76 -43 -169 -140t-191 -223t-194.5 -268.5t-176.5 -274.5t-136 -240.5t-75 -168.5 q-12 -39 -36.5 -37.5t-46.5 22.5q-22 22 -38 56q-10 22 -11 42q0 10 3 20zM532 390q-1 3 -1 6q0 16 28 24q33 10 146.5 76.5t276.5 175t355.5 251t382.5 304.5q6 5 12 5q10 0 21 -12q19 -18 31 -47.5t14 -61.5v-8q0 -26 -12 -36q-6 -6 -45 -36t-99.5 -73t-138.5 -98 t-160.5 -113.5t-169 -116t-162 -106.5t-139 -87t-102.5 -54q70 -41 136.5 -99.5t125 -126t109.5 -139t92 -139.5q10 -18 -3 -45t-34.5 -50.5t-43.5 -33.5q-8 -4 -15 -4q-10 0 -13 10q-43 88 -104.5 184.5t-126 178.5t-123.5 139t-98 72q-20 -12 -52 -3t-57 26t-31 37z" />
<glyph unicode="L" horiz-adv-x="1251" d="M23 -137q12 39 85.5 80t200.5 53q66 119 136.5 234.5t142 223t141.5 204t135 180.5q-20 16 -20 34q-2 16 40 62.5t99 98.5t115.5 101.5t89.5 73.5q32 23 72 29q19 3 35 3q20 0 38 -4q33 -7 47 -23q6 -7 6 -14q0 -11 -12 -25q-115 -117 -249 -266.5t-263 -309.5 t-239.5 -316.5t-176.5 -287.5q39 -2 96.5 -7t124 -13.5t137 -20.5t133 -27.5t115 -34t81.5 -38.5q35 -25 56 -68t29 -79q6 -36 -4 -54q-5 -8 -13 -9q-11 0 -27 13q-49 37 -138.5 81t-197.5 81q-108 38 -222 60q-97 19 -184 19q-16 0 -31 -1q-10 -16 -23 -38t-29.5 -42.5 t-34 -38t-31.5 -25.5q-20 -9 -52 -9q-10 0 -22 1q-47 4 -92 20t-75 42q-22 19 -22 41q0 8 3 16z" />
<glyph unicode="M" horiz-adv-x="2002" d="M22 -96q-1 6 -1 11q0 28 24 46q18 14 80.5 83t146.5 167t180.5 214t182.5 224.5t150 197.5t87 132q25 47 41.5 86t28.5 70.5t22.5 55t24.5 40.5q7 9 18 9q9 0 20 -7q24 -14 43.5 -43t27.5 -63.5t-6 -55.5q-16 -25 -50 -101.5t-76 -179t-85 -216t-77 -212t-52 -166.5 q-13 -48 -13 -69q0 -9 2 -12q1 -2 5 -2q14 -1 60 31q58 40 149.5 113t208 169t237.5 198.5t237.5 203t211 181.5t154.5 134t71 61q18 16 41.5 5t40 -35.5t20.5 -55.5q1 -6 1 -11q0 -24 -15 -42q-88 -111 -173 -238t-159 -257t-134.5 -256t-100.5 -232q-40 -104 -57 -184 q-10 -47 -10 -80q0 -23 5 -39q8 -23 -18.5 -23t-63.5 16.5t-69.5 46t-39.5 70.5q-1 5 -1 10q0 45 44 137q48 104 127.5 241t180 297.5t200.5 318.5q-41 -35 -129 -117t-200.5 -185.5t-234.5 -215t-229.5 -205.5t-185 -158.5t-102.5 -72.5q-10 -3 -21 -3q-26 0 -48 22 q-32 30 -55 77t-35 99q-8 35 -9 60q0 12 2 21q10 59 43 178t98 293q-20 -35 -76.5 -117t-128 -184t-151.5 -213t-146.5 -202t-112.5 -150.5t-52 -61.5q-8 -4 -31.5 19.5t-42.5 57.5t-25 69z" />
<glyph unicode="N" horiz-adv-x="1714" d="M20 -128q-2 16 -1 31q0 36 10 72q6 20 35.5 66.5t76.5 109t106.5 135t124 146.5t128 144.5t120 127t100.5 94.5t66 48q16 8 33 6t33 -6q23 84 47.5 160.5t50.5 144.5q12 31 39 14.5t50.5 -54.5t35.5 -84q5 -20 5 -37q0 -23 -9 -40q-41 -80 -81 -188.5t-74.5 -228 t-60.5 -237.5t-38 -213q-8 -67 -8 -118q0 -21 1 -41q5 -64 32 -74h1q13 0 58 65q47 69 121 183.5t170 262t204.5 302t226.5 303t237 263.5q9 8 18 8q12 -1 21 -17q16 -28 23 -75q4 -27 4 -56q0 -21 -2 -41q-5 -50 -28 -69q-74 -66 -161.5 -165t-179 -215t-180.5 -236.5 t-164.5 -228t-133 -193.5t-84.5 -129q-20 -34 -56 -50q-30 -14 -63 -13h-12q-39 3 -72.5 24.5t-52.5 62.5q-18 46 -20 142v28q0 85 10 193q12 125 38 267t60 284q-59 -53 -129.5 -135.5t-144.5 -176.5t-146.5 -194.5t-132 -190.5t-102.5 -162.5t-57 -111.5q-14 -34 -31 -34 q-3 0 -5 1q-20 6 -35.5 40t-21.5 86z" />
<glyph unicode="O" horiz-adv-x="1353" d="M28 169q-6 32 -6 62q0 40 11 78q33 115 98.5 222.5t150.5 202.5t180 177t187 146.5t174 109.5t138 68q16 6 32.5 6t32.5 -6q32 -12 54 -34.5t27 -47.5t-15 -33q78 -25 113.5 -88t37.5 -152v-13q-1 -84 -25 -184q-26 -108 -75 -219.5t-115.5 -221t-143.5 -202.5t-159 -163 t-162 -102q-43 -17 -89 -17q-21 0 -43 4q-69 12 -134.5 48t-121.5 93.5t-94.5 125t-52.5 140.5zM147 168q-3 -19 -3 -37q0 -51 22 -97q29 -60 86 -94t137 -34t170 47q53 29 118.5 90t132.5 143t129 177.5t109.5 190.5t73.5 185q24 81 24 146v15q-3 71 -42 115t-125 50 q-66 -35 -147.5 -84t-170 -113.5t-173.5 -141.5t-155.5 -165t-121 -187.5t-64.5 -205.5z" />
<glyph unicode="P" horiz-adv-x="1392" d="M36 -140q-3 21 -3 42q0 23 4 45q4 20 43 75.5t95 127t123 151.5t126 149.5t103 120t57 64.5q-8 -8 -48 -45t-89.5 -78t-95.5 -76t-66 -39q-13 -3 -27 -3q-32 0 -66 16q-50 22 -88 62t-58 91q-11 30 -11 58q0 21 6 41q12 47 61.5 107t121 123.5t163.5 124t191.5 109 t203 78t197.5 29.5q82 0 161 -13.5t140 -48t98 -93t37 -148.5q0 -86 -50 -187.5t-129 -203t-177 -196.5t-194.5 -170t-181.5 -122t-136 -51q-31 -2 -56.5 21.5t-39 53t-13.5 54.5t19 25q49 0 120.5 31.5t153.5 85t167 123t161 146t135 156.5t90 153q27 65 27 119v14 q-4 60 -58 101q-57 43 -138 49q-16 1 -32 1q-67 -1 -142 -19q-93 -22 -192.5 -66t-193.5 -99.5t-175 -116t-137.5 -118t-82.5 -104.5q-15 -28 -15 -49q0 -14 7 -24q12 -19 40 -19q16 0 36 6q58 16 130 56.5t148 97.5t129 113q20 20 51 13t54.5 -28.5t31.5 -50.5t-16 -51 q-57 -53 -124 -134t-132.5 -174.5t-128 -189.5t-112.5 -179t-84 -142.5t-42 -77.5q-15 -33 -32 -33q-3 0 -7 1q-20 7 -35.5 38t-22.5 77z" />
<glyph unicode="Q" horiz-adv-x="1484" d="M35 279q23 4 51.5 -3.5t63.5 -23.5q25 96 77 215t142 244q49 68 117.5 132t144.5 120.5t153.5 104.5t145 84t118 56.5t72.5 24.5q7 1 13 1q23 0 47 -10q30 -14 52.5 -33.5t34 -41t-0.5 -33.5q33 -27 63.5 -71t50 -104t23.5 -136q1 -12 1 -25q0 -66 -18 -143 q-23 -94 -90 -201.5t-161.5 -211t-203 -193.5t-210.5 -146q76 -47 152.5 -87t152.5 -65.5t146 -33.5q24 -3 47 -3q45 0 88 11q25 6 59.5 -17.5t61 -56t34.5 -63.5q2 -7 2 -12q0 -20 -22 -23q-29 -4 -60 -4q-59 0 -124 15q-99 24 -200.5 70t-204.5 107.5t-202 126.5 q-29 -12 -55.5 -21t-50.5 -13q-30 -6 -61 -6q-45 0 -90 13q-75 21 -134 59t-97 87t-38 90q-2 20 1 46t7 59q-12 4 -23.5 4h-21.5q-18 -2 -33.5 14.5t-24.5 37.5q-10 19 -10 36q0 19 15 23zM221 127q-2 -18 -2 -35q0 -50 17 -88q24 -50 81 -70q17 -6 38 -6q16 0 35 4 q44 7 99 27q-78 51 -145.5 95t-122.5 73zM236 205q70 -41 151.5 -99.5t173.5 -117.5q96 43 207 115.5t212 165.5t182 203t122 228q26 73 26 133q0 63 -20 113q-18 47 -50 80t-66 53q-199 -74 -360 -181t-279.5 -227t-194 -242t-104.5 -224z" />
<glyph unicode="R" horiz-adv-x="1390" d="M23 -111q12 37 57 110t103.5 155t120 160.5t108.5 127.5q-59 -46 -116 -46h-7q-60 3 -104 42q-43 38 -65 106q-13 42 -14 89q0 28 5 59q6 45 54 102.5t125 119t176 121t208.5 107.5t223.5 80q114 34 220 40q22 1 43 1q81 1 151 -19q89 -24 152 -91q49 -53 50 -120 q0 -5 -1 -10q-4 -73 -49 -155t-123.5 -166t-175 -161.5t-202 -143t-205.5 -108.5q49 -31 107.5 -83t111.5 -107.5t94 -106.5t53 -82q8 -20 -4 -56t-32 -66q-22 -30 -44 -43q-8 -5 -14 -5q-12 0 -20 16q-33 68 -81 156t-99.5 163t-101.5 121q-38 35 -67 35q-10 0 -18 -4 q-23 -10 -50.5 4.5t-47 37t-21.5 47t29 38.5q41 20 111.5 57.5t155.5 86.5t176 107.5t173 118.5t147 120q64 60 96 116q25 43 25 80q-1 11 -3 22q-10 46 -74 77q-67 32 -153 32q-9 -1 -17 -1q-96 -4 -200.5 -33t-212 -80t-204 -112.5t-176.5 -128t-129 -126.5 q-49 -62 -61 -110q-3 -12 -3 -22q0 -32 27 -50q9 -6 22 -6q22 0 54 18q51 28 111.5 71.5t120 91.5t96.5 75q20 14 37.5 5t25 -29.5t4 -47.5t-23.5 -47q-33 -33 -79 -94.5t-98 -139t-105.5 -165.5t-100.5 -173t-84 -161t-53 -131q-8 -25 -33 -18t-49 29q-24 21 -42 51 q-12 21 -13 39q0 7 2 13z" />
<glyph unicode="S" horiz-adv-x="1511" d="M27 131q-2 17 -2 37q0 34 6 76q10 68 29.5 131t43 110t43.5 54q20 6 41 -11.5t34.5 -44t17 -58.5t-10.5 -54q-49 -86 -69 -169q-11 -46 -10 -88q0 -32 6 -62q16 -68 70.5 -116.5t156.5 -64.5q24 -4 48 -4q75 0 159 36q112 48 223 132t209 190.5t168 208.5q70 100 98 182 q14 39 14 68q0 31 -16 49q-16 17 -56 19q-5 0 -11 1q-37 -1 -83 -9q-54 -10 -114.5 -27t-122 -34t-117 -29.5t-96.5 -12.5q-61 0 -115.5 24.5t-93.5 62.5t-59 80q-17 35 -18 65q0 6 1 12q6 59 70 118.5t146.5 107.5t165.5 81t130 39q13 2 26 1q35 0 67 -10q46 -16 81 -43.5 t56.5 -63.5t21.5 -71q-2 -45 -35.5 -74.5t-56.5 -43.5t-52.5 -9t-53 19t-34.5 31.5t5 27.5q18 12 44 28.5t46.5 35t30.5 35t0 28.5q-14 16 -50 14.5t-83 -17t-101.5 -41t-104.5 -57.5t-93 -67.5t-70 -70.5t-30 -66t26 -55q30 -25 80 -25q19 -1 42 3q81 14 172 45.5t178 66.5 t140 41q5 1 11 1q38 0 80 -24q48 -28 87 -71t65 -94.5t26 -94.5q0 -49 -35 -126.5t-96.5 -166t-146.5 -179.5t-186.5 -166.5t-214 -128t-229.5 -64.5q-34 -3 -65 -3q-88 0 -155 24q-91 34 -151.5 91.5t-91 124t-36.5 115.5z" />
<glyph unicode="T" horiz-adv-x="899" d="M24 798q6 34 20.5 67.5t39.5 47.5q49 31 155.5 66t242.5 70.5t288 69.5t290 60.5t248.5 43.5t166.5 18q20 0 54 -11q35 -10 57 -26q22 -15 21 -29q0 -16 -51 -20q-59 -4 -139 -18.5t-175 -35t-201.5 -47t-217.5 -57.5q23 -20 37 -56t2 -58q-37 -63 -99.5 -154.5 t-135 -196t-148.5 -214t-140.5 -211t-110.5 -186.5t-60 -138q-8 -32 -23 -32q-3 0 -7 1q-20 8 -40 40t-34 75q-13 38 -13 66v8q2 18 46 88.5t111.5 169t149.5 213t161 223t143.5 201t97.5 143.5q-100 -29 -199.5 -60.5t-189.5 -63.5t-170 -62.5t-144 -61.5q-25 -11 -32 11 q-4 13 -4 28q1 13 3 28z" />
<glyph unicode="U" horiz-adv-x="1472" d="M23 0q2 29 51 111t120.5 192.5t156.5 237.5t159 249.5t126 227t60 168.5q2 25 28 22.5t54 -22.5q26 -22 46 -56q13 -23 13 -46q0 -12 -3 -25q-20 -78 -85 -188.5t-147 -233.5t-171 -247t-157 -228q-67 -104 -103 -176q-22 -44 -22 -68q0 -16 9 -24q2 -2 7 -2q20 0 86 42 q81 52 200.5 150t268 233.5t299 289t291 316t242.5 316.5q11 17 24 17q6 0 13 -4q21 -12 36 -37t21 -56q2 -9 2 -18q0 -19 -10 -31q-104 -125 -194 -250t-158.5 -256t-114 -272t-59.5 -301q-2 -20 -23.5 -15.5t-47 23t-46 46.5t-20.5 52q0 25 22.5 88.5t54 137t66.5 143 t60 106.5q-59 -66 -141.5 -151.5t-172.5 -179t-182 -183.5t-173 -163.5t-144.5 -120.5t-94.5 -54q-15 -3 -31 -3q-31 -1 -61 13q-45 20 -81 58q-35 37 -57 83q-17 37 -18 73q0 8 1 16z" />
<glyph unicode="V" horiz-adv-x="1386" d="M27 -3q1 41 31 120q32 84 86.5 191.5t121 228t132 236.5t123 215t93.5 165q12 21 44 23q7 1 13 0l51 -8q32 -10 52 -28t10 -36q-49 -86 -120.5 -204t-150.5 -245t-153.5 -254t-129.5 -233q-54 -104 -78 -178q-13 -38 -13 -63q0 -23 11 -33q5 -5 15 -5q23 1 73 29 q70 40 179 124.5t244.5 210.5t280.5 280.5t293.5 332.5t282.5 367q12 19 24 19q8 0 14 -8q18 -20 30 -62q12 -41 14 -88v-13q0 -37 -13 -55q-74 -115 -192.5 -251t-257 -273t-282.5 -265t-269 -228.5t-218.5 -162t-127.5 -63.5q-9 -1 -18 -1q-42 0 -74 16q-39 20 -66 50.5 t-40 69.5q-15 45 -15 79z" />
<glyph unicode="W" horiz-adv-x="1701" d="M18 -64q-2 16 -1 32q0 33 6 67q8 53 51 142t103.5 193.5t128 214t125.5 203t98 160t44 84.5q6 27 2 47.5t-9 35.5t-8 25.5t3 18.5q8 8 35 -2t53.5 -36.5t44.5 -67.5q14 -31 14 -66q0 -12 -1 -24q-4 -25 -32 -78.5t-73 -124t-100.5 -153.5t-112.5 -167t-110.5 -164.5 t-94.5 -146.5q-42 -66 -64 -113q-19 -40 -19 -57q0 -3 1 -6q2 -8 38 21.5t91.5 83t125 124t139 146t134 150.5t109.5 136q76 156 130.5 264.5t94.5 178t68.5 104.5t50.5 43q23 8 40.5 -11t26.5 -51t9 -71t-10 -67q-8 -20 -23.5 -50t-37 -66t-46 -74t-49.5 -75 q-57 -86 -127 -184q-88 -186 -153 -336q-29 -63 -54.5 -125.5t-44 -113t-26.5 -83t-2 -38.5q11 -11 29 -11q23 0 56 18q60 32 142 105.5t180.5 180t199.5 232.5t198.5 262t178.5 269.5t138 254t80 214.5q6 23 29 23h3q26 -2 56 -21q32 -18 54 -48q19 -25 19 -52q0 -5 -1 -10 q-8 -45 -49 -129t-107 -191.5t-153 -233.5t-186 -253t-204.5 -248t-210 -220t-204 -170t-183.5 -97q-11 -3 -22 -3q-21 0 -41 12q-30 19 -53 51t-38.5 67t-17.5 57v7q-1 19 9 59q12 46 30.5 100.5t41 109t44.5 95.5q-25 -23 -63.5 -70t-84.5 -105.5t-96.5 -120t-96.5 -111.5 t-85 -82.5t-63 -32.5q-25 0 -45.5 22.5t-34 60.5t-17.5 86z" />
<glyph unicode="X" horiz-adv-x="1404" d="M14 -289q166 190 355.5 388t382.5 390q8 123 15 249q6 110 6 206v28q-1 108 -12 186.5t-36 107.5q-14 16 2 28.5t47 14.5h9q27 -1 57 -11q34 -12 57 -43q14 -23 21.5 -81t8.5 -141v-34q0 -69 -3 -148q-4 -99 -11 -204q131 127 256 242t236 208t204 161.5t160 105.5 q13 7 29 7q12 0 26 -4q32 -9 56 -29q23 -18 30 -42q2 -5 2 -10q0 -17 -20 -31q-111 -72 -234.5 -166t-251.5 -201.5t-256 -223t-251 -230.5q-6 -82 -12 -155.5t-11.5 -135t-9.5 -106.5t-4 -66v-11q0 -50 16 -68q18 -18 48 -6t67 48.5t74 85.5q27 37 36 36t4 -25.5 t-21.5 -64.5t-37 -81t-42 -74.5t-39.5 -46.5q-17 -10 -37 -10q-15 0 -33 6q-41 14 -80 47t-66.5 81.5t-29.5 97.5q-1 12 -1 26q0 38 4 92q5 76 13 177q-127 -123 -237.5 -231.5t-191.5 -192.5t-129 -134.5t-50 -56.5q-8 -10 -31.5 -10t-45.5 8t-36 20q-7 7 -8 14q0 6 6 13z " />
<glyph unicode="Y" horiz-adv-x="1193" d="M25 272q4 23 51 93.5t113.5 166t145.5 202t147.5 202.5t116.5 170t56 100q12 41 41 42h3q27 0 55 -18q28 -20 49.5 -50.5t17.5 -51.5q-2 -10 -34.5 -54t-84 -109.5t-116 -145.5t-131 -162t-128 -161.5t-108.5 -143t-71.5 -104.5t-16.5 -49q2 -2 7 -2q15 0 54 23 q52 32 130.5 91.5t177 141.5t203 172t208 180t190.5 169t150.5 139.5t89.5 86.5q33 33 53.5 13.5t27.5 -60.5q4 -21 4 -43t-4 -45q-7 -47 -29 -68q-10 -10 -55.5 -58t-113 -122t-150.5 -169t-170 -199.5t-172 -213t-156.5 -211t-123 -192.5t-69.5 -158q-4 -17 -16 -17 q-4 0 -9 3q-20 8 -41.5 30.5t-39 54.5t-17.5 56q-2 27 39 89.5t105.5 143.5t145.5 174t159.5 184t149.5 171t114 133q-53 -45 -128 -110.5t-158 -137t-167 -141t-154.5 -126t-120.5 -92.5t-67 -36q-25 -2 -54.5 19.5t-54 53.5t-37.5 72q-9 26 -9 50q0 12 2 24z" />
<glyph unicode="Z" horiz-adv-x="1708" d="M25 -158q6 25 30.5 45.5t59.5 39t75.5 32.5t83.5 27q98 27 222 45q156 170 346 352q164 156 387 348.5t491 384.5q-67 -19 -164 -19h-10q-104 1 -206.5 1t-185.5 -15.5t-110 -68.5q-12 -27 -38.5 -15.5t-51 37t-38 57.5t-1.5 46q33 41 99.5 53.5t150.5 13t179.5 -6.5 t187.5 -8h17q83 0 156 9q81 10 136 45q15 10 34 10q15 0 32 -6q39 -14 69 -39q30 -26 42 -54q3 -8 4 -14q0 -17 -23 -24q-16 -6 -71.5 -44t-137.5 -98.5t-183.5 -139t-211 -165.5t-221 -177.5t-212 -175.5t-184.5 -158.5t-137 -126.5q60 8 133 9q15 0 30 -1q91 -2 185 -14.5 t185.5 -29.5t165 -36.5t120.5 -38t56 -28.5q10 -16 17 -54q5 -27 5 -51q0 -11 -1 -21q-3 -32 -19.5 -47.5t-53.5 9.5q-25 16 -84 38.5t-140 46t-176 46t-189.5 38t-179.5 22.5q-46 4 -85 4q-33 0 -61 -3q-25 -25 -60.5 -58.5t-74.5 -65t-77 -56.5t-65 -29q-10 -1 -22 -1 q-22 0 -52 4q-44 8 -86 24t-70 42q-20 18 -20 41q0 9 3 19z" />
<glyph unicode="[" horiz-adv-x="761" d="M25 -70q4 16 28.5 71.5t62.5 136.5t85 179.5t99 201t103.5 201.5t96.5 180t80.5 139.5t56.5 76.5q10 10 25.5 13.5t33.5 3.5q76 0 138.5 -6.5t91.5 -14.5q14 -4 29.5 -21.5t23.5 -37t5 -34.5t-26 -15q-16 0 -43.5 2t-59.5 3t-64.5 2t-63.5 1q-33 -49 -76 -128t-93 -173.5 t-104.5 -197.5t-106.5 -201.5t-101 -186.5t-88 -150q25 0 54.5 3.5t57 6.5t51 6t35.5 7q18 6 24.5 -12.5t1.5 -44t-20.5 -50t-39.5 -28.5q-25 -4 -64 -5t-78 -1h-71.5h-42.5q-16 -4 -34 17.5t-7 55.5z" />
<glyph unicode="\" horiz-adv-x="841" d="M154 1059.5q18 15.5 53 24t71.5 7.5t53.5 -16q20 -18 37.5 -79.5t32 -149.5t26.5 -195.5t21.5 -219.5t16.5 -219.5t12 -195.5t8.5 -149.5t5.5 -79.5q2 -27 -6.5 -44t-19.5 -24.5t-23.5 -1t-18.5 26.5t-17.5 82.5t-24.5 152t-29.5 197t-35 219t-39 218t-41 193.5 t-41 146.5t-40.5 75.5t-2 31.5z" />
<glyph unicode="]" horiz-adv-x="798" d="M-202 -33.5q3 15.5 26 15.5q35 0 102.5 -5.5t126.5 -3.5q33 49 77 127t94 172.5t103.5 197.5t105.5 202.5t101.5 186.5t90.5 151q-27 0 -56.5 -3t-57.5 -6.5t-50.5 -7.5t-34.5 -6q-18 -6 -24.5 12.5t-1 44t20.5 50t40 28.5q23 4 61.5 5t78.5 1h72h42q18 4 34.5 -17 t8.5 -56q-4 -16 -28.5 -71.5t-62.5 -136.5t-85 -179.5t-99.5 -200.5t-103.5 -201.5t-96 -180.5t-81 -139.5t-57 -76.5q-10 -10 -28.5 -14.5t-36.5 -1.5q-74 0 -134.5 6t-88.5 14q-14 4 -29.5 21.5t-24 37t-5.5 35z" />
<glyph unicode="^" horiz-adv-x="540" d="M207 859.5q0 13.5 14 19.5q23 8 67 35.5t93 60.5t94 65.5t70 53.5q25 20 56.5 27t58 3t39 -17t-0.5 -34q-10 -16 -21 -47t-21.5 -63.5t-16.5 -63.5t-6 -47q0 -12 -18.5 -22.5t-42 -13.5t-44 0t-20.5 20q-2 14 8 43.5t22.5 62.5t26 59.5t17.5 34.5q-8 -10 -45 -48t-82 -79 t-89 -74.5t-67 -33.5q-27 0 -48.5 10t-32.5 22.5t-11 26z" />
<glyph unicode="_" horiz-adv-x="628" d="M-240 -88q-4 12 7.5 32.5t31.5 41t47 30.5q25 8 75 18.5t108.5 17.5t116 8t94.5 -9q27 -6 48 -35.5t30.5 -59.5t1 -48.5t-43.5 -5.5q-37 14 -105.5 19t-144 5t-142 -6t-97.5 -14q-23 -6 -27 6z" />
<glyph unicode="`" horiz-adv-x="389" d="M25 1124q6 33 20 60.5t31.5 40t25.5 -10.5q6 -20 25.5 -54t50.5 -70.5t74 -73.5t96 -66q20 -12 17 -22t-20 -17.5t-44.5 -9.5t-54.5 4q-20 4 -52 24.5t-65 47.5t-59.5 53.5t-38.5 42.5q-12 18 -6 51z" />
<glyph unicode="a" horiz-adv-x="768" d="M-156 170q-4 20 -3 37q0 21 5 39q10 37 54.5 100.5t106 136t134 146t142 132t129.5 91.5q49 27 83 26q8 0 15 -1q14 -4 32.5 -25t32 -51.5t17.5 -69.5q1 -9 1 -17q0 -30 -11 -59q29 -16 45 -49.5t0 -58.5q-55 -86 -100.5 -154.5t-74 -117t-39 -77t2.5 -34.5q3 -1 6 -1 q16 1 52 29q44 36 99.5 88t108.5 107t86 88q27 27 55.5 43.5t46.5 17.5q17 1 16 -12q0 -15 -32 -49q-45 -45 -108.5 -120.5t-126 -150.5t-113.5 -131.5t-74 -62.5q-31 -10 -56.5 0t-44 31.5t-26.5 51.5t-4 61q2 25 16.5 58.5t33 67t34.5 63.5t27 46q-8 -14 -35 -48t-65 -77 t-83 -90t-90 -85t-86 -63.5t-69 -25.5q-33 0 -63 25.5t-49.5 63.5t-27.5 81zM-33 154q5 -7 16 -7q19 1 51 19q52 30 123.5 93t154.5 150t161 183q27 51 40 89q7 20 7 31t-6 15q-7 3 -16 3q-24 0 -62 -22q-53 -32 -118.5 -90.5t-135 -131t-122.5 -140.5q-52 -66 -80 -120 q-18 -34 -18 -54q-1 -12 5 -18z" />
<glyph unicode="b" horiz-adv-x="655" d="M-87 192v9q0 45 9 86q10 47 49 131t94.5 184t122 204.5t134 194t129 151.5t108.5 77q12 3 24 3q19 0 37 -8q30 -12 54 -36q24 -26 36 -58q8 -20 8 -39q0 -13 -3 -26q-10 -43 -78 -113.5t-164 -156.5q35 -14 49 -58v-6q40 -12 100 -13h18l102 5q60 6 111.5 16.5t78.5 22.5 q20 10 35.5 9t18.5 -9q1 -2 1 -4q0 -6 -8 -18q-10 -14 -39 -33q-31 -18 -81 -35t-109 -29q-58 -13 -118 -19q-34 -4 -63 -3q-23 0 -43 2q-6 -43 -23.5 -96.5t-51.5 -114.5q-45 -80 -102.5 -155t-117 -131t-117 -91t-104.5 -35q-29 0 -50 27.5t-33.5 71t-13.5 93.5zM0 164 q6 -12 21 -12q12 0 29 8q38 20 86 65t101.5 105.5t98.5 121t74.5 110.5t31.5 75q-37 10 -55 26.5t-22 36.5q-55 -49 -110.5 -99t-104.5 -97q-37 -61 -68 -117.5t-51.5 -101.5t-28.5 -77q-5 -18 -4 -30q-1 -9 2 -14zM260 680q74 74 143.5 148.5t122 135t80.5 100.5 q19 28 19 39q0 5 -4 7q-2 1 -5 1q-16 -1 -48 -29q-38 -34 -87 -94t-106.5 -141t-114.5 -167z" />
<glyph unicode="c" horiz-adv-x="632" d="M-72 305q4 45 33 101.5t71 116t94 116.5t106.5 104.5t107.5 80t94 40.5q9 2 19.5 2t23.5 -2q25 -4 47.5 -16t38 -34.5t15.5 -53.5q0 -41 -26 -102.5t-59.5 -119t-66.5 -99.5t-47 -44t-26.5 13.5t-21.5 37t-11.5 45t6.5 37.5q8 14 22 30.5t30.5 33l31 31t24.5 26.5 q25 33 25 60q0 34 -31 30q-45 -8 -96 -54t-98.5 -105.5t-85 -120t-54.5 -97.5q-29 -66 -32 -121q0 -6 -1 -12q0 -46 21 -71q16 -19 45 -19q21 -1 47 9q66 24 147.5 76t165.5 121t146 130q35 35 65 51q30 17 46 17q13 0 13 -11q0 -2 -1 -6q-4 -18 -37 -51l-138 -138 t-159 -150.5t-151.5 -125t-116.5 -61.5q-12 -2 -24 -2q-34 0 -66 16q-44 22 -76 64t-50 102q-12 41 -13 85q0 20 3 40z" />
<glyph unicode="d" horiz-adv-x="739" d="M-143 233q10 35 47 97.5t89 135.5t116.5 147.5t130.5 132.5q68 60 132 94q52 28 97 28q10 0 20 -2q20 -4 49 -38.5t40 -84.5q111 137 208.5 263t167.5 208q11 14 24 14q5 0 11 -2q19 -8 31 -32q12 -22 14 -50v-7q0 -23 -12 -39q-139 -170 -261 -333t-211 -293 q-90 -130 -140 -216q-46 -78 -45 -100q1 -15 25 0q22 14 56.5 42.5t76.5 67.5t83 78t77 75l56 56q27 27 56.5 43.5t47 17.5t16.5 -13.5t-34 -47.5q-45 -45 -108.5 -120.5t-125 -150.5t-113.5 -131.5t-72 -62.5q-31 -10 -56.5 0t-44 31.5t-28 51.5t-5.5 61q4 25 18.5 58.5 t32 67t35 63.5t27.5 46q-10 -14 -31.5 -48t-53.5 -77t-68.5 -90t-74.5 -85t-74 -63.5t-67 -25.5q-33 0 -65.5 24.5t-56.5 59.5t-36 76q-6 21 -6 40q0 17 5 33zM-23 141q7 -7 18 -7q21 0 55 23q52 36 124 108.5t157 174t175 211.5q7 23 7 42q0 9 -2 17q-5 24 -30 31 q-4 1 -8 1q-25 0 -68 -32q-51 -36 -113.5 -96.5t-126 -135.5t-111.5 -143.5t-72 -121.5q-13 -30 -12 -49q-1 -15 7 -23z" />
<glyph unicode="e" horiz-adv-x="641" d="M-129 231q0 41 34 102.5t87 129t118.5 135.5t130 122t122 88t92.5 34q12 0 35.5 -8.5t45.5 -27.5q22 -18 38 -48q11 -22 12 -53q0 -12 -2 -25q-6 -47 -41 -100.5t-83 -102.5t-98.5 -89t-85.5 -58q-43 -25 -83 -25q-15 -1 -30 3q-54 14 -87 48q-53 -76 -78 -138 q-12 -30 -12 -52q0 -23 14 -37q12 -14 38 -14q12 0 26 3q46 9 105.5 35.5t128.5 67.5t133.5 86t119.5 89t90 79q29 29 54.5 42t41 12t15.5 -15t-25 -39q-80 -80 -171 -164t-180 -153.5t-170 -113.5t-140 -44q-29 0 -64 13.5t-63.5 41t-48 71.5t-19.5 105zM113 408 q16 -7 34 -7q17 0 37 6q40 13 80.5 41.5t78.5 66.5t65 75q28 36 40 64q6 15 6 24q0 8 -5 12q-5 3 -13 3q-16 1 -42 -13q-38 -20 -85 -61t-99 -96.5t-97 -114.5z" />
<glyph unicode="f" horiz-adv-x="561" d="M-315 -232v15q0 43 10 82q8 35 41 107.5t83 170t112.5 211t130 228t137 222t132 194.5t114 145.5t85.5 73.5q22 9 42 9t38 -10q35 -18 54.5 -58t21.5 -93v-10q0 -48 -18 -97q-12 -31 -62.5 -79t-119 -101t-144.5 -110.5t-139 -106.5q23 -10 42 -28.5t27 -40.5v-7 q39 -12 83 -13h13q37 0 73 5q42 6 79 16.5t64 22.5q20 10 35.5 9t18.5 -9t-7 -22.5t-39 -32.5q-31 -18 -69 -35.5t-80 -30t-87 -17.5q-25 -3 -49 -3q-20 0 -39 2q-12 -68 -41.5 -153t-70.5 -174t-89.5 -174t-98.5 -151.5t-98 -107.5t-89 -41q-29 0 -50.5 27.5t-32.5 70.5 t-13 94zM-227 -258q3 -7 9 -7q11 0 30 19q30 29 72 87.5t91.5 136t93.5 155.5t77.5 148.5t46.5 113.5q-47 18 -74 47q-74 -123 -139.5 -241.5t-114.5 -215t-75 -161.5q-19 -50 -19 -72q0 -6 2 -10zM279 700q70 68 137 132.5t115.5 120t70.5 97.5q13 24 13 41q0 11 -7 19 q-3 4 -8 4q-11 0 -32 -20q-31 -27 -75 -83.5t-99.5 -136t-114.5 -174.5z" />
<glyph unicode="g" horiz-adv-x="710" d="M-481 -290q6 16 32 11q67 -11 135 -11q43 0 88 4q113 12 206.5 40.5t156 66.5t70.5 73q6 29 -36 42t-109.5 13t-146.5 -12.5t-142 -34.5q-20 -6 -28.5 16.5t-4.5 57t22.5 70.5t51.5 54l192 115q-16 41 -21 86q-2 17 -2 33q0 25 5 47q23 90 83 171t132.5 144.5 t147.5 103.5t126 48q8 1 16 1q40 0 74 -25q41 -29 60 -83q35 39 68.5 96.5t56.5 90.5q8 12 17 12q5 0 11 -4q15 -10 27 -30.5t18 -43.5q3 -12 3 -21t-3 -16q-33 -53 -87 -92t-101 -49q0 -16 -2 -34.5t-8 -37.5q-25 -80 -91.5 -172t-146.5 -169.5t-155 -128.5 q-68 -45 -110 -45q-4 0 -9 1q-20 2 -37 14.5t-33 32.5q-49 -41 -90 -76.5t-64 -52.5q12 4 61.5 17.5t107 23t109.5 9.5t75 -23q23 -25 26 -65q1 -11 1 -22q0 -31 -7 -64q-10 -44 -33.5 -88t-54.5 -76q-27 -29 -73 -53.5t-102 -44t-116.5 -33t-118.5 -18.5q-41 -4 -77 -4 q-15 0 -29 1q-49 2 -80 16q-20 8 -36.5 32t-23.5 46q-4 13 -4 23q0 9 3 17zM74 318q-10 -23 -10 -40q0 -20 12 -32t32 -12q17 0 40 10q49 20 106 65t117.5 105.5t105.5 119t67 105.5q14 29 14 47q0 12 -5 19q-13 15 -36 15q-15 0 -36 -8q-49 -18 -110.5 -62t-124 -104.5 t-107.5 -119.5t-65 -108z" />
<glyph unicode="h" horiz-adv-x="765" d="M-227 72q2 8 29.5 60t72.5 131t103.5 177.5t121 200.5t126 201.5t118.5 180.5t98 136.5t66 69.5q10 6 24 6q8 0 18 -2q26 -6 46 -21.5t25.5 -37t-17.5 -39.5q-25 -20 -66.5 -70.5t-93 -118t-108.5 -145.5t-109.5 -155t-95.5 -146.5t-70 -116.5q8 6 42 42t80 86 t101.5 106.5t106.5 106.5t93 85t63 41q31 8 62.5 -4t54 -35t32 -48.5t-5.5 -43.5q-8 -10 -40 -52t-72.5 -101.5t-84.5 -129t-80 -132.5q-37 -62 -57 -112q-15 -36 -14 -55q0 -8 2 -14q2 -8 29.5 9.5t67.5 49t88.5 74.5t94.5 85t83.5 78t58.5 56q31 31 59.5 45.5t44.5 14.5 q14 0 13 -12q0 -17 -31 -48q-18 -20 -56 -61t-86 -93.5t-99.5 -107.5t-99.5 -101t-86 -77t-56 -35q-29 -6 -58.5 7t-54.5 38t-39 57q-12 28 -12 59v9q2 49 42 123t92 147.5t103.5 137t77.5 92.5q-27 -10 -76 -49t-111.5 -97.5t-131 -128t-133 -142.5t-119.5 -142.5 t-90 -124.5q-9 -14 -22 -14h-5q-16 2 -31.5 17t-24.5 37q-5 14 -5 28q0 9 2 18z" />
<glyph unicode="i" horiz-adv-x="468" d="M-135 182q0 39 25.5 98.5t65.5 125t88 132t92 123t78 94.5t44 46q18 12 46 7t51.5 -20.5t34.5 -35t-3 -35.5q-10 -10 -49 -55.5t-90 -106.5t-106.5 -132t-97.5 -134.5t-63.5 -109.5t-5.5 -60q10 -8 47 11.5t87.5 54t107.5 79.5t109.5 87t91.5 77t51 47q23 23 47.5 33 t39.5 10t17 -11t-18 -32q-10 -10 -45 -49t-84 -91t-107.5 -111.5t-113.5 -108.5t-102.5 -82t-73.5 -33q-29 0 -57.5 14.5t-52 39t-39 57t-15.5 71.5zM374 964q5 30 24.5 57.5t49 50t61.5 33.5q23 8 46 8q9 0 17 -1q30 -4 53 -31q19 -24 19 -48v-9q-4 -28 -27 -54t-57 -45.5 t-68 -29.5q-27 -8 -51 -8q-7 0 -14 1q-30 3 -42 23q-12 18 -12 39q0 7 1 14z" />
<glyph unicode="j" horiz-adv-x="380" d="M-430 -310q-2 12 -2 24q0 27 12 55q18 37 56 104.5t91.5 153.5t116 182t130 194.5t136 189.5t132.5 167q14 18 36.5 19t41 -7t26.5 -23.5t-4 -33.5q-68 -90 -140.5 -196.5t-145 -217.5t-139.5 -219.5t-120 -201.5t-88 -163.5t-45 -105.5q-5 -20 -19 -20q-4 0 -9 1 q-21 7 -39.5 33.5t-26.5 64.5zM375 930q-3 9 -3 20q0 12 4 27q7 27 27.5 54.5t47 49t57.5 29.5q14 4 27 4q16 0 32 -6q57 -23 57 -60t-34 -74q-33 -36 -85 -58q-36 -16 -68 -16q-14 0 -27 3q-29 6 -35 27z" />
<glyph unicode="k" horiz-adv-x="745" d="M-213 98q2 8 28.5 57.5t69.5 124t98.5 167t114 189.5t117.5 191.5t110.5 171t90.5 130t57 67.5q16 12 39 12h7q28 -2 49.5 -13t29.5 -28.5t-12 -33.5q-14 -12 -53 -61.5t-90.5 -121t-111 -157.5t-114.5 -170t-101 -158t-73 -121q18 18 55 59t84 92.5t100.5 106.5 t102.5 104.5t92 85t70 48.5q23 10 46 10q17 0 33 -6q38 -14 48 -35q57 -8 61 -46v-9q1 -34 -25 -84q-30 -56 -85.5 -119.5t-118 -119.5t-122.5 -100t-99 -59q0 -18 5 -39.5t14 -40t20.5 -32t23.5 -15.5h4q20 0 68 36q54 40 116 95.5t120 111.5t89 87t59 45q28 15 44 15 q15 0 14 -12q0 -16 -31 -48q-59 -59 -120.5 -138t-116.5 -152.5t-102.5 -126t-73.5 -58.5q-10 -2 -21 -2q-19 0 -39 7q-32 11 -62 37t-54.5 64.5t-36.5 92.5q-12 53 -15.5 83.5t1 47t15.5 24.5t23 17q121 78 229.5 178t174.5 231q-55 -35 -124 -90t-140.5 -121.5 t-144 -141.5t-137 -149.5t-119 -143t-89.5 -122.5q-8 -13 -22 -13h-5q-18 3 -34 19q-15 14 -25 36q-7 15 -7 31q0 7 1 13z" />
<glyph unicode="l" horiz-adv-x="460" d="M-87 186v17q0 50 15 106q12 45 55.5 131t102.5 187.5t129 208t136.5 193.5t122.5 142.5t89 57.5q37 0 66.5 -25.5t47 -63.5t23.5 -79q2 -16 1 -29q0 -23 -5 -41q-12 -39 -55 -88t-101.5 -102t-124 -106.5t-124 -97.5t-101.5 -77t-55 -45l-16 -14q-59 -102 -93 -182 q-28 -65 -27 -100q0 -8 1 -15q6 -25 55 -1.5t120 73t147.5 114t138.5 125.5q27 29 52.5 40t40.5 10t15 -14t-22 -36q-14 -14 -52 -54t-89.5 -92.5t-108.5 -108.5t-111.5 -104t-100.5 -81t-73 -37q-3 -1 -6 -1q-20 -1 -39 21q-22 24 -36.5 67t-17.5 101zM215 616 q74 70 154 147t141 145q61 66 95 116q22 32 22 51q0 10 -6 15q-3 3 -8 3q-15 0 -47 -28q-42 -37 -99 -105.5t-124 -158.5t-128 -185z" />
<glyph unicode="m" horiz-adv-x="1048" d="M-205 60q-4 10 -4 19q0 12 6 23q6 12 34 64.5t67 126.5t87 158t94 159.5t86.5 133.5t67.5 81q14 12 41 14.5t50.5 -5t37 -20.5t-1.5 -32q-16 -23 -52 -66.5t-78 -102t-86 -126t-78 -133.5q27 33 64.5 79t79.5 95.5t85 97.5t82 87t69.5 65.5t47.5 30.5q25 6 45 -10.5 t32.5 -43t17.5 -53t-1 -40.5t-39 -65.5t-72 -109.5q-45 -68 -98 -145q119 135 217 244q41 45 83 90t77 82t60.5 60.5t35.5 27.5q7 3 14 3q12 -1 26 -11q20 -16 35 -41t17 -54.5t-12 -50.5q-14 -18 -45 -63t-68 -103.5t-74.5 -122t-66.5 -119t-44.5 -94t-6.5 -47.5 q6 -6 33.5 11.5t67.5 47t87 68.5t92 77t83 73t59 55q31 31 59.5 46.5t43.5 14.5q13 -1 13 -13q0 -17 -30 -48q-18 -18 -56.5 -60t-86.5 -95.5t-100 -109.5t-100.5 -103.5t-86 -77t-54.5 -29.5q-27 0 -54.5 16.5t-49 43t-31.5 61.5q-6 22 -6 43q0 13 2 26q10 51 46 115 t77 117q45 63 100 127q-18 -8 -59 -41t-93.5 -81t-109.5 -103.5t-108.5 -107.5t-90 -95t-53.5 -64q-25 -33 -42 -26.5t-26.5 29t-11.5 52t9 46.5q6 10 26.5 38.5t48 68.5t60 87t62.5 91t54.5 82t38.5 61q-80 -68 -169 -152t-168.5 -165t-140 -150.5t-85.5 -108.5 q-8 -12 -20 -12q-3 0 -7 1q-18 5 -32.5 22t-22.5 39z" />
<glyph unicode="n" horiz-adv-x="741" d="M-217 55q1 15 25 69q28 62 74 148t104.5 183.5t113 182.5t97.5 146.5t61 75.5q11 8 27 8q5 0 11 -1q24 -3 44 -14t31.5 -25.5t-0.5 -28.5q-20 -23 -55 -67t-79 -103.5t-92.5 -130t-93.5 -144.5q16 20 50 60.5t76 88.5t90 99t93.5 93t83 71t60.5 31q5 1 10 1q30 0 50 -22 q24 -24 36 -59q11 -32 11 -66v-6q-1 -37 -19 -55q-18 -20 -54 -63.5t-77 -95.5t-82 -109.5t-69.5 -104.5t-39 -79t10.5 -36h2q31 0 151 94q124 98 307 279q27 27 52.5 40t41 12t16.5 -14v-1q0 -13 -24 -37q-53 -51 -109 -112.5t-114.5 -121t-116 -111.5t-110.5 -88t-101 -49 q-20 -5 -40 -5q-26 0 -48 10q-43 20 -44 74v3q0 51 30 125q31 76 88 166.5t131 184.5q-37 -16 -87 -59t-103 -100.5t-106.5 -120t-97.5 -117t-73.5 -92t-36.5 -44.5q-10 -10 -25.5 -13t-31.5 0t-30 15q-20 18 -19 35z" />
<glyph unicode="o" horiz-adv-x="708" d="M-64 194q-3 21 -4 41q0 30 7 60q12 68 60 154t109.5 164.5t126 139t111.5 76.5q24 9 46 15q16 5 33 4h9q20 -2 37.5 -14.5t34.5 -38.5v-2q21 8 40 8q27 1 47 -17q34 -30 42 -75q137 6 210 19t116 34q20 8 37.5 11t22.5 -3q2 -2 2 -5q0 -7 -7 -17q-10 -16 -47 -41 q-27 -20 -67 -37t-85 -29t-94 -20.5t-94 -8.5q-12 -63 -44 -132.5t-76 -137.5t-95.5 -130t-104.5 -109.5t-104 -75t-92 -27.5q-51 0 -89 27.5t-59 71t-29 95.5zM16 213q-5 -21 -5 -40q0 -23 9 -40q12 -23 36 -23q8 0 18 2q38 10 84.5 46.5t100.5 92.5t105.5 120.5t93.5 130 t64 121.5q-66 14 -83 48q-9 18 -9 33t8 29q-43 -25 -95 -71t-104.5 -102t-98.5 -118.5t-79 -121t-45 -107.5z" />
<glyph unicode="p" horiz-adv-x="681" d="M-394 -274q25 61 64 142t90.5 177t108.5 199q-14 43 -16 86q0 39 19 80t43 68.5t40 34.5t10 -24q-7 -26 -7 -60q0 -13 1 -28q49 84 96 164t91 149.5t83 127t68 94.5q20 27 58 40t69 13t46.5 -11.5t-9.5 -31.5q-20 -18 -56 -59t-80 -101.5t-94.5 -135.5t-101.5 -161 q45 70 96 136.5t99.5 120t91.5 88t71 38.5q8 1 16 1q32 0 53 -19q26 -25 40 -61.5t20 -73.5q3 -24 3 -39q0 -8 -1 -14q-4 -45 -31.5 -111t-70.5 -138.5t-95 -146t-107.5 -133t-108.5 -97.5t-94 -42h-10q-34 0 -73 24q-44 29 -83 78q-47 -88 -89 -169t-75 -146.5 t-55.5 -114.5t-28.5 -71q-6 -18 -27 -21q-6 -2 -13 -2q-14 0 -29 5q-21 7 -38 21q-14 13 -14 28q0 24 30 96zM-4 190q12 -35 28.5 -57t36.5 -22q33 0 81 42t102.5 105.5t106.5 141t93 149.5t64 129q21 49 21 73q0 4 -1 7q-2 8 -11 8q-15 0 -51 -26q-56 -40 -136 -121.5 t-170 -194.5t-164 -234z" />
<glyph unicode="q" horiz-adv-x="724" d="M-156 -284q-2 2 -2 6q0 7 4 16q7 14 20 30.5t34 26.5q29 14 67.5 29.5t83.5 30.5q35 61 82 130.5t98.5 143.5t103.5 147.5t97 141.5q-43 -61 -99.5 -134t-116.5 -136.5t-115.5 -105.5t-94.5 -42q-31 0 -54.5 27.5t-36.5 71.5t-14 101v6q0 53 15 107q8 35 38 87.5 t73 109.5t96 114.5t113.5 106.5t124 84t122.5 45q10 1 19 1q18 0 32 -5q23 -8 39.5 -24.5t28.5 -39t19 -47.5q20 6 43.5 4.5t42 -10t24.5 -21.5q2 -3 2 -7q0 -9 -10 -17q-18 -16 -72.5 -91t-127 -185.5t-153.5 -245.5t-151 -270q92 23 172 35q48 7 80 7q21 0 35 -3 q20 -4 12 -27t-29.5 -47.5t-51 -45t-52.5 -20.5q-59 -2 -115.5 -7t-109.5 -13q-39 -82 -68 -164q-5 -15 -20 -15h-6q-19 3 -39.5 16t-33.5 35.5t-9 45.5q4 10 7 22.5t9 26.5q-43 -10 -78 -19.5t-59 -17.5q-16 -4 -19 5zM-23 131q5 -8 15 -8q12 0 30 9q35 18 84.5 56.5 t106.5 93t111.5 112t100.5 109.5t73 89q20 31 38.5 58.5t36.5 51.5v10q0 22 -7 37.5t-22 15.5q-3 0 -7 -1q-61 -12 -128 -58.5t-132.5 -112t-124 -140t-100.5 -141t-62 -116.5q-15 -37 -15 -54q0 -7 2 -11z" />
<glyph unicode="r" horiz-adv-x="555" d="M-184 270q0 11 18 29q139 139 214 247.5t79 155.5q-10 10 -20.5 25.5t-16.5 33t-8 35t2 31.5q8 25 26 41q20 15 40 21q14 4 26 4q6 0 12 -1q18 -3 27 -15q8 -12 19.5 -29t20.5 -35t13 -37.5t-2 -38.5q25 4 42.5 10.5t33.5 17.5t34.5 27.5t43.5 41.5q18 16 36.5 8 t31 -28.5t16.5 -46.5t-6 -42t-44 -60t-78 -104.5t-93.5 -128t-89 -128t-61.5 -107.5q-18 -37 -18 -56q0 -5 1 -8q4 -12 42 8.5t98 66.5t138 114.5t162 152.5q23 23 49.5 36t43 13t18.5 -11v-2q0 -11 -25 -36q-18 -18 -54 -60t-82 -94.5t-98.5 -109.5t-102.5 -104.5t-95 -78 t-74 -30.5q-27 0 -46 23.5t-31.5 57.5t-17.5 68.5t-5 59.5q2 47 31.5 104.5t71.5 117.5t88 122.5t81 122.5q-49 -2 -61 -6l-8 -2q-10 -16 -67.5 -95t-170.5 -192q-57 -57 -98 -84q-40 -27 -62 -33q-24 -6 -24 8z" />
<glyph unicode="s" horiz-adv-x="468" d="M-250 98q6 30 18.5 56t29 42.5t28.5 10.5t16 -20.5t10.5 -31t21.5 -35t50 -32.5q17 -7 35 -7q29 -1 59 21q48 34 68 91q8 21 8 43q0 20 -6 40q-12 44 -32.5 90t-39 89t-18.5 77q0 41 27.5 89.5t69.5 92.5t93.5 82t101.5 60.5t92 24.5h6q38 0 61 -23q15 -16 14 -40v-11 q-4 -31 -21.5 -63.5t-46 -64.5t-59.5 -52q-37 -27 -98.5 -55.5t-114.5 -39.5q10 -35 34.5 -67.5t44.5 -72.5q18 -40 24 -90l2 -16q0 -44 -25 -102q-37 -84 -104.5 -137t-139.5 -73q-39 -11 -74 -10q-30 0 -56 8q-58 16 -77 71q-5 14 -5 30q0 12 3 25zM127 600q23 16 59.5 44 t89.5 75q40 35 40 47v2q-2 4 -8 4q-10 0 -28 -9q-30 -15 -72 -52t-73 -90q-4 -4 -5 -10.5t-3 -10.5z" />
<glyph unicode="t" horiz-adv-x="544" d="M-58 214q-2 18 -2 36q0 51 15 108q12 51 44 118t75 141.5t95 152.5t107 150q-66 8 -124 17.5t-109 23.5q-12 4 -14 14t5 21.5t22.5 17.5t35.5 0q37 -10 100.5 -15.5t141.5 -7.5q63 78 122.5 137.5t104.5 85.5q13 7 28 7q11 0 25 -4q30 -9 53 -35.5t33 -69.5q4 -16 5 -35 q0 -29 -11 -63q92 12 179.5 31.5t158.5 48.5q38 14 48 2q4 -5 4 -12q0 -12 -10 -28q-16 -26 -50.5 -55.5t-81.5 -48.5q-66 -25 -158 -36t-196 -13l-4 -2t-42 -33.5t-94.5 -80t-122 -106.5t-126.5 -114q-45 -74 -81 -143.5t-55.5 -127.5t-21.5 -101v-7q0 -38 20 -57 q5 -5 14 -5q19 0 53 18q52 28 123 79t149.5 119t144.5 133q33 33 61.5 48.5t43 13.5t11 -18.5t-29.5 -43.5q-18 -18 -57 -61t-88.5 -96.5t-106.5 -110.5t-110.5 -104.5t-100.5 -78t-78 -30.5t-63.5 27.5t-54.5 76.5t-30 116zM301 725l178 178q-10 2 -22.5 2h-24.5 q-68 -84 -131 -180zM508 997q16 0 32.5 1t32.5 3q45 49 59 73q9 17 9 27q0 4 -2 7t-6 3q-11 -1 -37 -23q-35 -32 -88 -91z" />
<glyph unicode="u" horiz-adv-x="862" d="M-145 197q4 37 28.5 87t61.5 108.5t81 118.5t89 116.5t88 104.5t76 81q18 18 45.5 15t50 -15t34 -29.5t-2.5 -31.5q-29 -31 -76 -87.5t-98.5 -123t-103.5 -137t-91 -131t-61.5 -102.5t-14.5 -52t41 13.5t80 70.5t105.5 110.5t120 132t120.5 136t107.5 122t83.5 90.5 t45 40q5 2 12 2q12 0 26 -8q22 -12 39 -30t23 -38.5t-6 -32.5q-8 -10 -37 -55t-67 -107.5t-78.5 -134.5t-72.5 -133t-50.5 -104t-10.5 -50q8 -6 39 12.5t73 52.5t91 75t93 79.5t78 69.5t46 43q18 18 41 27.5t39 10.5t20 -8q1 -2 1 -4q0 -9 -15 -26q-33 -33 -78 -81t-94 -101 t-100 -105.5t-96 -94.5t-82 -67.5t-58 -25.5q-16 0 -35.5 14.5t-37 38t-27.5 55t-10 66.5q0 31 20.5 82t46 103.5t50 96.5t34.5 64q-27 -33 -64.5 -81t-80.5 -103t-88 -110.5t-86 -102.5t-74 -79t-51 -40q-14 -5 -28 -5q-17 1 -37 9q-34 16 -62 46q-30 30 -46 69 q-12 27 -11 53q0 11 2 21z" />
<glyph unicode="v" horiz-adv-x="737" d="M-174 115q0 29 22.5 82t57.5 117.5t79 136t87 140t81.5 130t61.5 102.5q8 14 32.5 11t47 -17t38 -35.5t5.5 -44.5q-23 -49 -62.5 -111.5t-86 -130t-94.5 -134t-84 -122t-56.5 -93t-11.5 -48.5q9 -13 26 -12q21 0 59 20q66 37 149 119t169 198t146 245q-16 25 -15.5 57.5 t12 62t33 52t49.5 28.5q6 3 13 3q8 0 18 -4q19 -7 35 -22.5t28.5 -33.5t12.5 -37q0 -16 -2 -31.5t-6 -33.5q70 2 122 8t91 12t66.5 14.5t49.5 18.5q20 8 38 11t23 -3q2 -2 2 -5q0 -7 -8 -17q-10 -16 -46 -41q-29 -23 -73 -40.5t-95 -29.5q-52 -13 -105 -19q-41 -5 -78 -4 h-22q-43 -96 -117 -201.5t-159 -195.5t-167.5 -152.5t-142.5 -70.5q-18 -2 -34 -2q-28 0 -53 6q-40 10 -70.5 30.5t-48 44t-17.5 42.5z" />
<glyph unicode="w" horiz-adv-x="1101" d="M-145 197q4 37 28.5 87t61.5 108.5t81 118.5t89 116.5t88 104.5t76 81q18 18 45.5 16t50 -14t34 -30.5t-0.5 -32.5q-29 -31 -76 -87.5t-98.5 -123t-103.5 -137t-91 -131t-61.5 -102.5t-14.5 -52q10 -14 53 15.5t102.5 87t130 134t139.5 156.5t126 155.5t92 129.5l2 2 q10 14 32 14t41 -9t30.5 -27.5t3.5 -39.5q-23 -49 -61 -110.5t-80 -129t-86 -133t-77.5 -118.5t-53 -92t-15.5 -50q6 -16 37 -4.5t76 45t100 86t111.5 119t108.5 145t91 162.5q-18 27 -19 59t10 60.5t34.5 49t58.5 20.5q4 1 8 1q24 1 50 -19q32 -22 39 -54v-12q0 -22 -5 -53 q141 6 215 20.5t117 32.5q20 8 38 11t23 -3q2 -2 2 -5q1 -7 -7 -17q-10 -16 -48 -41q-31 -23 -74.5 -43.5t-95 -35t-105.5 -22.5q-36 -5 -70 -5q-17 0 -33 1q-43 -92 -119 -195.5t-161 -191.5t-169 -148.5t-141 -66.5q-11 -1 -22 -1q-27 0 -50 7q-33 10 -55.5 29.5 t-33.5 46.5t-9 55q2 29 14 65t35 79q-39 -49 -78 -95.5t-72.5 -84.5t-61.5 -64.5t-44 -32.5q-14 -5 -28 -5q-17 1 -37 9q-34 16 -62 46t-44 69q-12 29 -12 57q0 8 1 17zM481 518q-1 -1 -1 -2l3 4z" />
<glyph unicode="x" horiz-adv-x="677" d="M-280 -32q-1 8 -2 15q0 19 8 37q8 23 44.5 64t92 94t124 115.5t140.5 128.5q2 29 4 56.5t6 56.5q-10 -14 -22.5 -28.5t-28.5 -31.5q-25 -25 -48.5 -35t-38.5 -9t-17 12.5t18 31.5q53 53 98 116.5t72 129.5q8 25 14 47.5t17 38.5q10 20 35.5 35.5t50 22.5t41 3t8.5 -22 q-20 -47 -38.5 -127t-35.5 -172q55 51 107.5 101t94.5 95t73 84t45 70q6 13 20 13q4 0 8 -1q20 -4 38 -21.5t25 -44t-9 -52.5q-23 -35 -66 -80t-99.5 -98.5t-123 -112t-135.5 -119.5q-11 -95 -11 -161q0 -64 17 -83q8 -10 37.5 5.5t70.5 46t89.5 71.5t93.5 82t82.5 77 t58.5 56q31 31 58.5 45.5t43.5 14.5q15 0 15 -12q0 -16 -31 -48q-59 -59 -127 -138t-130.5 -152.5t-115.5 -126t-80 -58.5q-29 -6 -59.5 11.5t-56 45t-45 61.5t-23.5 64q-6 37 -6 94q-117 -104 -210 -201.5t-130 -170.5q-4 -8 -12 -8q-5 0 -9 2q-14 6 -25 25t-15 45z" />
<glyph unicode="y" horiz-adv-x="743" d="M-99 215v6q0 51 15 107q10 37 56 105.5t106.5 148.5t127.5 157.5t120 130.5q13 13 34 13q2 0 4 -1q25 -1 46.5 -13.5t34 -31t1.5 -32.5q-25 -33 -74.5 -90.5t-107 -124t-117 -136t-102.5 -129t-64.5 -99.5t-3.5 -48h2q13 0 55 31q46 35 110.5 93t139 129t144.5 138.5 t125 121.5t82 79q14 14 36.5 1t39 -37.5t21.5 -54.5q1 -7 1 -12q0 -22 -14 -36q-102 -104 -200.5 -228t-189.5 -258.5t-172 -272.5t-147 -271q-8 -14 -21 -14q-4 0 -9 1q-19 6 -35.5 29t-25.5 61q-4 16 -4 33q0 24 7 51q8 27 53 94.5t108.5 151.5t136.5 176t136.5 170 t108.5 131.5t51 61.5q-20 -18 -60 -62.5t-91.5 -100.5t-106.5 -117.5t-105.5 -112t-90 -83t-58.5 -32.5q-29 0 -52.5 22.5t-36.5 61.5t-14 92z" />
<glyph unicode="z" horiz-adv-x="608" d="M-194 -241l-2 18q0 30 12 59q23 57 144.5 161.5t315.5 225.5q-20 14 -49 14q-18 1 -40 -5q-56 -14 -124 -85q-16 -16 -30.5 -8t-23.5 27.5t-11 45.5t8 48q6 14 44 61.5t91.5 107.5t114.5 127t117 124q-55 -6 -99 -6h-45q-2 -4 -16 -27.5t-34.5 -54.5t-45 -62.5 t-47.5 -54.5q-25 -23 -48.5 -34t-38.5 -10t-17 12.5t18 31.5q25 25 51.5 54.5t50 60.5t42 60.5t28.5 51.5q-10 10 -19.5 26.5t-14.5 35t-6 37t3 33.5q8 25 25.5 39t39.5 19q10 2 19 2q11 0 21 -3q20 -6 30 -23q12 -18 12 -45q0 -11 -2 -21q-6 -40 -20 -65q47 8 121 26.5 t135 49.5q27 15 53 15h9q30 -3 51.5 -16t28 -31.5t-12.5 -28.5q-16 -10 -70.5 -60.5t-123 -119t-141 -143.5t-124.5 -136q24 6 53 6q17 0 35 -2q35 -4 68 -33q31 20 66.5 47t72.5 54.5t69.5 56t57.5 53.5q23 25 47.5 36t40.5 10q18 -1 17 -14q0 -11 -19 -32 q-76 -74 -152.5 -141.5t-154.5 -126.5q17 -31 21 -65q1 -7 0 -13q0 -26 -13 -51q-45 -96 -104.5 -178t-124 -142.5t-128 -96.5t-114.5 -42q-5 -1 -10 -1q-24 0 -44 16q-26 20 -43 52.5t-21 72.5zM-123 -248q4 -10 16 -10q10 0 26 7q34 15 80 50t98.5 84t97.5 100.5 t76.5 97.5t37.5 73q-104 -74 -187 -140.5t-139.5 -119t-84.5 -90.5q-23 -31 -23 -46z" />
<glyph unicode="{" horiz-adv-x="763" d="M115 -4q-2 31 22.5 77t60 96t72.5 103.5t57.5 100.5t17.5 85t-48 58q-14 6 -15 27.5t5 45t16 41t19 17.5q51 -4 92 22.5t73.5 69.5t59 97.5t52.5 104.5t51.5 91t56.5 60q18 10 65 14t88 1t57.5 -14.5t-22.5 -31.5q-51 -27 -87 -75t-66.5 -104.5t-61.5 -116.5t-71 -111.5 t-93 -87.5t-129 -44q68 -41 83 -83t-2 -88t-55 -97t-76 -109.5t-65.5 -125t-21.5 -142.5q2 -29 -17.5 -26.5t-45 21.5t-48 53t-24.5 71z" />
<glyph unicode="|" horiz-adv-x="841" d="M25 -209q4 16 29.5 75.5t65.5 147.5t91 194.5t106.5 218.5t110.5 220.5t103.5 196.5t85 150.5t57.5 80.5q16 14 47 15.5t57.5 -7t38.5 -24t-8 -31.5t-60 -75.5t-92.5 -146.5t-113 -193.5t-121 -218t-117.5 -219t-103 -197t-76 -152t-36 -82.5t-20.5 -25.5t-26.5 3 t-18 26.5t0 43z" />
<glyph unicode="}" horiz-adv-x="763" d="M-111 -82.5q0 9.5 27 23.5q51 27 87 74.5t66.5 104t61.5 117t71 111.5t93 87t129 44q-70 39 -84 82t3 89t55 97.5t76 109.5t65.5 125t21.5 142q-2 27 17.5 26t45 -20.5t47 -53.5t25.5 -70q2 -33 -22.5 -78t-60 -95.5t-72.5 -103.5t-57.5 -100t-17.5 -85t48 -59 q14 -6 15 -27.5t-5 -45t-16 -41t-19 -17.5q-53 4 -93 -22.5t-72.5 -69.5t-59 -97t-52.5 -104.5t-51.5 -91.5t-56.5 -59q-12 -8 -38.5 -12t-56 -5.5t-58.5 1t-45.5 8.5t-16.5 15.5z" />
<glyph unicode="~" horiz-adv-x="866" d="M86 337q-8 13 6 21q20 12 58 40t78 58.5t76 58.5l54 42q14 10 38 18.5t44.5 9.5t32.5 -5.5t4 -22.5q-10 -18 -19 -43t-14.5 -47.5t-6.5 -39.5t9 -19q20 -6 48 12t52.5 47t43 61.5t24.5 57.5q2 12 25 10t46.5 -14.5t36.5 -35t-5 -52.5q-16 -31 -64.5 -67t-102.5 -64.5 t-103.5 -45t-69.5 -6.5q-31 14 -48.5 45t-13.5 78q-6 2 -19 -15.5t-31.5 -41t-38 -46t-36.5 -30.5q-16 -8 -37.5 -3t-40 15.5t-26.5 23.5z" />
<glyph unicode="&#xa1;" horiz-adv-x="768" d="M-36 40q-13 17 18 40q10 6 56 51t111.5 110.5t141.5 143.5t143.5 150.5t117.5 132t66 90.5q8 18 19.5 18t20 -10t12.5 -29.5t0 -38.5q-6 -27 -38 -80t-81 -119.5t-106.5 -139t-115 -139t-106.5 -119t-78 -76.5q-23 -18 -61.5 -19.5t-72.5 8t-47 26.5zM647 1011.5 q0 22.5 19 47.5q18 25 48.5 40t63.5 20t58.5 0t35.5 -23q8 -20 -1 -49t-30.5 -55.5t-50 -45t-55.5 -18.5q-23 0 -43 12t-32.5 30.5t-12.5 41z" />
<glyph unicode="&#xa2;" horiz-adv-x="776" d="M25 -164q4 16 27.5 70.5t60.5 134.5q-43 43 -68 108.5t-14 143.5q4 43 29.5 96t65.5 109.5t89 113t101.5 103.5t103.5 81.5t94 49.5q35 63 62.5 106t44.5 60q14 14 42.5 15t52 -6t35 -21.5t-7.5 -28.5q-16 -12 -42.5 -51t-61.5 -97q16 -12 26.5 -31.5t14.5 -43.5 q8 -61 -12.5 -124t-53 -114t-69.5 -86t-62 -41q-16 -4 -33.5 17.5t-27.5 50.5l-172 -322q33 4 71.5 23.5t86.5 48.5q43 27 50 12.5t-4.5 -45.5t-34 -65.5t-40.5 -49.5q-35 -29 -66.5 -45t-56.5 -20q-35 -6 -76 8q-39 -76 -64.5 -130t-31.5 -73q-6 -18 -18.5 -23.5t-23.5 2 t-17 24.5t0 40zM168 249q-6 -48 4 -79q53 113 115.5 239t122.5 242q-35 -35 -68 -75.5t-61.5 -82.5t-50 -80t-31.5 -63q-25 -53 -31 -101zM465 528q33 12 55.5 32.5t42.5 57.5q23 47 2 87z" />
<glyph unicode="&#xa3;" horiz-adv-x="1431" d="M25 -23q6 16 24.5 38t50 41.5t77.5 36t106 22.5l67 118q-12 -4 -23.5 -5t-19.5 -5q-16 -6 -25.5 1t-10.5 18.5t8.5 25t27.5 21.5q14 4 38 11t54 15l23 39q-12 -4 -23.5 -6t-19.5 -6q-25 -8 -30 2t3 28.5t28.5 39t47.5 32.5l28.5 9.5t39.5 11.5q94 137 191 244.5 t194.5 181.5t192.5 109.5t186 29.5q37 -2 70.5 -25.5t55 -50t24.5 -45t-26 -10.5q-84 25 -176 0t-186 -83t-185.5 -141t-170.5 -177q35 4 65.5 7t52.5 3q23 0 54.5 -20.5t52 -44t19.5 -41t-42 -9.5q-25 4 -58.5 5t-72.5 -1t-82 -6t-84 -10l-28 -39q55 8 107 11t89 -3 q18 -4 33.5 -23.5t23 -41t3.5 -37t-25 -8.5q-49 12 -131 14t-162 -4q-49 -76 -84 -144q53 -2 145.5 -11t189.5 -25.5t182 -40t126 -54.5q33 -25 52.5 -65.5t24.5 -75.5t-5 -54.5t-37 3.5q-47 35 -130 75t-182 73.5t-205.5 54t-201.5 16.5q-10 -16 -23.5 -36.5t-29.5 -41 t-33.5 -38t-31.5 -23.5q-25 -12 -65 -7t-77 22.5t-59.5 44t-11.5 54.5z" />
<glyph unicode="&#xa4;" horiz-adv-x="944" d="M57.5 191.5q-10.5 11.5 18.5 27.5q16 10 67.5 44t104.5 75q4 45 39 91t78 85q-10 41 -22.5 76t-16.5 49q-10 18 4 28.5t37.5 12.5t48 -7t35.5 -28q4 -8 5 -21.5t5 -29.5l4 4q10 10 25.5 3t25.5 -19q20 6 43 6q27 25 53.5 46t53.5 32q31 12 69.5 15t68.5 -2t39 -16.5 t-18 -27.5q-16 -10 -59 -40t-92 -65q14 -25 10 -55.5t-22.5 -62t-48 -62.5t-66.5 -55q8 -29 16 -50.5t12 -29.5q8 -18 -6 -28.5t-37.5 -12.5t-47 7t-33.5 28q-6 10 -11 33q-37 -12 -70.5 -14.5t-60.5 12.5q-41 -35 -73 -52q-33 -12 -72 -15t-67.5 2t-39 16.5zM342.5 352 q-11.5 -23 11.5 -39q18 -14 58.5 2.5t74 48t47 72.5t-19.5 76q-31 -27 -67.5 -55.5t-64.5 -55t-39.5 -49.5z" />
<glyph unicode="&#xa5;" horiz-adv-x="1069" d="M23 438q4 20 28.5 65.5t60 102t76.5 119.5t77 121.5t62.5 105.5t34.5 72q10 37 36 38t51.5 -16.5t45 -44t15.5 -45.5q-2 -14 -35 -59t-79 -106.5t-99 -130t-95 -129t-66.5 -103.5t-14.5 -51q8 -10 66.5 25.5t142.5 97t183 139.5t191.5 153.5t165 139t103.5 96.5 q29 31 47 12.5t24.5 -57.5t0 -82t-24.5 -61q-12 -12 -60.5 -63.5t-117 -129.5t-150.5 -174t-160 -197q10 0 20.5 1.5t20.5 1.5q23 0 54.5 -21.5t52 -45.5t19.5 -40t-42 -8q-35 6 -91 5t-120 -7l-26 -37q33 4 62.5 3t52.5 -5q18 -4 32.5 -22.5t21.5 -40t4 -37t-24 -9.5 q-37 10 -94 12.5t-121 0.5q-82 -123 -112 -220q-6 -18 -26.5 -11t-42 26.5t-39 47.5t-17.5 50q-2 16 9 39t32 51l-56 -12q-16 -6 -25 1t-10 18.5t8 24.5t27 21q39 14 117 33q8 8 14.5 16.5t14.5 18.5q-25 -4 -45.5 -9t-34.5 -9q-25 -8 -31 2t3.5 28.5t28.5 39t48 30.5 q20 8 54 16.5t75 18.5q45 51 91 103t90 101.5t82 93.5t67 81q-72 -61 -153 -128t-154.5 -124.5t-131 -94t-79.5 -38.5q-23 0 -48.5 18.5t-47 48t-34 64.5t-5.5 65z" />
<glyph unicode="&#xa6;" horiz-adv-x="780" d="M25 -209q8 33 35.5 107.5t60.5 158.5t65.5 163t53.5 120q10 20 32.5 23.5t42 -5t28.5 -26t-5 -39.5q-29 -43 -67 -119t-73.5 -158t-65.5 -156.5t-42 -115.5q-6 -20 -20.5 -25.5t-26.5 3t-18 26.5t0 43zM373 505.5q-6 18.5 0 43.5q8 33 40.5 104.5t78 152.5t93.5 155.5 t89 113.5q16 14 47 15.5t57.5 -7t38.5 -24t-8 -31.5q-41 -33 -98.5 -104.5t-113.5 -151.5t-101 -154.5t-58 -115.5q-6 -20 -20.5 -25.5t-26.5 2.5t-18 26.5z" />
<glyph unicode="&#xa7;" horiz-adv-x="989" d="M24 -43.5q-6 27.5 0.5 50t20.5 35.5t29 15q14 0 24.5 -12t32 -30.5t61 -37t111.5 -26.5q45 -6 86 6t72 34.5t49 51.5t20 57q2 23 -16 51.5t-41.5 60.5t-43 65.5t-19.5 68.5q0 47 33.5 100.5t82.5 100.5q-4 8 -4 16v17q0 41 25.5 87t65.5 88t89.5 76.5t96.5 55t88 20.5 t65 -24q18 -20 14.5 -51t-22 -64t-47.5 -64.5t-59 -52.5q-33 -23 -79 -53.5t-91 -56.5q18 -27 41.5 -56.5t40 -66.5t19.5 -81t-17 -99q-16 -41 -40 -71t-55 -52q2 -23 -2 -50.5t-16 -58.5q-25 -63 -71 -104t-102 -62.5t-117.5 -25.5t-118 5t-103.5 30.5t-72 50.5t-31 56.5z M525.5 387q-1.5 -22 9 -43.5t29 -45.5t36.5 -48q37 37 43 82q2 27 -22.5 59.5t-51.5 71.5q-6 -8 -12 -14.5t-10 -14.5q-20 -25 -21.5 -47zM637 625q31 25 67.5 54t75.5 64q45 39 47 52.5t-21.5 2t-64.5 -45t-84 -84.5q-16 -20 -20 -43z" />
<glyph unicode="&#xa8;" horiz-adv-x="557" d="M27 1014q-12 23 3 51.5t43.5 53t61.5 42t55 15.5q4 0 18.5 -5.5t29 -14.5t24.5 -20.5t6 -25.5q-4 -18 -21.5 -39.5t-39 -40t-45 -32t-41.5 -19.5q-29 -10 -56.5 4.5t-37.5 30.5zM274 1024q-14 25 3.5 54.5t48 56t66.5 45t59 16.5q4 0 19 -6t30.5 -15.5t26 -21.5t8.5 -27 q-6 -20 -21.5 -42.5t-37 -42t-45 -35t-42.5 -21.5q-31 -10 -67 4.5t-48 34.5z" />
<glyph unicode="&#xa9;" horiz-adv-x="1296" d="M25 188q8 51 41.5 131t89 173.5t129 190.5t160.5 181t187 147.5t204 88.5q84 20 162.5 -6.5t140 -77.5t98.5 -114.5t37 -119.5q0 -96 -35 -202.5t-94.5 -213t-136 -206t-162.5 -180t-176 -136t-172 -73.5q-135 -31 -230.5 1.5t-154 100.5t-80 154t-8.5 161zM173.5 4 q13.5 -78 74.5 -121t142 -28.5t169 72t176 145.5t165 191.5t134.5 212t83 205.5t14 172t-74.5 112q-66 39 -150 22.5t-173 -72t-176 -141.5t-161.5 -186.5t-131 -207t-81 -202.5t-11 -174zM303 305q4 45 33 101.5t71 116t95 116.5t107.5 104.5t106.5 80t93 40.5q18 4 43 0 t47.5 -16t37.5 -34.5t15 -53.5q0 -41 -25.5 -102.5t-59 -119t-65.5 -99.5t-46 -44t-27.5 13.5t-23 38t-11.5 45t6 36.5q16 29 53.5 63.5t55.5 57.5q27 35 24.5 64.5t-30.5 25.5q-45 -8 -96.5 -53t-98.5 -104.5t-84 -121t-53 -98.5q-29 -66 -32 -121t18 -83q25 -31 85 -11.5 t138 66.5q43 27 50 12.5t-4 -45t-33.5 -65.5t-41.5 -49q-35 -29 -66.5 -45.5t-56.5 -20.5q-45 -8 -88 14.5t-76.5 64.5t-51 101.5t-9.5 124.5z" />
<glyph unicode="&#xaa;" horiz-adv-x="768" d="M161 657.5q-7 34.5 1 61.5q8 29 44 80t85 110.5t108.5 118.5t115.5 106.5t105.5 74t77.5 20.5q12 -4 26.5 -20.5t25 -42t14.5 -56.5t-8 -61q23 -14 36 -40t1 -46q-90 -141 -141.5 -220t-28.5 -90q10 -6 46 23t81 70.5t88 86t69 70.5q20 23 44 35t38.5 13t13 -10 t-25.5 -38q-37 -37 -88 -98.5t-101.5 -120.5t-92.5 -105.5t-60 -50.5q-25 -8 -45.5 0.5t-34.5 24.5t-21.5 40.5t-3.5 51.5q2 18 13.5 46t26 54.5t28.5 51t20 37.5q-6 -10 -27.5 -38t-52 -63t-66.5 -72.5t-71.5 -68.5t-69.5 -51.5t-57 -20.5q-27 0 -50 20.5t-39.5 51.5 t-23.5 65.5zM260 645q12 -16 54 9.5t100.5 76.5t126 123t131.5 150q20 39 30 68.5t0 35.5q-18 10 -62 -16.5t-97.5 -72.5t-108.5 -104.5t-98 -114t-65.5 -98.5t-10.5 -57z" />
<glyph unicode="&#xab;" horiz-adv-x="1284" d="M165 417.5q-3 18.5 10 41t38 44t55 29.5q31 8 95.5 37t135 61t131.5 61.5t81 41.5q35 18 44 5t-0.5 -42.5t-34 -66.5t-56.5 -62q-31 -23 -85.5 -44t-107.5 -37.5t-93 -25.5t-42 -9q6 -2 31.5 -12.5t57.5 -23t60.5 -25.5t40.5 -21q18 -18 16.5 -44t-16 -47.5t-35 -31.5 t-38.5 6q-12 10 -48 33.5t-77 48t-79 43t-56 20.5q-25 2 -28 20.5zM574 417.5q-3 18.5 10.5 41t38 44t55.5 29.5t95.5 37t135 61t131 61.5t80.5 41.5q35 18 44.5 5t0 -42.5t-34 -66.5t-57.5 -62q-31 -23 -85 -44t-107.5 -37.5t-93 -25.5t-42.5 -9q6 -2 32 -12.5t57.5 -23 t60.5 -25.5t41 -21q18 -18 16 -44t-16 -47.5t-34.5 -31.5t-39.5 6q-12 10 -48 33.5t-77 48t-78.5 43t-56.5 20.5q-25 2 -28 20.5z" />
<glyph unicode="&#xac;" horiz-adv-x="966" d="M64 350q-5 10 2.5 28.5t25.5 39.5t43 33q14 8 59.5 18t103.5 20.5t124.5 20.5t125 17.5t100.5 11.5t54 4q33 -4 45.5 -24.5t10.5 -45t-15.5 -47.5t-29.5 -31q-55 -68 -99.5 -129t-54.5 -88q-10 -23 -24.5 -17.5t-26.5 27t-18.5 51t4.5 56.5q2 10 31.5 45t54.5 68 q-61 0 -136 -5.5t-146 -13.5t-127 -19.5t-79 -19.5q-23 -10 -28 0z" />
<glyph unicode="&#xad;" horiz-adv-x="806" d="M146 353.5q-5 13.5 2.5 34t26.5 44t44 35.5q23 12 69 25.5t96 25.5t93 19.5t62 5.5q18 -2 38.5 -29t30.5 -56.5t4 -51t-43 -11.5q-37 8 -92 7t-112.5 -8t-109.5 -19.5t-81 -24.5q-23 -10 -28 3.5z" />
<glyph unicode="&#xae;" horiz-adv-x="1296" d="M25 188q6 51 39.5 131t89 173.5t129 190.5t161.5 181t187 147.5t203 88.5q84 20 163.5 -6.5t141 -77.5t98.5 -114.5t37 -119.5q0 -96 -35 -202.5t-94.5 -213t-137 -206t-163.5 -180t-176 -136t-172 -73.5q-135 -31 -230.5 1.5t-153 100.5t-79 154t-8.5 161zM168 92.5 q-6 -67.5 12.5 -122t65.5 -87.5q43 -31 95 -32t109.5 21t119 63.5t122.5 97.5q-18 39 -37.5 79t-40 70.5t-40 47t-35.5 10.5q-14 -6 -32 12t-28 45q-55 -86 -104 -175t-66 -149q-10 -33 -29.5 -29.5t-38 27t-29.5 57t-1 64.5q6 23 32.5 60.5t61.5 79.5t72 83t63 72 q-20 -16 -45.5 -28.5t-49 -14.5t-44 9.5t-29.5 41.5q-43 -80 -70.5 -157.5t-33.5 -145zM348 432q14 -10 43 11.5t61.5 53t65 64.5t55.5 49q12 8 23.5 -7t18 -39.5t6.5 -50.5t-13 -38q-12 -14 -28.5 -33.5t-32.5 -44.5q41 20 94 49t107.5 61t104.5 65.5t86 66.5t51.5 61.5 t0.5 51.5q-23 31 -85 24.5t-141 -36t-163 -74.5t-148.5 -91.5t-97 -86t-8.5 -56.5zM586 799q66 33 134 55.5t133 27.5t120 -9.5t94 -55.5q47 -49 21.5 -121.5t-93 -146.5t-161 -141.5t-181.5 -106.5q35 -25 79 -65.5t79 -81.5q94 109 171 233.5t117 239t33.5 206 t-75.5 132.5q-47 27 -103.5 25.5t-118 -25t-125 -66.5t-124.5 -100z" />
<glyph unicode="&#xaf;" horiz-adv-x="628" d="M22 1038.5q-4 12.5 7.5 33t32 41t47.5 30.5q25 8 78 18t115.5 17.5t122.5 8.5t97 -9q27 -6 48.5 -36t30.5 -59.5t1 -48t-43 -6.5q-37 14 -109.5 19.5t-151.5 5.5t-148.5 -6.5t-100.5 -14.5q-23 -6 -27 6.5z" />
<glyph unicode="&#xb0;" horiz-adv-x="483" d="M106.5 565.5q-8.5 32.5 4 66.5t40 68.5t59.5 65.5t62.5 55.5t49.5 38.5q10 10 25 3t26 -19q27 8 50.5 7t39.5 -7q63 -23 75.5 -63t-9 -86t-67.5 -90t-101.5 -73.5t-110.5 -39t-94 15.5q-41 25 -49.5 57.5zM199.5 614q-11.5 -23 11.5 -39q18 -14 58 2.5t74 48t47 72.5 t-19 76q-31 -27 -68 -55.5t-64.5 -55t-39 -49.5z" />
<glyph unicode="&#xb1;" horiz-adv-x="966" d="M-120 -121q-5 10 2 28.5t25.5 39.5t43.5 33q14 8 59 18t103.5 20.5t125 20.5t125 17t100.5 11.5t54 4.5q39 -4 49.5 -30t4 -54.5t-26 -49t-37.5 -14.5q-25 8 -73 11.5t-108.5 0t-126 -9.5t-124 -13t-104.5 -16.5t-64 -17.5q-23 -10 -28 0zM64 350q-5 10 2.5 28.5t26 39 t42.5 33.5q16 10 75.5 21t133.5 24q35 61 64.5 111t50.5 73q33 37 79 55.5t81.5 18.5t46 -18.5t-28.5 -55.5q-18 -16 -52 -59t-75 -99q72 10 125 16.5t67 4.5q39 -4 49.5 -30t4.5 -54.5t-25.5 -49t-38.5 -14.5q-33 10 -107.5 11.5t-160.5 -5.5l-166 -231 q-14 -18 -30.5 -27.5t-30 -9.5t-19.5 10.5t0 28.5q8 18 37 79.5t68 135.5q-66 -10 -117 -18.5t-74 -18.5t-28 0z" />
<glyph unicode="&#xb2;" horiz-adv-x="677" d="M-15 390.5q-5 15.5 10 42t46 55t59 40.5q78 33 160 88.5t158 122t140.5 138t109.5 134t65.5 109.5t5.5 68q-20 29 -58 21.5t-84 -38t-94 -80t-88 -103.5t-65.5 -110.5t-25.5 -101.5q0 -20 -21.5 -16t-46.5 22.5t-44 47t-15 59.5q4 39 44 100.5t104.5 120.5t148.5 108.5 t174 65.5q39 6 78.5 -11.5t71.5 -49t49.5 -71.5t11.5 -79t-42 -90t-90.5 -106.5t-121 -111.5t-134 -106.5t-131 -92.5t-108.5 -66q55 18 114.5 39.5t110.5 37t89 22.5t52 1t16.5 -35.5t-5.5 -61.5t-24.5 -52.5t-39.5 -8.5t-92.5 10.5t-153 -11t-163.5 -24t-123 -28.5 t-48 1.5z" />
<glyph unicode="&#xb3;" horiz-adv-x="712" d="M61 604q0 27 19.5 55.5t42 48t41 23.5t18.5 -18q-4 -47 14.5 -95.5t52.5 -85t82 -55t105 -6.5q41 10 68.5 35.5t42 57.5t16.5 66t-6 58q-20 59 -74.5 78.5t-115.5 -10.5q-10 -4 -18.5 8t-10.5 31.5t6 41t29 33.5q14 8 51 26.5t83 44.5t93 54.5t82 58t49 58.5t-4 51 q-29 35 -80 27t-100 -37t-85 -67.5t-36 -63.5q0 -23 -22.5 -23t-50 12.5t-49 33t-19.5 42.5q2 23 39.5 52.5t90 58.5t110 51.5t100.5 28.5t89 -22.5t80.5 -72.5t52 -95.5t3.5 -88.5q-16 -37 -63.5 -61.5t-104.5 -40.5t-115.5 -30.5t-95.5 -28.5q47 6 92 1t83 -22.5 t64.5 -47.5t34.5 -73q6 -31 -3 -71.5t-38.5 -80.5t-80 -77t-125.5 -57q-80 -23 -159 -15t-140.5 38t-99.5 75t-38 96z" />
<glyph unicode="&#xb4;" horiz-adv-x="540" d="M22.5 933.5q4.5 18.5 19 43.5t34.5 43q16 14 63 45t102.5 62.5t105.5 55t71 23.5q23 0 46 -21.5t38.5 -47t16.5 -46t-23 -18.5q-23 2 -74 -11t-114.5 -35.5t-131 -53.5t-123.5 -64q-20 -12 -27.5 -3t-3 27.5z" />
<glyph unicode="&#xb5;" horiz-adv-x="862" d="M-440 -264q2 12 22.5 54t52 97.5t69.5 120t74 121.5t66.5 103.5t46.5 64.5q31 61 80 135t104.5 145.5t109 134t94.5 101.5q18 18 45.5 15t50 -15t34 -29.5t-2.5 -31.5q-29 -31 -76 -87.5t-98.5 -123t-103.5 -137t-91 -131t-61.5 -102.5t-14.5 -52t41 13.5t80 70.5 t105.5 110.5t120 132t120.5 136t107.5 122t83.5 90.5t45 40q16 6 37.5 -5.5t39 -30t23.5 -39t-6 -32.5q-8 -10 -37 -55t-67 -107.5t-78.5 -134.5t-72.5 -133t-50.5 -104t-10.5 -50q8 -6 39 12.5t73 52.5t91 75t93 79.5t78 69.5t46 43q18 18 41 27.5t39 10.5t20.5 -8 t-14.5 -30q-33 -33 -78 -81t-94 -101t-100 -105.5t-96 -94.5t-82 -67.5t-58 -25.5q-16 0 -35.5 14.5t-37 38t-27.5 55t-10 66.5q0 31 20.5 82t46 103.5t50 96.5t34.5 64q-27 -33 -64.5 -81t-80.5 -103t-88 -110.5t-86 -102.5t-74 -79t-51 -40q-25 -10 -50.5 -3t-48 24.5 t-42 43t-31.5 54.5q-35 -72 -69 -150.5t-59.5 -148.5t-43 -122t-19.5 -69q-4 -25 -23.5 -19.5t-41 26t-37.5 47t-12 49.5z" />
<glyph unicode="&#xb6;" horiz-adv-x="1105" d="M24.5 -251.5q-6.5 18.5 0.5 42.5q4 20 32.5 84t70.5 154t94 196.5t105.5 211t104.5 196.5t92 155q-70 51 -72.5 106.5t39 107t119.5 94.5t171 71.5t191.5 38.5t180.5 -4q23 -4 25 -28.5t-8.5 -52t-30 -47t-37.5 -11.5l-25 6q-27 -33 -69.5 -99.5t-95 -155.5t-111 -192.5 t-115.5 -209t-110.5 -206t-95.5 -183t-69.5 -140t-33.5 -78.5q-6 -20 -20.5 -25t-27 3t-18.5 26.5t0 43.5q4 20 40 101t90.5 195.5t120 250t131 264.5t123.5 238.5t99 172.5q-53 -4 -100 -12q14 -18 -6 -35q-20 -16 -60 -75.5t-92.5 -146.5t-113 -193.5t-121 -218 t-117.5 -219t-103 -197t-76 -152t-36 -82.5t-20.5 -25.5t-26.5 3t-18.5 27z" />
<glyph unicode="&#xb7;" horiz-adv-x="698" d="M211 410q-14 25 3 54.5t48 56t67 45t58 16.5q4 0 19.5 -6.5t31 -15.5t25.5 -21.5t8 -26.5q-6 -20 -21.5 -43t-37 -42t-45 -34.5t-41.5 -21.5q-31 -10 -67 4.5t-48 34.5z" />
<glyph unicode="&#xb8;" horiz-adv-x="530" d="M26.5 -365.5q-12.5 13.5 6.5 13.5q12 0 49 10t83 27.5t95 38t89 41t63.5 38t17.5 27.5q-8 14 -38 14t-64.5 -8t-68.5 -18.5t-52 -14.5t-28.5 9.5t-11.5 32t4 35t17 20.5q12 2 34 13t48.5 30.5t55 48t51.5 69.5q25 43 41 49.5t17 -16t-20.5 -72t-72.5 -118.5q14 4 33 10 q16 4 33.5 7t35.5 3t34 -19.5t24 -47t7 -59t-17 -56.5q-23 -35 -62 -61.5t-83 -48t-85 -36t-67 -20.5q-27 -6 -63 4t-64.5 25.5t-41 29z" />
<glyph unicode="&#xb9;" horiz-adv-x="460" d="M127 444q0 23 24.5 74t55.5 103q37 59 82 129q-18 -12 -47 -9.5t-53.5 12t-37 21.5t0.5 19q27 12 68.5 45.5t93 89t109.5 132.5t120 177q18 33 50 49.5t59.5 17.5t42 -10.5t-0.5 -36.5q-10 -16 -43 -69t-77 -128t-94 -165t-95 -179t-80 -169t-49 -137q-6 -20 -26.5 -21.5 t-43 6.5t-41 22.5t-18.5 26.5z" />
<glyph unicode="&#xba;" horiz-adv-x="718" d="M88 594q0 45 20.5 110.5t55.5 138t83 146.5t105.5 135.5t119 103.5t124.5 52q57 8 104.5 -11.5t79 -57t46 -89t8.5 -106.5q-6 -43 -26 -102.5t-50.5 -126t-71.5 -133t-86 -123t-94 -96.5t-98 -52q-72 -18 -130.5 -9t-100.5 38.5t-65.5 76t-23.5 105.5zM182 608.5 q-23 -73.5 8 -110.5q25 -31 66 -25t89 38t100.5 85t101.5 114.5t92 127t71.5 125t40 105.5t-2.5 69q-27 45 -86.5 24.5t-131 -79t-145.5 -143.5t-127 -171t-76 -159.5z" />
<glyph unicode="&#xbb;" horiz-adv-x="1255" d="M138 257q-9 13 0 43t34 66.5t57 61.5q31 20 83.5 40.5t104.5 37t92 27t44 12.5q-8 2 -33.5 11t-56.5 21.5t-58.5 25.5t-37.5 24q-18 18 -16.5 43.5t16 47t35 31t38.5 -5.5q12 -10 48 -33.5t77 -48t79 -43t56 -20.5q25 -2 28 -20.5t-10 -41t-38 -44t-55 -29.5 q-31 -8 -95.5 -37t-135 -60.5t-131.5 -61.5t-81 -42q-35 -18 -44 -5zM548 257q-9 13 0 43t33.5 66.5t57.5 61.5q31 20 83 40.5t104.5 37t92 27t44.5 12.5q-8 2 -34 11t-56.5 21.5t-58.5 25.5t-38 24q-18 18 -16 43.5t16.5 47t34.5 31t39 -5.5q12 -10 48 -33.5t77 -48t79 -43 t56 -20.5q25 -2 28 -20.5t-10.5 -41t-38 -44t-55.5 -29.5t-95.5 -37t-135 -60.5t-131 -61.5t-80.5 -42q-35 -18 -44 -5z" />
<glyph unicode="&#xbc;" horiz-adv-x="1492" d="M11 -108.5q1 20.5 22 47.5q41 55 106.5 131.5t146.5 167t172 187.5t184 192.5t182 183.5t167 158.5t137.5 118t92.5 61.5q47 20 103 20t99 -10t58.5 -28.5t-21.5 -35.5q-74 -33 -167 -94t-194.5 -141t-209 -173t-211 -189.5t-199.5 -190.5t-176 -176t-138.5 -147.5 t-88.5 -104.5q-12 -16 -28.5 -18.5t-27 9t-9.5 32zM168 444q0 23 24.5 74t55.5 103q37 59 82 129q-18 -12 -47 -9.5t-53.5 12t-37 21.5t0.5 19q27 12 68.5 45.5t93 89t109.5 132.5t120 177q18 33 50 49.5t59.5 17.5t42 -10.5t-0.5 -36.5q-10 -16 -43 -69t-77 -128t-94 -165 t-95 -179t-80 -169t-49 -137q-6 -20 -26.5 -21.5t-43 6.5t-41 22.5t-18.5 26.5zM456 55.5q5 30.5 21.5 61t40.5 43.5q86 47 223.5 165t327.5 341q16 18 58 21t83 -4t68 -22.5t12 -33.5q-18 -23 -49 -68t-69.5 -103.5t-81.5 -127t-84 -138.5q57 20 81 15q27 -8 43.5 -43 t20.5 -70t-8.5 -55.5t-42.5 2.5q-23 16 -69 17t-105 -3q-47 -82 -75 -144.5t-24 -84.5q4 -35 -17.5 -40t-48 7t-49 35.5t-22.5 46.5t14.5 50.5t30.5 49.5q20 27 47 56q-37 -6 -80 -12.5t-85 -12.5t-76.5 -10t-53.5 -8q-23 -4 -29.5 17.5t-1.5 52zM592 72q18 6 51 16t69 21.5 t67.5 21.5t45.5 16q16 10 53 56.5t77 101.5t77 108.5t53 78.5q-53 -57 -128.5 -125t-149.5 -129.5t-133 -107.5t-82 -58z" />
<glyph unicode="&#xbd;" horiz-adv-x="1574" d="M11 -108.5q1 20.5 22 47.5q41 55 106.5 131.5t146.5 167t172 187.5t184 192.5t182 183.5t167 158.5t137.5 118t92.5 61.5q47 20 103 20t99 -10t58.5 -28.5t-21.5 -35.5q-74 -33 -167 -94t-194.5 -141t-209 -173t-211 -189.5t-199.5 -190.5t-176 -176t-138.5 -147.5 t-88.5 -104.5q-12 -16 -28.5 -18.5t-27 9t-9.5 32zM168 444q0 23 24.5 74t55.5 103q37 59 82 129q-18 -12 -47 -9.5t-53.5 12t-37 21.5t0.5 19q27 12 68.5 45.5t93 89t109.5 132.5t120 177q18 33 50 49.5t59.5 17.5t42 -10.5t-0.5 -36.5q-10 -16 -43 -69t-77 -128t-94 -165 t-95 -179t-80 -169t-49 -137q-6 -20 -26.5 -21.5t-43 6.5t-41 22.5t-18.5 26.5zM468 -224q-5 15 10.5 41.5t46 55.5t59.5 41q78 33 159.5 88t157.5 121.5t141.5 138.5t109.5 134.5t64.5 109.5t6.5 67q-20 29 -58.5 22t-84.5 -38t-94 -80t-88 -103.5t-65.5 -110.5t-25.5 -101 q0 -20 -21.5 -16t-46 22t-44 47t-15.5 59q4 39 44 100.5t104.5 121t148.5 108.5t174 66q39 6 79 -11.5t71.5 -49t49 -71.5t11.5 -79t-42 -90.5t-90 -106.5t-121 -111.5t-134.5 -106.5t-131 -92t-108.5 -67q55 18 114.5 40t111 37t89 22.5t52.5 1.5q14 -6 16 -36t-6 -61.5 t-24.5 -52t-38.5 -8.5q-23 12 -92.5 10t-153.5 -11t-164 -23.5t-123 -28.5t-48 1z" />
<glyph unicode="&#xbe;" horiz-adv-x="1759" d="M102 604q0 27 19.5 55.5t42 48t41 23.5t18.5 -18q-4 -47 14.5 -95.5t52.5 -85t82 -55t105 -6.5q41 10 68.5 35.5t42 57.5t16.5 66t-6 58q-20 59 -74.5 78.5t-115.5 -10.5q-10 -4 -18.5 8t-10.5 31.5t6 41t29 33.5q14 8 51 26.5t83 44.5t93 54.5t82 58t49 58.5t-4 51 q-29 35 -80 27t-100 -37t-85 -67.5t-36 -63.5q0 -23 -22.5 -23t-50 12.5t-49 33t-19.5 42.5q2 23 39.5 52.5t90 58.5t110 51.5t100.5 28.5t89 -22.5t80.5 -72.5t52 -95.5t3.5 -88.5q-16 -37 -63.5 -61.5t-104.5 -40.5t-115.5 -30.5t-95.5 -28.5q47 6 92 1t83 -22.5 t64.5 -47.5t34.5 -73q6 -31 -3 -71.5t-38.5 -80.5t-80 -77t-125.5 -57q-80 -23 -159 -15t-140.5 38t-99.5 75t-38 96zM263 -108.5q1 20.5 22 47.5q41 55 106.5 131.5t146 167t172 187.5t184.5 192.5t182 183.5t167 158.5t137.5 118t92.5 61.5q47 20 103 20t99 -10 t58.5 -28.5t-21.5 -35.5q-74 -33 -167 -94t-194.5 -141t-209 -173t-211 -189.5t-199.5 -190.5t-176 -176t-138.5 -147.5t-88.5 -104.5q-12 -16 -28.5 -18.5t-27 9t-9.5 32zM707.5 55.5q5.5 30.5 21.5 61t41 43.5q86 47 223.5 165t327.5 341q16 18 58 21t83 -4t67.5 -22.5 t12.5 -33.5q-18 -23 -49 -68t-70 -103.5t-82 -127t-84 -138.5q57 20 82 15q27 -8 43.5 -43t20.5 -70t-8.5 -55.5t-42.5 2.5q-23 16 -69 17t-105 -3q-47 -82 -75 -144.5t-24 -84.5q4 -35 -17.5 -40t-48 7t-49 35.5t-22.5 46.5t14.5 50.5t30.5 49.5q20 27 47 56 q-37 -6 -80 -12.5t-85 -12.5t-76.5 -10t-53.5 -8q-23 -4 -30 17.5t-1.5 52zM844 72q18 6 51 16t68.5 21.5t67.5 21.5t46 16q16 10 53 56.5t77 101.5t77 108.5t53 78.5q-53 -57 -128.5 -125t-149.5 -129.5t-133 -107.5t-82 -58z" />
<glyph unicode="&#xbf;" horiz-adv-x="1101" d="M90 243.5q2 61.5 45 114.5q47 57 111.5 99.5t137.5 76t147.5 63.5t141 61.5t121 70.5t85.5 92q10 18 26.5 5t27.5 -41.5t8 -65.5t-30 -68q-35 -37 -98 -70.5t-138 -68.5t-154 -70.5t-145.5 -79t-113.5 -94.5t-55 -114q-4 -35 20.5 -44.5t66.5 -1t95 32t105.5 56 t97.5 71.5t72 78q23 35 44 24.5t31.5 -43t5 -77.5t-35.5 -78q-29 -33 -81.5 -63.5t-113.5 -55t-125.5 -39t-120.5 -12.5q-47 2 -90 38t-66.5 89t-21.5 114.5zM918 1073.5q0 22.5 18 46.5q18 25 50 40.5t63.5 21.5t57.5 0t36 -25q10 -20 0 -49t-30.5 -54.5t-49 -44 t-55.5 -18.5q-23 0 -44.5 11.5t-33.5 30t-12 41z" />
<glyph unicode="&#xc0;" horiz-adv-x="1865" d="M27.5 -38.5q-4.5 22.5 8.5 60t41.5 78.5t67.5 62q18 8 74.5 26.5t138.5 40t184.5 44t211.5 40.5q96 92 202.5 190.5t213 195t206 184.5t181 158.5t140 116.5t81.5 61q27 14 67.5 7t74.5 -28.5t52.5 -50.5t1.5 -55q-6 -8 -34.5 -61.5t-72.5 -136.5t-96.5 -188.5 t-105.5 -216t-100 -220t-82 -203t-49.5 -161t-1.5 -95.5q18 -41 -3.5 -48.5t-57.5 11t-71.5 56.5t-44.5 89q-6 41 32 134t102 210q-68 6 -210.5 -2t-326.5 -43q-143 -145 -248.5 -271t-140.5 -210q-10 -25 -30.5 -17.5t-38 36t-27 69.5t3.5 84q6 23 66.5 89t158.5 163 q-133 -35 -268 -85t-265 -120q-31 -16 -35.5 6.5zM981 346q78 8 148.5 11t136.5 -1q25 -2 65.5 -21.5t73.5 -39.5q47 86 100.5 177t105.5 178t99 165t83 138.5t55.5 97t15.5 43.5q-4 4 -44 -23t-104.5 -78t-150.5 -122.5t-182.5 -156.5t-200 -179.5t-201.5 -188.5z M1753 1472q6 33 20.5 61t32 40t25.5 -10q6 -20 25.5 -54t50 -71t73.5 -74t97 -66q20 -12 17 -22t-20.5 -17.5t-45 -9.5t-54.5 4q-20 4 -52 24.5t-64.5 47.5t-59 53.5t-39.5 42.5q-12 18 -6 51z" />
<glyph unicode="&#xc1;" horiz-adv-x="1865" d="M27.5 -38.5q-4.5 22.5 8.5 60t41.5 78.5t67.5 62q18 8 74.5 26.5t138.5 40t184.5 44t211.5 40.5q96 92 202.5 190.5t213 195t206 184.5t181 158.5t140 116.5t81.5 61q27 14 67.5 7t74.5 -28.5t52.5 -50.5t1.5 -55q-6 -8 -34.5 -61.5t-72.5 -136.5t-96.5 -188.5 t-105.5 -216t-100 -220t-82 -203t-49.5 -161t-1.5 -95.5q18 -41 -3.5 -48.5t-57.5 11t-71.5 56.5t-44.5 89q-6 41 32 134t102 210q-68 6 -210.5 -2t-326.5 -43q-143 -145 -248.5 -271t-140.5 -210q-10 -25 -30.5 -17.5t-38 36t-27 69.5t3.5 84q6 23 66.5 89t158.5 163 q-133 -35 -268 -85t-265 -120q-31 -16 -35.5 6.5zM981 346q78 8 148.5 11t136.5 -1q25 -2 65.5 -21.5t73.5 -39.5q47 86 100.5 177t105.5 178t99 165t83 138.5t55.5 97t15.5 43.5q-4 4 -44 -23t-104.5 -78t-150.5 -122.5t-182.5 -156.5t-200 -179.5t-201.5 -188.5z M1755 1282q4 18 18.5 43t34.5 43q16 14 63.5 45t103 62.5t105.5 55t70 23.5q23 0 46.5 -21.5t39 -47t16.5 -46t-24 -18.5q-23 2 -74 -11t-114.5 -35.5t-131 -53.5t-122.5 -64q-20 -12 -27.5 -2.5t-3.5 27.5z" />
<glyph unicode="&#xc2;" horiz-adv-x="1865" d="M27.5 -38.5q-4.5 22.5 8.5 60t41.5 78.5t67.5 62q18 8 74.5 26.5t138.5 40t184.5 44t211.5 40.5q96 92 202.5 190.5t213 195t206 184.5t181 158.5t140 116.5t81.5 61q27 14 67.5 7t74.5 -28.5t52.5 -50.5t1.5 -55q-6 -8 -34.5 -61.5t-72.5 -136.5t-96.5 -188.5 t-105.5 -216t-100 -220t-82 -203t-49.5 -161t-1.5 -95.5q18 -41 -3.5 -48.5t-57.5 11t-71.5 56.5t-44.5 89q-6 41 32 134t102 210q-68 6 -210.5 -2t-326.5 -43q-143 -145 -248.5 -271t-140.5 -210q-10 -25 -30.5 -17.5t-38 36t-27 69.5t3.5 84q6 23 66.5 89t158.5 163 q-133 -35 -268 -85t-265 -120q-31 -16 -35.5 6.5zM981 346q78 8 148.5 11t136.5 -1q25 -2 65.5 -21.5t73.5 -39.5q47 86 100.5 177t105.5 178t99 165t83 138.5t55.5 97t15.5 43.5q-4 4 -44 -23t-104.5 -78t-150.5 -122.5t-182.5 -156.5t-200 -179.5t-201.5 -188.5z M1696 1309.5q0 13.5 14 19.5q23 8 67 36t93 60.5t94 65.5t70 53t56.5 27.5t58 3.5t39 -17.5t-0.5 -33.5q-10 -16 -21.5 -47t-21.5 -64t-16 -63.5t-6 -46.5q0 -12 -18.5 -22.5t-42 -13.5t-44 0t-20.5 19q-2 14 8 44t22.5 62.5t25.5 59.5t18 35q-8 -10 -45 -48t-82.5 -79 t-89.5 -75t-66 -34q-27 0 -48.5 10.5t-32.5 22.5t-11 25.5z" />
<glyph unicode="&#xc3;" horiz-adv-x="1865" d="M27.5 -38.5q-4.5 22.5 8.5 60t41.5 78.5t67.5 62q18 8 74.5 26.5t138.5 40t184.5 44t211.5 40.5q96 92 202.5 190.5t213 195t206 184.5t181 158.5t140 116.5t81.5 61q27 14 67.5 7t74.5 -28.5t52.5 -50.5t1.5 -55q-6 -8 -34.5 -61.5t-72.5 -136.5t-96.5 -188.5 t-105.5 -216t-100 -220t-82 -203t-49.5 -161t-1.5 -95.5q18 -41 -3.5 -48.5t-57.5 11t-71.5 56.5t-44.5 89q-6 41 32 134t102 210q-68 6 -210.5 -2t-326.5 -43q-143 -145 -248.5 -271t-140.5 -210q-10 -25 -30.5 -17.5t-38 36t-27 69.5t3.5 84q6 23 66.5 89t158.5 163 q-133 -35 -268 -85t-265 -120q-31 -16 -35.5 6.5zM981 346q78 8 148.5 11t136.5 -1q25 -2 65.5 -21.5t73.5 -39.5q47 86 100.5 177t105.5 178t99 165t83 138.5t55.5 97t15.5 43.5q-4 4 -44 -23t-104.5 -78t-150.5 -122.5t-182.5 -156.5t-200 -179.5t-201.5 -188.5z M1628 1299.5q-8 13.5 6 21.5q20 12 58.5 40t78 58.5t75.5 58t55 42.5q14 10 37.5 18t44 9t33 -5t3.5 -22q-10 -18 -19 -43t-14.5 -47.5t-6.5 -40t10 -19.5q20 -6 47.5 12.5t52.5 47t43 61.5t25 57q2 12 24.5 10t46 -14t36.5 -34.5t-5 -53.5q-16 -31 -64.5 -66.5 t-102.5 -64.5t-103.5 -45t-69.5 -6q-31 14 -48.5 45t-12.5 78q-6 2 -19.5 -15.5t-32 -41t-38 -46t-35.5 -30.5t-38 -3t-40.5 15t-26.5 23.5z" />
<glyph unicode="&#xc4;" horiz-adv-x="1865" d="M27.5 -38.5q-4.5 22.5 8.5 60t41.5 78.5t67.5 62q18 8 74.5 26.5t138.5 40t184.5 44t211.5 40.5q96 92 202.5 190.5t213 195t206 184.5t181 158.5t140 116.5t81.5 61q27 14 67.5 7t74.5 -28.5t52.5 -50.5t1.5 -55q-6 -8 -34.5 -61.5t-72.5 -136.5t-96.5 -188.5 t-105.5 -216t-100 -220t-82 -203t-49.5 -161t-1.5 -95.5q18 -41 -3.5 -48.5t-57.5 11t-71.5 56.5t-44.5 89q-6 41 32 134t102 210q-68 6 -210.5 -2t-326.5 -43q-143 -145 -248.5 -271t-140.5 -210q-10 -25 -30.5 -17.5t-38 36t-27 69.5t3.5 84q6 23 66.5 89t158.5 163 q-133 -35 -268 -85t-265 -120q-31 -16 -35.5 6.5zM981 346q78 8 148.5 11t136.5 -1q25 -2 65.5 -21.5t73.5 -39.5q47 86 100.5 177t105.5 178t99 165t83 138.5t55.5 97t15.5 43.5q-4 4 -44 -23t-104.5 -78t-150.5 -122.5t-182.5 -156.5t-200 -179.5t-201.5 -188.5z M1706 1362q-12 23 3 51.5t44 53t61.5 42t55.5 15.5q4 0 18.5 -5.5t28.5 -14.5t24.5 -20t6.5 -26q-4 -18 -21.5 -39.5t-39 -40t-45 -32t-42.5 -19.5q-29 -10 -56.5 4.5t-37.5 30.5zM1954 1372q-14 25 3 54.5t48 56t66.5 45t58.5 16.5q4 0 19.5 -6t30.5 -15.5t25.5 -21.5 t8.5 -26q-6 -20 -21.5 -43t-37 -42.5t-45 -35t-42.5 -21.5q-31 -10 -66.5 4.5t-47.5 34.5z" />
<glyph unicode="&#xc5;" horiz-adv-x="1865" d="M27.5 -38.5q-4.5 22.5 8.5 60t41.5 78.5t67.5 62q18 8 74.5 26.5t138.5 40t184.5 44t211.5 40.5q96 92 202.5 190.5t213 195t206 184.5t181 158.5t140 116.5t81.5 61q27 14 67.5 7t74.5 -28.5t52.5 -50.5t1.5 -55q-6 -8 -34.5 -61.5t-72.5 -136.5t-96.5 -188.5 t-105.5 -216t-100 -220t-82 -203t-49.5 -161t-1.5 -95.5q18 -41 -3.5 -48.5t-57.5 11t-71.5 56.5t-44.5 89q-6 41 32 134t102 210q-68 6 -210.5 -2t-326.5 -43q-143 -145 -248.5 -271t-140.5 -210q-10 -25 -30.5 -17.5t-38 36t-27 69.5t3.5 84q6 23 66.5 89t158.5 163 q-133 -35 -268 -85t-265 -120q-31 -16 -35.5 6.5zM981 346q78 8 148.5 11t136.5 -1q25 -2 65.5 -21.5t73.5 -39.5q47 86 100.5 177t105.5 178t99 165t83 138.5t55.5 97t15.5 43.5q-4 4 -44 -23t-104.5 -78t-150.5 -122.5t-182.5 -156.5t-200 -179.5t-201.5 -188.5z M1820.5 1327.5q-8.5 32.5 4 66t40 68.5t59.5 66t62.5 55.5t49.5 38.5q10 10 25.5 3t25.5 -19q27 8 50.5 7t39.5 -7q63 -23 75.5 -63t-9 -86t-67.5 -90t-101.5 -73.5t-110.5 -39t-94 15.5q-41 25 -49.5 57.5zM1913.5 1376q-11.5 -23 11.5 -39q18 -14 58 2.5t74 48t47.5 72.5 t-19.5 76q-31 -27 -68 -55.5t-64.5 -55t-39 -49.5z" />
<glyph unicode="&#xc6;" horiz-adv-x="2418" d="M27.5 -38.5q-4.5 22.5 8.5 60t41.5 78.5t67.5 62q12 6 70.5 26.5t149 48t206 62.5t244.5 72q94 90 196.5 184t202 183t191.5 171t168 146.5t129 107.5t76 56q23 12 55.5 9t64 -18.5t55 -37t27.5 -46.5q209 43 381 85t295 42q47 0 90 -17t69 -38.5t28 -40t-31 -20.5 q-217 -16 -429 -52t-417 -90q-12 -31 -38.5 -73.5t-63.5 -94t-81 -108.5t-93 -119q137 29 213 35q41 2 95 -13.5t88 -35t29.5 -35.5t-77.5 -14q-27 0 -155 -25t-316 -68q-72 -90 -135.5 -175t-107.5 -156.5t-62.5 -125t2.5 -77.5q33 -39 103.5 -36t161.5 31.5t191.5 78 t190.5 104.5t160.5 111.5t101.5 97.5q23 31 41 23.5t23.5 -39t-5 -80.5t-47.5 -103q-20 -31 -73.5 -67.5t-124 -74.5t-153.5 -73t-161 -62.5t-144.5 -46t-107.5 -20.5q-57 -4 -108 19.5t-88 65.5t-53.5 97.5t-6.5 114.5q10 53 62.5 143.5t130.5 198.5q-109 -27 -222.5 -57.5 t-230.5 -65.5q-80 -80 -152.5 -155.5t-131 -145t-99.5 -129t-59 -104.5q-10 -25 -30.5 -17.5t-38 36t-27 69.5t3.5 84q6 23 73.5 95.5t171.5 176.5q-160 -53 -301 -109.5t-252 -115.5q-31 -16 -35.5 6.5zM1090 449q98 29 193 53t185 47q57 78 117 155.5t110 148.5t90 131 t62 103q-29 -16 -104.5 -73.5t-179 -144.5t-226 -195t-247.5 -225z" />
<glyph unicode="&#xc7;" horiz-adv-x="1368" d="M-14.5 -554q-12.5 13 6.5 13q12 0 49 10.5t83 28t95 38t89 41t63.5 37.5t17.5 28q-8 14 -37.5 14t-64.5 -8t-69 -18.5t-52 -14.5t-28.5 9.5t-11.5 31.5t4 34.5t17 20.5q23 6 58 33t69 68q-109 47 -176 127.5t-75 189.5q-6 66 37.5 167t125.5 215t198 231.5t257 218 t303 173t334 97.5q117 16 194.5 3t123.5 -43t63.5 -70t15.5 -72q-4 -35 -62.5 -85.5t-136 -107.5t-153.5 -118.5t-113 -116.5q-14 -20 -41.5 -11.5t-49 34.5t-31 60.5t13.5 65.5q20 29 64 60.5t97.5 63.5t107.5 63.5t94 60.5t58.5 55.5t0.5 48.5q-35 41 -117 32t-201 -50 q-100 -35 -208.5 -96.5t-215 -140.5t-205 -169t-177 -184t-133 -187.5t-72 -176t6 -150.5t101.5 -113q47 -29 113.5 -28.5t139.5 19t145.5 50t132 67.5t99.5 72.5t48 63.5q10 35 38 31t51.5 -30t32.5 -62.5t-16 -69.5q-23 -31 -81 -73t-131.5 -79.5t-154.5 -65.5t-151 -28 q-121 0 -221 31q-8 -12 -19.5 -29.5t-27.5 -40.5q14 4 33 11q16 4 33.5 7t35.5 3t34 -19.5t24 -47t7 -59.5t-17 -56q-23 -35 -62 -62t-83 -48.5t-85 -35.5t-67 -20q-27 -6 -63 4t-64.5 25.5t-41 28.5z" />
<glyph unicode="&#xc8;" horiz-adv-x="1402" d="M20.5 663.5q-2.5 26.5 24.5 72.5t73 96.5t95 74.5q74 35 188.5 73t248.5 74t279.5 67.5t282 55t254 38t199.5 14.5q47 0 83 -13.5t53.5 -31t12 -31.5t-37.5 -16q-242 -16 -480.5 -60.5t-468.5 -109.5q16 -27 29.5 -58.5t9.5 -60.5q-6 -41 -52 -107.5t-114 -148.5 q57 18 102.5 29.5t71.5 13.5q39 2 86.5 -13.5t78 -36t32.5 -39t-49 -22.5q-84 -10 -212 -39.5t-265 -70.5q-72 -80 -138.5 -159t-113.5 -146.5t-67.5 -119.5t1.5 -79q33 -39 103.5 -36t162 31.5t191.5 78t190.5 104.5t161 111.5t101.5 97.5q23 31 41 23.5t23 -39t-5 -80.5 t-47 -103q-20 -31 -73.5 -67.5t-124 -74.5t-153.5 -73t-161 -62.5t-144.5 -46t-107.5 -20.5q-57 -4 -108.5 19.5t-88 65.5t-53 97.5t-6.5 114.5q10 51 53 123t107 156q-66 -23 -120 -46.5t-89 -43.5q-33 -18 -43 -11t-4 25t25.5 43t45.5 41q43 29 125 66.5t181 78.5 q55 68 110 135.5t102.5 128t82 111.5t49.5 86q-186 -59 -358.5 -130t-325.5 -152q-47 -25 -49.5 1.5zM899 1468q6 33 20.5 60.5t32 40t25.5 -9.5q6 -20 25.5 -54.5t50 -71t73.5 -73.5t97 -66q20 -12 17 -22t-20.5 -17.5t-45 -9.5t-54.5 4q-20 4 -52 24.5t-64.5 47.5 t-59 53.5t-39.5 42.5q-12 18 -6 51z" />
<glyph unicode="&#xc9;" horiz-adv-x="1402" d="M20.5 663.5q-2.5 26.5 24.5 72.5t73 96.5t95 74.5q74 35 188.5 73t248.5 74t279.5 67.5t282 55t254 38t199.5 14.5q47 0 83 -13.5t53.5 -31t12 -31.5t-37.5 -16q-242 -16 -480.5 -60.5t-468.5 -109.5q16 -27 29.5 -58.5t9.5 -60.5q-6 -41 -52 -107.5t-114 -148.5 q57 18 102.5 29.5t71.5 13.5q39 2 86.5 -13.5t78 -36t32.5 -39t-49 -22.5q-84 -10 -212 -39.5t-265 -70.5q-72 -80 -138.5 -159t-113.5 -146.5t-67.5 -119.5t1.5 -79q33 -39 103.5 -36t162 31.5t191.5 78t190.5 104.5t161 111.5t101.5 97.5q23 31 41 23.5t23 -39t-5 -80.5 t-47 -103q-20 -31 -73.5 -67.5t-124 -74.5t-153.5 -73t-161 -62.5t-144.5 -46t-107.5 -20.5q-57 -4 -108.5 19.5t-88 65.5t-53 97.5t-6.5 114.5q10 51 53 123t107 156q-66 -23 -120 -46.5t-89 -43.5q-33 -18 -43 -11t-4 25t25.5 43t45.5 41q43 29 125 66.5t181 78.5 q55 68 110 135.5t102.5 128t82 111.5t49.5 86q-186 -59 -358.5 -130t-325.5 -152q-47 -25 -49.5 1.5zM868 1224.5q4 18.5 19 43.5t35 43q16 14 63 44.5t102.5 62.5t105.5 55.5t71 23.5q23 0 46 -21.5t38.5 -47t16.5 -46t-24 -18.5q-23 2 -73.5 -11.5t-114 -36t-131.5 -53 t-123 -63.5q-20 -12 -27.5 -3t-3.5 27.5z" />
<glyph unicode="&#xca;" horiz-adv-x="1402" d="M20.5 663.5q-2.5 26.5 24.5 72.5t73 96.5t95 74.5q74 35 188.5 73t248.5 74t279.5 67.5t282 55t254 38t199.5 14.5q47 0 83 -13.5t53.5 -31t12 -31.5t-37.5 -16q-242 -16 -480.5 -60.5t-468.5 -109.5q16 -27 29.5 -58.5t9.5 -60.5q-6 -41 -52 -107.5t-114 -148.5 q57 18 102.5 29.5t71.5 13.5q39 2 86.5 -13.5t78 -36t32.5 -39t-49 -22.5q-84 -10 -212 -39.5t-265 -70.5q-72 -80 -138.5 -159t-113.5 -146.5t-67.5 -119.5t1.5 -79q33 -39 103.5 -36t162 31.5t191.5 78t190.5 104.5t161 111.5t101.5 97.5q23 31 41 23.5t23 -39t-5 -80.5 t-47 -103q-20 -31 -73.5 -67.5t-124 -74.5t-153.5 -73t-161 -62.5t-144.5 -46t-107.5 -20.5q-57 -4 -108.5 19.5t-88 65.5t-53 97.5t-6.5 114.5q10 51 53 123t107 156q-66 -23 -120 -46.5t-89 -43.5q-33 -18 -43 -11t-4 25t25.5 43t45.5 41q43 29 125 66.5t181 78.5 q55 68 110 135.5t102.5 128t82 111.5t49.5 86q-186 -59 -358.5 -130t-325.5 -152q-47 -25 -49.5 1.5zM817 1226.5q-2 12.5 10 20.5q20 12 60.5 45t84.5 73t84 78t62 62q20 25 52 36t57.5 11t41 -11t5.5 -34q-6 -16 -14.5 -48t-13.5 -66.5t-8 -66.5t1 -46q2 -12 -15.5 -24.5 t-40 -20.5t-43 -7t-22.5 17q-4 16 3 52t18 71q12 41 28 90q-53 -76 -102 -135q-41 -51 -83 -94t-67 -47q-27 -4 -48 3t-34.5 18t-15.5 23.5z" />
<glyph unicode="&#xcb;" horiz-adv-x="1402" d="M20.5 663.5q-2.5 26.5 24.5 72.5t73 96.5t95 74.5q74 35 188.5 73t248.5 74t279.5 67.5t282 55t254 38t199.5 14.5q47 0 83 -13.5t53.5 -31t12 -31.5t-37.5 -16q-242 -16 -480.5 -60.5t-468.5 -109.5q16 -27 29.5 -58.5t9.5 -60.5q-6 -41 -52 -107.5t-114 -148.5 q57 18 102.5 29.5t71.5 13.5q39 2 86.5 -13.5t78 -36t32.5 -39t-49 -22.5q-84 -10 -212 -39.5t-265 -70.5q-72 -80 -138.5 -159t-113.5 -146.5t-67.5 -119.5t1.5 -79q33 -39 103.5 -36t162 31.5t191.5 78t190.5 104.5t161 111.5t101.5 97.5q23 31 41 23.5t23 -39t-5 -80.5 t-47 -103q-20 -31 -73.5 -67.5t-124 -74.5t-153.5 -73t-161 -62.5t-144.5 -46t-107.5 -20.5q-57 -4 -108.5 19.5t-88 65.5t-53 97.5t-6.5 114.5q10 51 53 123t107 156q-66 -23 -120 -46.5t-89 -43.5q-33 -18 -43 -11t-4 25t25.5 43t45.5 41q43 29 125 66.5t181 78.5 q55 68 110 135.5t102.5 128t82 111.5t49.5 86q-186 -59 -358.5 -130t-325.5 -152q-47 -25 -49.5 1.5zM866 1278q-12 23 3.5 51.5t44 53t61.5 42t55 15.5q4 0 18.5 -5t29 -14.5t24.5 -20.5t6 -26q-4 -18 -21.5 -39.5t-39 -40t-45 -32t-41.5 -19.5q-29 -10 -57 4.5t-38 30.5z M1114 1288q-14 25 3.5 54.5t48 56t66.5 45t58 16.5q4 0 19.5 -6t31 -15t25.5 -21.5t8 -26.5q-6 -20 -21.5 -43t-37 -42.5t-45 -35t-41.5 -21.5q-31 -10 -67 4.5t-48 34.5z" />
<glyph unicode="&#xcc;" horiz-adv-x="1173" d="M25 -131q10 12 51 27.5t99 32t127 31.5t134 30q-16 12 -26.5 31.5t-6.5 46.5q2 18 38 81.5t91.5 150.5t125 189.5t137 200.5t126 182t95.5 136q-86 -35 -140.5 -64t-72.5 -41q-20 -12 -52 -3t-58.5 29.5t-39 44.5t5.5 38t72.5 36.5t127.5 48t155 52.5t154.5 48.5 t129 34.5t74.5 15q20 2 49 -12t50.5 -32.5t28.5 -35t-13 -20.5q-109 -20 -204 -48t-175 -57q20 -25 30.5 -57.5t-10.5 -52.5q-12 -12 -53 -67.5t-97 -138.5t-123 -183.5t-129 -198.5t-112.5 -187t-76.5 -149l125 25q18 2 44.5 -9.5t44 -26.5t17.5 -30.5t-33 -21.5 q-35 -6 -120 -32t-180 -56.5t-178 -58t-112 -38.5q-29 -10 -53 2.5t-40.5 34t-25 43t-1.5 29.5zM1010 1495q6 33 20 60.5t31.5 40t25.5 -10.5q6 -20 26 -54t50.5 -71t73.5 -73.5t96 -65.5q20 -12 17.5 -22.5t-20 -17.5t-45 -9t-54.5 4q-20 4 -52 24.5t-65 47t-59.5 53 t-38.5 43.5q-12 18 -6 51z" />
<glyph unicode="&#xcd;" horiz-adv-x="1173" d="M25 -131q10 12 51 27.5t99 32t127 31.5t134 30q-16 12 -26.5 31.5t-6.5 46.5q2 18 38 81.5t91.5 150.5t125 189.5t137 200.5t126 182t95.5 136q-86 -35 -140.5 -64t-72.5 -41q-20 -12 -52 -3t-58.5 29.5t-39 44.5t5.5 38t72.5 36.5t127.5 48t155 52.5t154.5 48.5 t129 34.5t74.5 15q20 2 49 -12t50.5 -32.5t28.5 -35t-13 -20.5q-109 -20 -204 -48t-175 -57q20 -25 30.5 -57.5t-10.5 -52.5q-12 -12 -53 -67.5t-97 -138.5t-123 -183.5t-129 -198.5t-112.5 -187t-76.5 -149l125 25q18 2 44.5 -9.5t44 -26.5t17.5 -30.5t-33 -21.5 q-35 -6 -120 -32t-180 -56.5t-178 -58t-112 -38.5q-29 -10 -53 2.5t-40.5 34t-25 43t-1.5 29.5zM1020 1271.5q4 18.5 18.5 43.5t34.5 43q16 14 63.5 45t102.5 62.5t105.5 55t70.5 23.5q23 0 46.5 -21.5t39 -47t16.5 -46t-24 -18.5q-23 2 -74 -11.5t-114.5 -36t-131 -53 t-122.5 -63.5q-20 -12 -27.5 -3t-3.5 27.5z" />
<glyph unicode="&#xce;" horiz-adv-x="1173" d="M25 -131q10 12 51 27.5t99 32t127 31.5t134 30q-16 12 -26.5 31.5t-6.5 46.5q2 18 38 81.5t91.5 150.5t125 189.5t137 200.5t126 182t95.5 136q-86 -35 -140.5 -64t-72.5 -41q-20 -12 -52 -3t-58.5 29.5t-39 44.5t5.5 38t72.5 36.5t127.5 48t155 52.5t154.5 48.5 t129 34.5t74.5 15q20 2 49 -12t50.5 -32.5t28.5 -35t-13 -20.5q-109 -20 -204 -48t-175 -57q20 -25 30.5 -57.5t-10.5 -52.5q-12 -12 -53 -67.5t-97 -138.5t-123 -183.5t-129 -198.5t-112.5 -187t-76.5 -149l125 25q18 2 44.5 -9.5t44 -26.5t17.5 -30.5t-33 -21.5 q-35 -6 -120 -32t-180 -56.5t-178 -58t-112 -38.5q-29 -10 -53 2.5t-40.5 34t-25 43t-1.5 29.5zM940 1280q-2 12 12 20q20 12 61.5 44t86.5 70t86 76t63 62q20 23 51 33t57.5 10t41 -12t4.5 -33q-6 -18 -14.5 -50t-14.5 -65.5t-9 -65.5t-1 -46q2 -12 -15.5 -24.5t-40 -18.5 t-43 -5t-22.5 15q-4 14 3 48t17.5 69t20.5 62.5t10 31.5q-6 -10 -37.5 -52t-72.5 -89t-82 -86t-64 -41q-27 -4 -48 3t-34.5 19.5t-15.5 24.5z" />
<glyph unicode="&#xcf;" horiz-adv-x="1173" d="M25 -131q10 12 51 27.5t99 32t127 31.5t134 30q-16 12 -26.5 31.5t-6.5 46.5q2 18 38 81.5t91.5 150.5t125 189.5t137 200.5t126 182t95.5 136q-86 -35 -140.5 -64t-72.5 -41q-20 -12 -52 -3t-58.5 29.5t-39 44.5t5.5 38t72.5 36.5t127.5 48t155 52.5t154.5 48.5 t129 34.5t74.5 15q20 2 49 -12t50.5 -32.5t28.5 -35t-13 -20.5q-109 -20 -204 -48t-175 -57q20 -25 30.5 -57.5t-10.5 -52.5q-12 -12 -53 -67.5t-97 -138.5t-123 -183.5t-129 -198.5t-112.5 -187t-76.5 -149l125 25q18 2 44.5 -9.5t44 -26.5t17.5 -30.5t-33 -21.5 q-35 -6 -120 -32t-180 -56.5t-178 -58t-112 -38.5q-29 -10 -53 2.5t-40.5 34t-25 43t-1.5 29.5zM934 1325q-12 23 3 51.5t44 53t61.5 42t55.5 15.5q4 0 18 -5t28.5 -14.5t25 -20.5t6.5 -26q-4 -18 -21.5 -39.5t-39 -40t-45 -32t-42.5 -19.5q-29 -10 -56.5 4.5t-37.5 30.5z M1182 1335q-14 25 3 54.5t48 56.5t66.5 45t58.5 16q4 0 19.5 -6t30.5 -15t25.5 -21.5t8.5 -26.5q-6 -20 -21.5 -43t-37 -42.5t-45 -34.5t-42.5 -22q-31 -10 -66.5 4.5t-47.5 34.5z" />
<glyph unicode="&#xd0;" horiz-adv-x="1964" d="M23 154q-8 35 29.5 39t85.5 -13.5t92 -49.5t49 -71q4 -43 37.5 -82.5t88 -69.5t128 -44.5t157.5 -5.5q131 12 276.5 82.5t285 175t259 230.5t196.5 251t101.5 236.5t-28.5 187.5q-37 53 -120 67.5t-192.5 1t-237.5 -49t-254 -85t-242 -106.5t-202 -112.5t-133 -103.5 t-34 -79q10 -27 70.5 -18.5t146.5 35t185 68.5t188 83t156 75.5t85 51.5q29 23 50.5 4.5t29.5 -52.5t1 -73t-38 -57q-33 -20 -88 -63.5t-121 -102.5q39 8 65.5 11t37.5 3q18 -2 35.5 -24.5t25.5 -47t2 -43t-37 -8.5q-29 10 -100.5 4t-157.5 -18q-94 -94 -168 -186.5 t-90 -157.5q-6 -27 -30.5 -24t-49 25.5t-40 63.5t-5.5 91q4 29 29.5 62.5t64.5 70.5q-45 -10 -76.5 -19.5t-46.5 -15.5q-23 -10 -27.5 -1t2.5 24.5t25 35t43 31.5q16 10 76 25.5t137 33.5q86 70 173.5 132.5t140.5 105.5q-252 -129 -418 -205t-219 -90q-27 -6 -62.5 15.5 t-65.5 59.5t-44 89t0 102q10 35 69.5 91.5t154.5 122t218 132t260.5 120.5t282.5 91t283 41q121 4 202.5 -52t129.5 -135t66.5 -163t12.5 -137q-12 -100 -70.5 -214t-151.5 -226.5t-213 -215t-253 -181.5t-272.5 -127t-272.5 -48q-186 -2 -311 47t-203 115.5t-114.5 135.5 t-44.5 108z" />
<glyph unicode="&#xd1;" horiz-adv-x="1714" d="M20.5 -128q-6.5 52 8.5 103q6 20 35.5 66.5t76.5 109t106.5 135t124 146.5t128 144.5t120 127t100.5 94.5t66 48q16 8 33 6t33 -6q23 84 47.5 160.5t50.5 144.5q12 31 39 14.5t50.5 -54.5t35.5 -84t-4 -77q-41 -80 -81 -188.5t-74.5 -228t-60.5 -237.5t-38 -213 t-7 -158.5t32 -74.5q12 -4 59 65t121 183.5t170 262t204.5 302t226.5 303t237 263.5q23 20 39 -8.5t23 -75.5t2 -96.5t-28 -69.5q-74 -66 -161.5 -165t-179 -215t-180.5 -236.5t-164.5 -228t-133 -193.5t-84.5 -129q-20 -33 -56 -49.5t-75 -13.5t-72.5 24.5t-52.5 62.5 q-18 47 -20 142.5t10 220.5t38 267t60 284q-59 -53 -129.5 -135.5t-144.5 -176.5t-146.5 -194.5t-132 -190.5t-102.5 -162.5t-57 -111.5q-16 -39 -36 -33t-35 40t-21.5 86zM1139 1176.5q-8 13.5 6 21.5q20 12 58 40t78 58.5t76 58t54 42.5q14 10 38 18t44 9t32.5 -5t4.5 -22 q-10 -18 -19.5 -43t-14.5 -47.5t-6 -40t9 -19.5q20 -6 48 12.5t52.5 47t43 61.5t24.5 57q2 12 24.5 10.5t46 -14t37 -35t-5.5 -53.5q-16 -31 -64 -66.5t-102.5 -64t-103.5 -45t-69 -6.5q-31 14 -48.5 45t-13.5 78q-6 2 -19.5 -15.5t-32 -41t-37.5 -46t-36 -30.5 q-16 -8 -37.5 -3t-40 15t-26.5 23.5z" />
<glyph unicode="&#xd2;" horiz-adv-x="1353" d="M28.5 169q-14.5 73 4.5 140q33 115 98.5 222.5t150.5 202.5t180 177t187 146.5t174 109.5t138 68q33 12 65.5 0t54 -34.5t26.5 -47.5t-15 -33q78 -25 113.5 -88t37.5 -152t-24.5 -197t-75.5 -219.5t-115.5 -221t-143.5 -202.5t-159 -163t-162 -102q-63 -25 -132 -13.5 t-134.5 48t-121.5 94t-94 125t-52.5 140.5zM147 168q-10 -74 19 -134.5t86 -94t137 -33.5t170 47q53 29 118.5 90t132.5 143t129 177.5t109.5 190.5t74 185t23.5 161t-42 115t-125 50q-66 -35 -147.5 -84t-170 -113.5t-173.5 -141.5t-155.5 -165t-121 -187.5t-64.5 -205.5z M932 1442q6 33 20.5 60.5t31.5 39.5t26 -10q6 -20 25.5 -54t50 -71t73.5 -74t96 -65q20 -12 17.5 -22.5t-20 -17.5t-45 -9t-54.5 4q-20 4 -52 24.5t-64.5 47t-59.5 53t-39 43.5q-12 18 -6 51z" />
<glyph unicode="&#xd3;" horiz-adv-x="1353" d="M28.5 169q-14.5 73 4.5 140q33 115 98.5 222.5t150.5 202.5t180 177t187 146.5t174 109.5t138 68q33 12 65.5 0t54 -34.5t26.5 -47.5t-15 -33q78 -25 113.5 -88t37.5 -152t-24.5 -197t-75.5 -219.5t-115.5 -221t-143.5 -202.5t-159 -163t-162 -102q-63 -25 -132 -13.5 t-134.5 48t-121.5 94t-94 125t-52.5 140.5zM147 168q-10 -74 19 -134.5t86 -94t137 -33.5t170 47q53 29 118.5 90t132.5 143t129 177.5t109.5 190.5t74 185t23.5 161t-42 115t-125 50q-66 -35 -147.5 -84t-170 -113.5t-173.5 -141.5t-155.5 -165t-121 -187.5t-64.5 -205.5z M860 1290.5q4 18.5 18.5 43t34.5 42.5q16 14 63.5 45t103 63t105.5 55.5t70 23.5q23 0 46.5 -21.5t39 -47.5t16.5 -46.5t-24 -17.5q-23 2 -74 -11.5t-114.5 -36t-131 -53.5t-122.5 -63q-20 -12 -27.5 -3t-3.5 27.5z" />
<glyph unicode="&#xd4;" horiz-adv-x="1353" d="M28.5 169q-14.5 73 4.5 140q33 115 98.5 222.5t150.5 202.5t180 177t187 146.5t174 109.5t138 68q33 12 65.5 0t54 -34.5t26.5 -47.5t-15 -33q78 -25 113.5 -88t37.5 -152t-24.5 -197t-75.5 -219.5t-115.5 -221t-143.5 -202.5t-159 -163t-162 -102q-63 -25 -132 -13.5 t-134.5 48t-121.5 94t-94 125t-52.5 140.5zM147 168q-10 -74 19 -134.5t86 -94t137 -33.5t170 47q53 29 118.5 90t132.5 143t129 177.5t109.5 190.5t74 185t23.5 161t-42 115t-125 50q-66 -35 -147.5 -84t-170 -113.5t-173.5 -141.5t-155.5 -165t-121 -187.5t-64.5 -205.5z M793 1313.5q0 13.5 14 19.5q23 8 67 36t93 60.5t94 65.5t69 53q25 20 57 27.5t58.5 3.5t38.5 -17.5t0 -33.5q-10 -16 -21.5 -47t-21.5 -64t-16 -63.5t-6 -46.5q0 -12 -18.5 -22.5t-42 -13.5t-44 0t-20.5 19q-2 14 8 44t22.5 63t25.5 59.5t17 34.5q-8 -10 -45 -48t-82 -79 t-89 -75t-66 -34q-27 0 -48.5 10.5t-32.5 22.5t-11 25.5z" />
<glyph unicode="&#xd5;" horiz-adv-x="1353" d="M28.5 169q-14.5 73 4.5 140q33 115 98.5 222.5t150.5 202.5t180 177t187 146.5t174 109.5t138 68q33 12 65.5 0t54 -34.5t26.5 -47.5t-15 -33q78 -25 113.5 -88t37.5 -152t-24.5 -197t-75.5 -219.5t-115.5 -221t-143.5 -202.5t-159 -163t-162 -102q-63 -25 -132 -13.5 t-134.5 48t-121.5 94t-94 125t-52.5 140.5zM147 168q-10 -74 19 -134.5t86 -94t137 -33.5t170 47q53 29 118.5 90t132.5 143t129 177.5t109.5 190.5t74 185t23.5 161t-42 115t-125 50q-66 -35 -147.5 -84t-170 -113.5t-173.5 -141.5t-155.5 -165t-121 -187.5t-64.5 -205.5z M766 1289.5q-8 13.5 6 21.5q20 12 58 39.5t78 58.5t76 58.5t54 41.5q14 10 38 18.5t44.5 9.5t32.5 -5t4 -23q-10 -18 -19.5 -42.5t-14.5 -47t-6 -40t9 -19.5q20 -6 48 12.5t52.5 47t43 61t24.5 57.5q2 12 24.5 10t46.5 -14t37 -34.5t-5 -53.5q-16 -31 -64.5 -67 t-102.5 -64.5t-103.5 -45t-69.5 -5.5q-31 14 -48.5 44.5t-13.5 77.5q-6 2 -19 -15t-31.5 -40.5t-38 -46t-36.5 -31.5q-16 -8 -37.5 -3t-40 15.5t-26.5 24z" />
<glyph unicode="&#xd6;" horiz-adv-x="1353" d="M28.5 169q-14.5 73 4.5 140q33 115 98.5 222.5t150.5 202.5t180 177t187 146.5t174 109.5t138 68q33 12 65.5 0t54 -34.5t26.5 -47.5t-15 -33q78 -25 113.5 -88t37.5 -152t-24.5 -197t-75.5 -219.5t-115.5 -221t-143.5 -202.5t-159 -163t-162 -102q-63 -25 -132 -13.5 t-134.5 48t-121.5 94t-94 125t-52.5 140.5zM147 168q-10 -74 19 -134.5t86 -94t137 -33.5t170 47q53 29 118.5 90t132.5 143t129 177.5t109.5 190.5t74 185t23.5 161t-42 115t-125 50q-66 -35 -147.5 -84t-170 -113.5t-173.5 -141.5t-155.5 -165t-121 -187.5t-64.5 -205.5z M874 1339q-12 23 3.5 51.5t44 53t61.5 42t55 15.5q4 0 18.5 -5t29 -14t24.5 -20.5t6 -25.5q-4 -18 -21.5 -40t-39 -40.5t-45 -31.5t-41.5 -19q-29 -10 -57 4t-38 30zM1122 1350q-14 25 3.5 54.5t48 56t66.5 45t58 16.5q4 0 19.5 -6.5t31 -15.5t25.5 -21.5t8 -26.5 q-6 -20 -21 -43t-36.5 -42t-45.5 -34.5t-42 -21.5q-31 -10 -67 4.5t-48 34.5z" />
<glyph unicode="&#xd7;" horiz-adv-x="841" d="M-24.5 212q-10.5 11 18.5 28q14 10 58 39.5t93.5 65.5t92.5 70t59 52q-4 23 -11 51.5t-15.5 57t-15.5 51t-11 32.5q-10 18 4 28.5t37.5 12.5t48 -7t35.5 -27q4 -10 7 -35t5 -50.5t4 -47t2 -25.5q0 2 19.5 24.5t49 52t63.5 59.5t65 42t69.5 15.5t68.5 -2t39 -17t-18 -27.5 q-16 -10 -60 -39.5t-93 -65.5t-93 -70t-59 -52q2 -23 10.5 -52.5t16.5 -57t16 -51t13 -31.5q8 -18 -6.5 -28.5t-38 -12.5t-47 7t-33.5 27q-6 10 -9.5 35t-6.5 50.5t-4 46t-1 24.5q-2 0 -21.5 -23.5t-49 -52t-62.5 -58.5t-61 -42q-33 -12 -72 -15.5t-67.5 2t-39 16.5z" />
<glyph unicode="&#xd8;" horiz-adv-x="1353" d="M-42 -170q1 20 22 47q20 29 47.5 62.5t60.5 72.5q-41 72 -58.5 149t3.5 148q33 115 98.5 222.5t150.5 202.5t180 177t187 146.5t174 109.5t138 68q33 12 65.5 0t54 -34.5t26.5 -47.5t-15 -33q44 -14 75 -43q47 20 103.5 20.5t99.5 -10t58.5 -29t-21.5 -34.5 q-39 -16 -80 -41t-88 -55q12 -86 -9.5 -195.5t-68.5 -226.5t-115.5 -232.5t-147.5 -216t-165 -174t-170 -108.5q-53 -20 -110.5 -16.5t-112.5 28.5t-107.5 64.5t-93.5 91.5q-39 -41 -68.5 -77t-47.5 -59q-12 -16 -29 -18t-27 9.5t-9 31.5zM147 168q-6 -49 3 -86 q68 80 149.5 170t168.5 181t176 181.5t170 168t151.5 142t124.5 103.5q-20 16 -47 25.5t-64 11.5q-66 -35 -147.5 -84t-170 -113.5t-173.5 -141.5t-155.5 -165t-121 -187.5t-64.5 -205.5zM188 -4q53 -68 151.5 -86t219.5 43q51 27 113.5 85t126 135t124 167t108.5 182 t79 180.5t35 161.5q-119 -86 -250 -197.5t-259 -230.5t-244 -233.5t-204 -206.5z" />
<glyph unicode="&#xd9;" horiz-adv-x="1472" d="M23 0q2 29 51 111t120.5 192.5t156.5 237.5t159 249.5t126 227t60 168.5q2 25 28 22.5t53.5 -23t47 -55t9.5 -71.5q-20 -78 -85 -188.5t-147 -233.5t-171 -247t-156.5 -227.5t-103.5 -176t-13 -92.5q12 -12 93 40t200.5 150t268 233.5t299 289t291 316t242.5 316.5 q16 25 37 13.5t36 -37t21.5 -56.5t-8.5 -49q-104 -125 -194 -250t-158.5 -256t-114 -272t-59.5 -301q-2 -20 -23.5 -15.5t-47 23t-46 46.5t-20.5 52q0 25 22.5 88.5t54 137t66.5 143t60 106.5q-59 -66 -141.5 -151.5t-172.5 -179t-182 -183.5t-173 -163.5t-144.5 -120.5 t-94.5 -54q-47 -10 -92 10.5t-81 57.5t-57.5 83t-16.5 89zM1024 1384q6 33 20.5 61t32 40t25.5 -10q6 -20 25.5 -54.5t50 -71t73.5 -73.5t97 -66q20 -12 17 -22t-20.5 -17.5t-45 -9.5t-54.5 4q-20 4 -52 24.5t-64.5 47.5t-59.5 53.5t-39 42.5q-12 18 -6 51z" />
<glyph unicode="&#xda;" horiz-adv-x="1472" d="M23 0q2 29 51 111t120.5 192.5t156.5 237.5t159 249.5t126 227t60 168.5q2 25 28 22.5t53.5 -23t47 -55t9.5 -71.5q-20 -78 -85 -188.5t-147 -233.5t-171 -247t-156.5 -227.5t-103.5 -176t-13 -92.5q12 -12 93 40t200.5 150t268 233.5t299 289t291 316t242.5 316.5 q16 25 37 13.5t36 -37t21.5 -56.5t-8.5 -49q-104 -125 -194 -250t-158.5 -256t-114 -272t-59.5 -301q-2 -20 -23.5 -15.5t-47 23t-46 46.5t-20.5 52q0 25 22.5 88.5t54 137t66.5 143t60 106.5q-59 -66 -141.5 -151.5t-172.5 -179t-182 -183.5t-173 -163.5t-144.5 -120.5 t-94.5 -54q-47 -10 -92 10.5t-81 57.5t-57.5 83t-16.5 89zM1022 1228.5q4 18.5 18.5 43.5t34.5 43q16 14 63.5 45t102.5 62.5t105.5 55t70.5 23.5q23 0 46.5 -21.5t39 -47t16.5 -46t-24 -18.5q-23 2 -74 -11.5t-114.5 -36t-131 -53t-122.5 -63.5q-20 -12 -27.5 -3t-3.5 27.5 z" />
<glyph unicode="&#xdb;" horiz-adv-x="1472" d="M23 0q2 29 51 111t120.5 192.5t156.5 237.5t159 249.5t126 227t60 168.5q2 25 28 22.5t53.5 -23t47 -55t9.5 -71.5q-20 -78 -85 -188.5t-147 -233.5t-171 -247t-156.5 -227.5t-103.5 -176t-13 -92.5q12 -12 93 40t200.5 150t268 233.5t299 289t291 316t242.5 316.5 q16 25 37 13.5t36 -37t21.5 -56.5t-8.5 -49q-104 -125 -194 -250t-158.5 -256t-114 -272t-59.5 -301q-2 -20 -23.5 -15.5t-47 23t-46 46.5t-20.5 52q0 25 22.5 88.5t54 137t66.5 143t60 106.5q-59 -66 -141.5 -151.5t-172.5 -179t-182 -183.5t-173 -163.5t-144.5 -120.5 t-94.5 -54q-47 -10 -92 10.5t-81 57.5t-57.5 83t-16.5 89zM979 1238q0 13 14 19q23 8 67 36t93 60.5t94 65.5t70 54q25 20 56.5 27t58 3t39 -17t-0.5 -34q-10 -16 -21 -47t-21.5 -63.5t-16.5 -63.5t-6 -47q0 -12 -18.5 -22.5t-42 -13.5t-44 0t-20.5 19q-2 14 8 44t22.5 63 t26 59.5t17.5 34.5q-8 -10 -45 -48t-82 -79t-89 -74.5t-67 -33.5q-27 0 -48.5 10t-32.5 22.5t-11 25.5z" />
<glyph unicode="&#xdc;" horiz-adv-x="1472" d="M23 0q2 29 51 111t120.5 192.5t156.5 237.5t159 249.5t126 227t60 168.5q2 25 28 22.5t53.5 -23t47 -55t9.5 -71.5q-20 -78 -85 -188.5t-147 -233.5t-171 -247t-156.5 -227.5t-103.5 -176t-13 -92.5q12 -12 93 40t200.5 150t268 233.5t299 289t291 316t242.5 316.5 q16 25 37 13.5t36 -37t21.5 -56.5t-8.5 -49q-104 -125 -194 -250t-158.5 -256t-114 -272t-59.5 -301q-2 -20 -23.5 -15.5t-47 23t-46 46.5t-20.5 52q0 25 22.5 88.5t54 137t66.5 143t60 106.5q-59 -66 -141.5 -151.5t-172.5 -179t-182 -183.5t-173 -163.5t-144.5 -120.5 t-94.5 -54q-47 -10 -92 10.5t-81 57.5t-57.5 83t-16.5 89zM983 1274q-12 23 3 51.5t44 53t61.5 42t55.5 15.5q4 0 18.5 -5.5t28.5 -14.5t24.5 -20.5t6.5 -25.5q-4 -18 -21.5 -39.5t-39 -40t-45 -32t-42.5 -19.5q-29 -10 -56.5 4.5t-37.5 30.5zM1231 1284q-14 25 3 54.5 t48 56t66.5 45t58.5 16.5q4 0 19.5 -6t31 -15.5t25.5 -21.5t8 -27q-6 -20 -21.5 -42.5t-37 -42t-45 -35t-41.5 -21.5q-31 -10 -67 4.5t-48 34.5z" />
<glyph unicode="&#xdd;" horiz-adv-x="1193" d="M25 272q4 23 51 93.5t113.5 166t145.5 202t147.5 202.5t116.5 170t56 100q12 41 41 42t57.5 -18.5t50 -50t17.5 -51.5q-2 -10 -34.5 -54t-84 -109.5t-116 -145.5t-131 -162t-128 -161.5t-108.5 -143t-71.5 -104.5t-16.5 -49q10 -10 61.5 21.5t130 91t177 141.5t203 172 t208 180t190.5 169t150.5 139.5t89.5 86.5q33 33 53.5 13.5t28 -60.5t0 -88t-29.5 -68q-10 -10 -55.5 -58t-113 -122t-150.5 -169t-170 -199.5t-172 -213t-156.5 -211t-123 -192.5t-69.5 -158q-6 -23 -25.5 -14.5t-41 31t-39 54.5t-17.5 56q-2 27 39 89.5t105.5 143.5 t145.5 174t159.5 184t149.5 171t114 133q-53 -45 -128 -110.5t-158 -137t-167 -141t-154.5 -126t-120.5 -92.5t-67 -36q-25 -2 -54.5 19.5t-54 53.5t-38 72t-6.5 74zM934 1259.5q4 18.5 18.5 43.5t34.5 43q16 14 63.5 44.5t102.5 62.5t105.5 55.5t70.5 23.5q23 0 46.5 -21.5 t39 -47t16.5 -46t-24 -18.5q-23 2 -74 -11.5t-114.5 -36t-131 -53t-122.5 -63.5q-20 -12 -27.5 -3t-3.5 27.5z" />
<glyph unicode="&#xde;" horiz-adv-x="1673" d="M27 434q8 53 85.5 125t197.5 145.5t270.5 139t306.5 108.5q61 72 117.5 136.5t102.5 116.5t79 86t49 44t30.5 -3t20.5 -35.5t3 -49t-21 -43.5q-25 -23 -72 -78t-106 -133q154 23 284.5 1.5t218.5 -99.5q61 -57 57.5 -132t-58 -160t-150.5 -173t-217 -171t-260.5 -154.5 t-278.5 -122.5q-25 -10 -58.5 4t-56 35.5t-25.5 45t34 33.5q47 12 127.5 46t176 82t198 106.5t193.5 120t161.5 124t104.5 120t20.5 104.5t-88.5 78q-94 39 -220.5 30.5t-263.5 -49.5q-72 -94 -148.5 -200.5t-152.5 -214t-146.5 -212t-127 -193.5t-96 -158.5t-52.5 -108.5 q-10 -25 -37.5 -18t-56.5 28.5t-49.5 51.5t-11.5 52q14 37 53 87.5t91 105.5t110.5 112.5t111.5 106.5q-121 -92 -211 -113.5t-148.5 6t-82 94t-8.5 146.5zM133.5 334q-24.5 -59 34.5 -84q25 -10 81 29.5t132 112.5t165 170t179 202q-145 -66 -273 -144.5t-211 -152.5 t-107.5 -133z" />
<glyph unicode="&#xdf;" horiz-adv-x="610" d="M-324.5 -195.5q-9.5 19.5 2.5 37.5q25 33 62 103.5t84 165.5q-12 31 -12 64.5t7 57t18 31.5t24 -12l16 -33q55 119 117.5 248t126 249t123 217t110.5 150q23 25 69 16t92 -36t81 -61.5t35 -65.5q0 -25 -13.5 -71t-43 -98t-76 -103t-109.5 -84q-14 -8 -15 -9.5t11 -23.5 q45 -74 37 -154t-57 -190q-35 -74 -90.5 -119t-117 -65.5t-123 -19.5t-110.5 19q-41 -74 -73.5 -132t-57.5 -93q-16 -25 -41.5 -27t-46 8.5t-30 30zM-14 137q18 -4 42.5 -8t53.5 -6q53 -4 109.5 14.5t87.5 81.5q18 37 20 78t-7 79t-24.5 70.5t-29.5 55.5q-29 39 -22 58.5 t48 47.5q104 72 156.5 150t68 137t3 92t-34.5 14q-29 -23 -82 -111.5t-117.5 -212.5t-135.5 -267.5t-136 -272.5z" />
<glyph unicode="&#xe0;" horiz-adv-x="768" d="M-155.5 170q-8.5 43 1.5 76q10 37 54.5 100.5t106 136t134 146t142 132t130 91.5t97.5 25q14 -4 32.5 -25t32 -51.5t17.5 -69.5t-10 -76q29 -16 45 -49.5t0 -58.5q-55 -86 -100.5 -154.5t-74 -117t-39 -77t2.5 -34.5q14 -8 58 27.5t99.5 88t108.5 107.5t86 88 q27 27 55.5 43.5t46 17.5t16.5 -13.5t-32 -47.5q-45 -45 -108.5 -120.5t-126 -150.5t-113.5 -131.5t-74 -62.5q-31 -10 -56.5 0t-44 31.5t-26.5 51.5t-4 61q2 25 16.5 58.5t33 67t34.5 63.5t27 46q-8 -14 -35 -48t-65 -77t-83 -90t-90 -85t-86 -63.5t-69 -25.5 q-33 0 -63 25.5t-49 63.5t-27.5 81zM-33 154q14 -18 66.5 11.5t124 93t154.5 150.5t161 183q27 51 40 89t1 46q-25 12 -78 -19.5t-118.5 -90t-135 -131t-122 -140t-81 -121t-12.5 -71.5zM395 1124q6 33 20.5 60.5t32 40t25.5 -10.5q6 -20 25.5 -54t50.5 -70.5t74 -73.5 t96 -66q20 -12 17 -22t-20.5 -17.5t-45 -9.5t-54.5 4q-20 4 -52 24.5t-64.5 47.5t-59 53.5t-39.5 42.5q-12 18 -6 51z" />
<glyph unicode="&#xe1;" horiz-adv-x="768" d="M-155.5 170q-8.5 43 1.5 76q10 37 54.5 100.5t106 136t134 146t142 132t130 91.5t97.5 25q14 -4 32.5 -25t32 -51.5t17.5 -69.5t-10 -76q29 -16 45 -49.5t0 -58.5q-55 -86 -100.5 -154.5t-74 -117t-39 -77t2.5 -34.5q14 -8 58 27.5t99.5 88t108.5 107.5t86 88 q27 27 55.5 43.5t46 17.5t16.5 -13.5t-32 -47.5q-45 -45 -108.5 -120.5t-126 -150.5t-113.5 -131.5t-74 -62.5q-31 -10 -56.5 0t-44 31.5t-26.5 51.5t-4 61q2 25 16.5 58.5t33 67t34.5 63.5t27 46q-8 -14 -35 -48t-65 -77t-83 -90t-90 -85t-86 -63.5t-69 -25.5 q-33 0 -63 25.5t-49 63.5t-27.5 81zM-33 154q14 -18 66.5 11.5t124 93t154.5 150.5t161 183q27 51 40 89t1 46q-25 12 -78 -19.5t-118.5 -90t-135 -131t-122 -140t-81 -121t-12.5 -71.5zM371 933.5q4 18.5 18.5 43.5t34.5 43q16 14 63.5 45t102.5 62.5t105 55t71 23.5 q23 0 46.5 -21.5t38.5 -47t16 -46t-23 -18.5q-23 2 -74 -11t-114.5 -35.5t-131 -53.5t-123.5 -64q-20 -12 -27 -3t-3 27.5z" />
<glyph unicode="&#xe2;" horiz-adv-x="768" d="M-155.5 170q-8.5 43 1.5 76q10 37 54.5 100.5t106 136t134 146t142 132t130 91.5t97.5 25q14 -4 32.5 -25t32 -51.5t17.5 -69.5t-10 -76q29 -16 45 -49.5t0 -58.5q-55 -86 -100.5 -154.5t-74 -117t-39 -77t2.5 -34.5q14 -8 58 27.5t99.5 88t108.5 107.5t86 88 q27 27 55.5 43.5t46 17.5t16.5 -13.5t-32 -47.5q-45 -45 -108.5 -120.5t-126 -150.5t-113.5 -131.5t-74 -62.5q-31 -10 -56.5 0t-44 31.5t-26.5 51.5t-4 61q2 25 16.5 58.5t33 67t34.5 63.5t27 46q-8 -14 -35 -48t-65 -77t-83 -90t-90 -85t-86 -63.5t-69 -25.5 q-33 0 -63 25.5t-49 63.5t-27.5 81zM-33 154q14 -18 66.5 11.5t124 93t154.5 150.5t161 183q27 51 40 89t1 46q-25 12 -78 -19.5t-118.5 -90t-135 -131t-122 -140t-81 -121t-12.5 -71.5zM330 961.5q0 13.5 14 19.5q23 8 67 35.5t93 60.5t94 66t70 53t56.5 27.5t58 3.5 t39 -17.5t-0.5 -33.5q-10 -16 -21.5 -47t-21.5 -64t-16 -63.5t-6 -47.5q0 -12 -18.5 -22t-42 -13.5t-44 0t-20.5 19.5q-2 14 8 44t22.5 62.5t25.5 59t18 35.5q-8 -10 -45 -48t-82.5 -79t-89.5 -75t-66 -34q-27 0 -48.5 10.5t-32.5 22.5t-11 25.5z" />
<glyph unicode="&#xe3;" horiz-adv-x="768" d="M-155.5 170q-8.5 43 1.5 76q10 37 54.5 100.5t106 136t134 146t142 132t130 91.5t97.5 25q14 -4 32.5 -25t32 -51.5t17.5 -69.5t-10 -76q29 -16 45 -49.5t0 -58.5q-55 -86 -100.5 -154.5t-74 -117t-39 -77t2.5 -34.5q14 -8 58 27.5t99.5 88t108.5 107.5t86 88 q27 27 55.5 43.5t46 17.5t16.5 -13.5t-32 -47.5q-45 -45 -108.5 -120.5t-126 -150.5t-113.5 -131.5t-74 -62.5q-31 -10 -56.5 0t-44 31.5t-26.5 51.5t-4 61q2 25 16.5 58.5t33 67t34.5 63.5t27 46q-8 -14 -35 -48t-65 -77t-83 -90t-90 -85t-86 -63.5t-69 -25.5 q-33 0 -63 25.5t-49 63.5t-27.5 81zM-33 154q14 -18 66.5 11.5t124 93t154.5 150.5t161 183q27 51 40 89t1 46q-25 12 -78 -19.5t-118.5 -90t-135 -131t-122 -140t-81 -121t-12.5 -71.5zM273 951.5q-8 13.5 6 21.5q20 12 58 39.5t78 58.5t75.5 58.5t54.5 41.5 q14 10 37.5 18.5t44 9.5t33 -5t4.5 -23q-10 -18 -19.5 -42.5t-14.5 -47t-6 -40t9 -19.5q20 -6 48 12.5t52.5 47t43 61.5t24.5 57q2 12 24.5 10t46 -14t37 -34.5t-5.5 -53.5q-16 -31 -64 -66.5t-102.5 -64.5t-103.5 -45.5t-70 -5.5q-31 14 -48 44.5t-13 78.5 q-6 2 -19.5 -15.5t-32 -41t-38 -46t-35.5 -31.5q-16 -8 -38 -2.5t-40 15.5t-26 23.5z" />
<glyph unicode="&#xe4;" horiz-adv-x="768" d="M-155.5 170q-8.5 43 1.5 76q10 37 54.5 100.5t106 136t134 146t142 132t130 91.5t97.5 25q14 -4 32.5 -25t32 -51.5t17.5 -69.5t-10 -76q29 -16 45 -49.5t0 -58.5q-55 -86 -100.5 -154.5t-74 -117t-39 -77t2.5 -34.5q14 -8 58 27.5t99.5 88t108.5 107.5t86 88 q27 27 55.5 43.5t46 17.5t16.5 -13.5t-32 -47.5q-45 -45 -108.5 -120.5t-126 -150.5t-113.5 -131.5t-74 -62.5q-31 -10 -56.5 0t-44 31.5t-26.5 51.5t-4 61q2 25 16.5 58.5t33 67t34.5 63.5t27 46q-8 -14 -35 -48t-65 -77t-83 -90t-90 -85t-86 -63.5t-69 -25.5 q-33 0 -63 25.5t-49 63.5t-27.5 81zM-33 154q14 -18 66.5 11.5t124 93t154.5 150.5t161 183q27 51 40 89t1 46q-25 12 -78 -19.5t-118.5 -90t-135 -131t-122 -140t-81 -121t-12.5 -71.5zM352 1014q-12 23 3.5 51.5t44 53t61.5 42t55 15.5q4 0 18.5 -5.5t29 -14.5t24.5 -20.5 t6 -25.5q-4 -18 -21.5 -39.5t-39 -40t-45 -32t-42.5 -19.5q-29 -10 -56.5 4.5t-37.5 30.5zM600 1024q-14 25 3.5 54.5t48 56t66.5 45t58 16.5q4 0 19.5 -6t31 -15.5t25.5 -21.5t8 -27q-6 -20 -21.5 -42.5t-37 -42t-45 -35t-41.5 -21.5q-31 -10 -67 4.5t-48 34.5z" />
</font>
</defs>
</svg>
